<?xml version="1.0" encoding="utf-8"?>
<!DOCTYPE svg PUBLIC "-//W3C//DTD SVG 1.1//EN" "http://www.w3.org/Graphics/SVG/1.1/DTD/svg11.dtd">
<svg fill="#fff" version="1.1" xmlns="http://www.w3.org/2000/svg" xmlns:xlink="http://www.w3.org/1999/xlink" x="0px" y="0px"
	 width="36.025px" height="22px" viewBox="0 0 36.025 22" enable-background="new 0 0 36.025 22" xml:space="preserve">
	<path d="M16,1.396c0-0.552-0.447-1-1-1H1c-0.553,0-1,0.448-1,1s0.447,1,1,1h14C15.553,2.396,16,1.948,16,1.396z"/>
	<path d="M12.828,4.625h-8c-0.553,0-1,0.448-1,1s0.447,1,1,1h8c0.552,0,1-0.448,1-1S13.38,4.625,12.828,4.625z"/>
	<path d="M11.494,8.792h-4c-0.553,0-1,0.448-1,1s0.447,1,1,1h4c0.553,0,1-0.448,1-1S12.047,8.792,11.494,8.792z"/>
	<path d="M25.025,0c-0.804,0-1.586,0.092-2.341,0.255V11.27c0,1.292,1.051,2.342,2.342,2.342s2.341-1.05,2.341-2.342
		c0-1.291-1.05-2.341-2.341-2.341v-1.5c2.118,0,3.841,1.723,3.841,3.841s-1.723,3.842-3.841,3.842s-3.842-1.724-3.842-3.842V0.703
		c-0.52,0.194-1.021,0.417-1.5,0.684v9.883c0,2.945,2.396,5.342,5.342,5.342s5.341-2.396,5.341-5.342s-2.396-5.341-5.341-5.341v-1.5
		c3.772,0,6.841,3.069,6.841,6.841s-3.068,6.842-6.841,6.842s-6.842-3.069-6.842-6.842V2.395C15.653,4.411,14.025,7.513,14.025,11
		c0,6.075,4.925,11,11,11s11-4.925,11-11S31.101,0,25.025,0z"/>
</svg>
