<?xml version="1.0" encoding="utf-8"?>
<!-- Generator: Adobe Illustrator 16.0.1, SVG Export Plug-In . SVG Version: 6.00 Build 0)  -->
<!DOCTYPE svg PUBLIC "-//W3C//DTD SVG 1.1//EN" "http://www.w3.org/Graphics/SVG/1.1/DTD/svg11.dtd">
<svg version="1.1" id="Слой_1" xmlns="http://www.w3.org/2000/svg" xmlns:xlink="http://www.w3.org/1999/xlink" x="0px" y="0px"
	 width="201.806px" height="170px" viewBox="0 0 201.806 170" enable-background="new 0 0 201.806 170" xml:space="preserve">
<g>
	<path fill="#299466" d="M7.831,55.392c0,0-0.611,3.569,1.904,8.331c2.517,4.761-3.731,12.868-3.731,12.868
		S-2.388,62.149,7.831,55.392z"/>
	<path fill="#299466" d="M174.677,95.28c0,0,7.175,5.205,10.815-5.069c0,0-4.901-1.725-7.483,1.895
		C175.428,95.726,174.677,95.28,174.677,95.28z"/>
	<path fill="#31BB99" d="M126.902,58.571c0,0,12.338,1.154,6.632,16.095c0,0-6.731-2.824-6.081-9.344
		C128.103,58.801,126.902,58.571,126.902,58.571z"/>
	<path fill="#299466" d="M43.792,99.046c0,0,14.459-14.209,26.18,7.791c0,0-10.499,5.565-17.566-1.745
		C45.34,97.781,43.792,99.046,43.792,99.046z"/>
	<path fill="#299466" d="M170.712,16.841c0,0,6.205,10.037,16.617-1.518c0,0-5.269-4.497-10.59-1.028
		C171.417,17.765,170.712,16.841,170.712,16.841z"/>
	<path fill="#31BB99" d="M20.829,32.336c0,0-6.202-4.745-12.29,1.703C3.822,39.035,3.776,49.966,0,51.362
		c0,0,28.773,6.649,22.281-17.056c0,0-8.704,4.924-11.954,11.42C10.327,45.726,13.213,36.633,20.829,32.336z"/>
	<path fill="#FEBA3D" d="M80.975,112.362c0,0-0.178-8.411,6.065-14.81c6.241-6.397,5.888-22.806-4.875-14.849
		c0,0,0.165-7.293-6.351-7.263c-6.515,0.029-5.22,8.099-5.22,8.099s-2.19-2.404-5.98-0.456c-3.79,1.947-5.487,8.343,2.272,14.098
		c7.76,5.755,9.003,11.126,9.003,11.126s0.678-4.376-0.639-9.042c-1.316-4.667,0.597-12.764,5.438-8.563
		C85.53,94.904,76.227,103.226,80.975,112.362z"/>
	<path fill="#92BD47" d="M154.897,20.953c0,0,2.584-4.627,1.002-10.032s3.462-14.428,7.099-6.821c0,0,2.063-4.106,5.679-2.164
		c3.616,1.941,0.512,6.048,0.512,6.048s1.929-0.689,3.462,1.513c1.533,2.204,0.588,6.264-5.43,7.172
		c-6.018,0.908-8.297,3.529-8.297,3.529s0.917-2.634,3.027-4.841c2.111-2.207,3.439-7.277-0.495-6.371
		C157.521,9.894,160.238,17.273,154.897,20.953z"/>
	<path fill="#43BD98" d="M76.798,113.011c0,0-6.291-7.066-13.493-1.276c-7.201,5.789-9.808,4.588-9.808,4.588s3.14,7.8,10.361,6.729
		s13.378-7.798,17.698-6.527c0,0-3.736-3.605-8.146-2.124c-4.409,1.481-7.319,3.104-8.566,2.139c0,0,0.337,0.329,3.312-1.583
		C71.13,113.042,74.382,112.092,76.798,113.011z"/>
	<path fill="#43BD98" d="M26.641,46.7c0,0-0.236,9.464,8.984,10.159c9.22,0.695,10.301,3.354,10.301,3.354s3.04-7.846-2.968-12
		c-6.008-4.155-15.106-3.451-17.393-7.333c0,0,0.264,5.188,4.499,7.122c4.234,1.934,7.47,2.737,7.722,4.295
		c0,0-0.022-0.47-3.502-1.107C30.803,50.553,27.776,49.024,26.641,46.7z"/>
	<path fill="#43BD98" d="M153.462,10.834c0,0,1.559-5.508-3.601-7.311C144.704,1.722,144.487,0,144.487,0s-2.916,4.135-0.111,7.478
		c2.804,3.343,8.103,4.309,8.824,6.929c0,0,0.629-3.079-1.497-4.852c-2.126-1.774-3.851-2.734-3.761-3.686
		c0,0-0.06,0.279,1.832,1.179C151.666,7.948,153.162,9.301,153.462,10.834z"/>
	<path fill="#299466" d="M15.93,25.695c0,0-3.065-3.232-6.368-0.4c-3.304,2.831-4.548,2.305-4.548,2.305s1.593,3.625,4.977,3.013
		c3.382-0.611,6.181-3.869,8.232-3.334c0,0-1.813-1.641-3.865-0.879c-2.054,0.763-3.399,1.57-4.001,1.134
		c0,0,0.163,0.149,1.535-0.794C13.264,25.794,14.78,25.298,15.93,25.695z"/>
	<path fill="#299466" d="M66.224,5.208c0,0-2.06,4.721-6.767,2.943c-4.706-1.778-5.852-0.716-5.852-0.716S53.911,2.866,57.83,2.2
		c3.919-0.667,8.243,1.773,10.264,0.384c0,0-1.324,2.498-3.857,2.477c-2.532-0.021-4.313-0.369-4.795,0.342
		c0,0,0.118-0.227,1.98,0.259C63.286,6.15,65.13,6.092,66.224,5.208z"/>
	<path fill="#31BB99" d="M103.904,29.451c0,0-1.565-9.443,7.569-11.433c9.133-1.99,9.844-4.805,9.844-4.805
		s4.146,7.429-1.287,12.431c-5.432,5.005-14.641,5.578-16.385,9.785c0,0-0.464-5.231,3.505-7.761
		c3.968-2.531,7.095-3.79,7.127-5.386c0,0,0.045,0.475-3.35,1.601C107.531,25.01,104.716,26.965,103.904,29.451z"/>
	<path fill="#31BB99" d="M98.442,164.852c0,0-5.745-7.206,1.001-13.164c6.748-5.958,6.024-8.659,6.024-8.659
		s6.971,4.302,4.749,11.057c-2.221,6.757-9.694,11.558-9.188,15.914c0,0-2.844-4.181-0.694-8.17c2.149-3.99,4.188-6.515,3.467-7.872
		c0,0,0.261,0.377-2.065,2.917C99.408,159.416,97.959,162.38,98.442,164.852z"/>
	<path fill="#43BD98" d="M125.114,46.249c0,0,9.192-6.74,16.218,1.896c7.025,8.636,14.508,8.428,14.508,8.428
		s-9.774,7.848-18.012,4.764c-8.238-3.082-13.798-12.558-19.207-12.149c0,0,5.311-3.306,10.133-0.448
		c4.822,2.856,7.841,5.501,9.554,4.678c0,0-0.479,0.302-3.502-2.7C131.783,47.714,128.191,45.774,125.114,46.249z"/>
	<path fill="#43BD98" d="M200.336,61.587c0,0-1.148,5.955-7.014,5.127c-5.863-0.828-6.905,0.688-6.905,0.688
		s-0.828-5.326,3.501-7.103c4.328-1.778,9.926-0.092,11.888-2.208c0,0-0.876,3.21-3.791,3.84c-2.915,0.63-5.049,0.69-5.42,1.631
		c0,0,0.078-0.291,2.344-0.213C197.203,63.428,199.307,62.886,200.336,61.587z"/>
	<g>
		<path fill="#15B0E6" d="M71.491,33.789c-0.321-2.29-1.507-3.936-2.928-2.006c-1.42-1.93-2.606-0.284-2.927,2.006
			c-0.382,2.713,2.927,5.855,2.927,5.855S71.872,36.502,71.491,33.789z"/>
		<path fill="#15B0E6" d="M67.565,40.467c0,0-1.966-4.118-4.663-4.594c-2.277-0.401-4.209,0.217-2.813,2.166
			c-2.274,0.754-1.075,2.391,1.002,3.403C63.555,42.642,67.565,40.467,67.565,40.467z"/>
		<path fill="#15B0E6" d="M61.956,45.009c-1.086,2.042-1.094,4.069,1.189,3.343c0.016,2.396,1.942,1.762,3.547,0.099
			c1.903-1.971,1.074-6.458,1.074-6.458S63.243,42.589,61.956,45.009z"/>
		<path fill="#15B0E6" d="M69.488,41.992c0,0-0.829,4.487,1.073,6.458c1.606,1.663,3.532,2.298,3.547-0.098
			c2.285,0.726,2.276-1.302,1.19-3.344C74.013,42.589,69.488,41.992,69.488,41.992z"/>
		<path fill="#15B0E6" d="M77.332,37.799c1.396-1.947-0.536-2.566-2.813-2.165c-2.698,0.476-4.664,4.593-4.664,4.593
			s4.011,2.176,6.474,0.976C78.406,40.19,79.605,38.554,77.332,37.799z"/>
	</g>
	<path fill="#15B0E6" d="M150.385,23.024c0,0,5.918-14.035-9.104-6.752c0,0-11.304-10.925-10.317,4.4c0,0-15.478,4.78-1.896,11.456
		c0,0-5.614,15.705,9.634,6.524c0,0,13.885,10.925,9.939-4.931C148.641,33.721,165.254,28.714,150.385,23.024z M140.144,30.839
		c-1.845,0-3.338-1.495-3.338-3.338c0-1.844,1.493-3.338,3.338-3.338c1.843,0,3.338,1.494,3.338,3.338
		C143.481,29.344,141.986,30.839,140.144,30.839z"/>
	<path fill="#299466" d="M135.842,118.523c0,0,3.394-8.051-5.223-3.873c0,0-6.485-6.268-5.919,2.524c0,0-8.879,2.742-1.089,6.571
		c0,0-3.22,9.01,5.527,3.743c0,0,7.964,6.267,5.701-2.829C134.84,124.66,144.371,121.787,135.842,118.523z M129.966,123.006
		c-1.058,0-1.915-0.858-1.915-1.916s0.857-1.915,1.915-1.915s1.915,0.857,1.915,1.915S131.023,123.006,129.966,123.006z"/>
	<path fill="#299466" d="M191.398,75.921c0,0,6.068-10.059-6.202-6.16c0,0-7.421-9.589-8.361,2.218c0,0-12.342,1.938-2.715,8.534
		c0,0-6.021,11.368,6.634,6.046c0,0,9.389,9.874,8.131-2.666C188.885,83.893,202.12,81.908,191.398,75.921z M182.717,80.754
		c-1.406-0.204-2.382-1.51-2.179-2.917c0.204-1.408,1.511-2.384,2.916-2.18c1.409,0.204,2.384,1.51,2.181,2.918
		C185.431,79.982,184.125,80.958,182.717,80.754z"/>
	<g>
		<path fill="#D94541" d="M50.099,38.205c0,0,0.918,5.263-3.331,6.953c0,0-2.317-4.104-10.622-4.152
			c-8.305-0.048-11.539-4.924-11.008-8.932c0,0,4.394,5.118,11.588,4.152C43.919,35.26,50.099,38.205,50.099,38.205z"/>
		<path fill="#D94541" d="M38.028,34.439c0,0,4.636-0.869,11.732,2.317c7.098,3.187,12.408-1.271,11.249-9.35
			c0,0-1.737,2.301-9.801,1.288S40.636,31.301,38.028,34.439z"/>
		<path fill="#D94541" d="M18.716,24.59c0,0,3.332,0.29,6.881,5.793c3.549,5.504,12.674,7.219,14.629-1.677
			c0,0-11.152,0.084-16.802-10.997C23.424,17.709,19.44,19.448,18.716,24.59z"/>
		<path fill="#D94541" d="M63.907,24.59c0,0,1.593-10.864-8.907-10.502c0,0,6.444,4.708-3.767,8.256c0,0-5.069,1.16-4.635,4.635
			c0,0,1.042-0.947,7.387,0C60.33,27.927,63.907,24.59,63.907,24.59z"/>
		<path fill="#D94541" d="M44.643,27.407c0,0,1.594-3.106-1.811-4.482c-3.403-1.376-12.963-5.794-6.807-13.688
			c0,0-8.908,6.373-3.549,10.283c5.359,3.911,10.429,5.794,9.27,9.705C41.746,29.225,43.991,27.689,44.643,27.407z"/>
		<path fill="#D94541" d="M39.863,27.149c0,0,0.362-2.269-6.808-5.745c-7.17-3.477-1.855-12.312,4.577-14.195
			c0,0-6.258-3.404-12.551,1.738C18.789,14.088,30.159,27.174,39.863,27.149z"/>
		<path fill="#D94541" d="M60.214,14.08c0,0-2.245-2.164-5.794-1.005c0,0-1.21-4.345-9.404-3.838c0,0,1.438-3.224,6.073-3.132
			C55.724,6.195,59.707,10.667,60.214,14.08z"/>
		<path fill="#D94541" d="M45.729,10.757c0,0,4.925,1.594,4.853,4.998s-4.853,6.083-4.853,6.083s9.053,0.217,8.836-5.541
			C54.348,10.54,45.729,10.757,45.729,10.757z"/>
		<path fill="#D94541" d="M48.409,15.248c0,0,1.014,3.984-3.911,6.083c0,0,0.507-2.318-2.896-4.273
			c-3.404-1.955-1.975-4.036,1.738-5.141S48.409,15.248,48.409,15.248z"/>
		<path fill="#D94541" d="M49.599,4.457c0,0-6.767,0.724-6.114,4.78c0,0-7.652,3.693-5.456,6.518
			c2.197,2.824,5.238,3.186,5.094,5.576c0,0-0.651-1.375-4.056-2.679c-3.403-1.304-6.155-6.664-0.361-10.936
			C38.705,7.716,39.854,0.909,49.599,4.457z"/>
	</g>
	<path fill="#31BB99" d="M62.065,14.444c0,0,3.089-7.276,12.104-8.104c9.016-0.827,18.441,12.301,12.189,19.879
		c-6.251,7.579-13.854,5.709-18.048,2.251c-4.192-3.459-5.751-12.738,2.205-15.321c7.956-2.582,10.869,4.564,8.744,6.401
		c0,0-1.882-2.072-4.244-1.425c-2.364,0.648-3.015,4.311-0.098,5.702c2.918,1.39,11.949-3.152,4.94-11.574
		C72.853,3.83,62.065,14.444,62.065,14.444z"/>
	<path fill="#15B0E6" d="M127.16,86.895c0,0-3.149-4.779-0.475-10.451c0.25-3.404-0.924-7.388-9.749-2.16
		c0,0-11.47-9.371-9.343,4.94c0,0-14.156,5.702-0.882,10.905c0,0-4.04,15.186,9.557,5.37c0,0,2.12,1.399,4.408,2.235
		C121.089,94.838,122.506,89.658,127.16,86.895z M113.614,85.177c-0.145-1.731,1.142-3.251,2.872-3.396s3.251,1.141,3.396,2.873
		c0.145,1.73-1.141,3.251-2.872,3.396C115.279,88.194,113.759,86.908,113.614,85.177z"/>
	<path fill="#92BD47" d="M123.272,139.438c0.047-15.451-9.058-18.298-14.488-18.621c-1.775-0.105-3.13,0.064-3.612,0.139
		c1.963-0.683,3.925-0.793,5.527-0.698c2.573,0.153,4.475,0.847,4.494,0.854l0.342,0.126l0.293-0.215
		c9.347-6.855,6.717-14.048,6.6-14.352l-0.114-0.299l-0.306-0.1c-2.563-0.841-4.98-1.334-7.188-1.465
		c-13.688-0.812-15.88,12.274-16.006,13.116c-0.003,0.015-0.006,0.03-0.01,0.044c-0.161-5.254,3.189-9.581,3.235-9.639l0.226-0.287
		l-0.115-0.345c-3.136-9.505-9.318-10.596-11.139-10.704c-0.302-0.018-0.47-0.008-0.47-0.008l-0.322,0.019l-0.188,0.258
		c-4.163,5.693-5.66,10.994-4.446,15.753c1.546,6.068,6.955,9.179,8.165,9.806c-4.912-1.53-7.91-5.944-7.945-5.997l-0.202-0.304
		l-0.364,0.003c-11.59,0.052-13.689,7.417-13.774,7.731l-0.082,0.31l0.187,0.26c4.149,5.746,8.752,8.809,13.679,9.102
		c5.995,0.356,10.486-3.5,11.665-4.627c-2.987,4.137-8.019,5.604-8.087,5.623l-0.351,0.099l-0.111,0.346
		c-3.531,11.041,2.824,15.313,3.097,15.491l0.269,0.173l0.306-0.097c6.715-2.159,11.042-5.568,12.857-10.132
		c2.491-6.254-0.643-12.369-0.943-12.929c-0.031-0.076-0.064-0.15-0.101-0.224c3.38,4.179,3.206,9.821,3.203,9.896l-0.014,0.363
		l0.295,0.213c3.07,2.21,6.112,3.419,9.042,3.593l0,0c4.136,0.245,6.546-1.668,6.646-1.75l0.249-0.202L123.272,139.438z
		 M99.088,126.292c-1.63-0.097-2.874-1.498-2.777-3.128c0.098-1.63,1.498-2.874,3.128-2.777c1.63,0.096,2.874,1.498,2.778,3.127
		C102.119,125.146,100.719,126.389,99.088,126.292z"/>
	<path fill="#92BD47" d="M125.368,67.273c-0.7-15.527-9.986-17.947-15.458-18.009c-1.79-0.02-3.143,0.216-3.623,0.314
		c1.939-0.78,3.905-0.987,5.52-0.969c2.593,0.028,4.537,0.635,4.557,0.64l0.35,0.11l0.284-0.23c9.06-7.341,6.069-14.441,5.938-14.74
		l-0.131-0.295l-0.312-0.085c-2.615-0.722-5.068-1.099-7.292-1.125c-13.794-0.154-15.362,13.102-15.448,13.954
		c-0.002,0.016-0.005,0.031-0.008,0.045c-0.417-5.271,2.74-9.783,2.783-9.842l0.213-0.298l-0.132-0.342
		c-3.61-9.399-9.877-10.195-11.71-10.217c-0.305-0.003-0.474,0.015-0.474,0.015l-0.321,0.035l-0.178,0.268
		c-3.907,5.922-5.153,11.321-3.705,16.045c1.848,6.022,7.436,8.886,8.68,9.458c-5.009-1.299-8.236-5.59-8.273-5.641l-0.218-0.294
		l-0.365,0.019c-11.644,0.614-13.398,8.116-13.467,8.436l-0.068,0.315l0.201,0.253c4.447,5.572,9.221,8.427,14.187,8.482
		c6.04,0.067,10.365-4.024,11.495-5.215c-2.801,4.301-7.785,6.021-7.853,6.043l-0.348,0.116l-0.095,0.353
		c-3.015,11.264,3.579,15.25,3.86,15.415l0.279,0.162l0.302-0.113c6.643-2.495,10.825-6.13,12.43-10.803
		c2.198-6.406-1.246-12.397-1.575-12.946c-0.035-0.075-0.072-0.148-0.111-0.22c3.599,4.035,3.697,9.712,3.698,9.788l0.003,0.366
		l0.307,0.199c3.193,2.072,6.308,3.139,9.259,3.172l0,0c4.168,0.047,6.497-1.994,6.595-2.081l0.24-0.215L125.368,67.273z
		 M100.433,55.235c-1.644-0.018-2.961-1.365-2.942-3.008c0.018-1.644,1.365-2.96,3.008-2.942c1.644,0.019,2.961,1.365,2.942,3.009
		C103.422,53.937,102.075,55.254,100.433,55.235z"/>
	<g>
		<path fill="#D94541" d="M141.281,83.966l0.171,1.021c0.013,0.078,1.424,7.931,10.144,9.152c1.078,0.15,2.157,0.184,3.205,0.096
			c0,0,0,0,0.001,0c6.678-0.558,10.335-5.674,10.488-5.893l1.477-2.109l-2.051,1.557c-0.026,0.02-2.644,1.97-6.995,2.333
			c-5.114,0.427-10.371-1.431-15.623-5.521L141.281,83.966z"/>
		<path fill="#D94541" d="M171.918,90.348l-0.37-0.653l-0.34,0.669c-1.569,3.087-3.664,4.259-8.301,4.646
			c-1.887,0.157-4.306,0.197-8.088,0.131c-0.564-0.011-1.12,0.007-1.652,0.052c-9.669,0.808-10.812,10.326-10.822,10.423
			l-0.192,1.783l0.937-1.53c1.396-2.275,3.516-3.292,7.565-3.63c3.178-0.266,7.604-0.104,13.716,0.246
			c1.003,0.058,1.938,0.05,2.781-0.021c0,0,0,0,0.001,0c2.969-0.248,4.957-1.29,5.912-3.097
			C174.956,95.785,172.042,90.567,171.918,90.348z"/>
		<path fill="#D94541" d="M152.658,102.678c-8.782,0.733-8.687,4.965-8.679,5.145l0.011,0.227l0.199,0.108
			c3.482,1.904,6.821,2.739,9.92,2.48h0.001c7.026-0.587,10.389-6.465,10.528-6.717l0.285-0.508l-0.577-0.085
			C159.726,102.634,155.794,102.416,152.658,102.678z"/>
		<path fill="#D94541" d="M136.853,91.508c2.92,3.172,5.677,6.167,6.071,9.027l0.188,1.354l0.577-1.24
			c0.103-0.219,2.435-5.421-2.818-11.845c-5.189-6.344-6.176-9.538-3.774-12.2l0.517-0.572l-0.765-0.098
			c-0.047-0.005-1.156-0.144-2.5-0.032c-2.095,0.175-3.582,0.87-4.3,2.009c-0.672,1.068-0.674,2.499-0.007,4.251
			C131.309,85.486,134.127,88.549,136.853,91.508z"/>
		<path fill="#D94541" d="M167.259,86.588c-0.19,2.328-1.584,4.435-4.141,6.267l-2.908,2.083l3.299-1.383
			c0.352-0.147,8.616-3.665,8.579-8.243c-0.021-2.503-2.511-4.766-7.403-6.725l-1.829-0.732l1.395,1.392
			C164.284,79.279,167.582,82.62,167.259,86.588z"/>
		<path fill="#D94541" d="M150.842,76.637l0.435-0.489l-0.632-0.17c-0.048-0.012-1.18-0.309-2.514-0.198
			c-1.64,0.137-4.381,1.005-4.3,5.273c0.127,6.64,8.529,8.391,8.615,8.408l2.037,0.405l-1.738-1.138
			c-2.434-1.596-3.811-3.48-4.092-5.606C148.194,79.66,150.815,76.667,150.842,76.637z"/>
		<path fill="#D94541" d="M162.463,82.825c-0.014,0.083-0.355,2.038-2.192,2.191c-0.539,0.045-1.166-0.066-1.862-0.327
			c-3.787-1.429-5.391-5.652-5.407-5.694l-0.361-0.976l-0.39,0.964c-0.064,0.161-1.575,3.963-0.335,6.737
			c0.501,1.124,1.38,1.918,2.612,2.362c1.414,0.51,3.013,0.723,4.501,0.599c2.201-0.184,3.914-1.074,4.581-2.38
			c0.372-0.729,0.605-1.951-0.403-3.62l-0.566-0.936L162.463,82.825z"/>
		<path fill="#D94541" d="M137.565,79.484c0.884,2.578,3.686,3.61,3.804,3.654l0.59,0.212l-0.052-0.625
			c-0.006-0.073-0.506-7.441,8.4-10.831l0.813-0.31l-0.762-0.421c-0.107-0.06-2.662-1.45-5.645-1.201
			c-2.513,0.21-4.536,1.5-6.016,3.834C137.371,75.89,136.99,77.804,137.565,79.484z"/>
		<path fill="#D94541" d="M149.14,74.718l1.201-0.153c1.2-0.101,7.327-0.226,10.092,7.166l0.191,0.51l0.433-0.332
			c0.053-0.04,1.304-1.021,1.466-2.876c0.151-1.73-0.68-3.599-2.473-5.554c-1.671-1.825-3.438-2.674-5.251-2.523
			c-2.458,0.205-4.246,2.191-4.929,2.951L149.14,74.718z"/>
		<path fill="#D94541" d="M136.456,94.734c-5.441-3.941-5.83-7.375-5.833-7.408l-0.153-1.807l-0.626,1.703
			c-1.66,4.511-1.63,8.617,0.089,12.203c3.011,6.281,10.052,8.709,10.351,8.81l0.313,0.105l0.166-0.288
			C142.358,105.264,142.602,99.184,136.456,94.734z"/>
	</g>
	<g>
		<path fill="#D94541" d="M161.429,32.439c-6.042-3.654-8.283,0.857-6.455,3.75c1.827,2.895-2.368,3.505-4.106,8.849
			c-2.563,7.879,8.814,10.131,8.814,10.131s1.809,8.262,9.119,9.177c7.311,0.913,6.994-10.789,6.994-10.789
			C149.447,52.34,161.429,32.439,161.429,32.439z"/>
		<path fill="#D94541" d="M161.783,35.131c-4.873,8.983,2.894,14.39,2.894,14.39c-1.295-5.178,1.143-12.032,5.939-14.695
			c4.797-2.665,8.909-0.533,8.909-0.533C177.698,28.658,166.657,26.144,161.783,35.131z"/>
		<path fill="#D94541" d="M167.494,50.055c5.331,6.016,16.829-1.599,16.829-1.599c-23.148,3.73-12.26-12.564-12.26-12.564
			C169.246,37.719,162.164,44.041,167.494,50.055z"/>
		<path fill="#D94541" d="M172.597,38.176c0,0,6.396,0.381,6.243,4.188c-0.151,3.808-4.72,4.646-4.72,4.646
			c10.432,1.903,9.822-11.422,4.949-11.574C174.195,35.282,172.597,38.176,172.597,38.176z"/>
		<path fill="#D94541" d="M187.674,47.922c0,0-4.264,4.645-11.041,5.56c0,0,1.446,2.132,0,5.331
			c-1.447,3.196,3.461,3.986,6.501,2.984c6.449-2.127,8.178-4.447,11.604-6.808C198.164,52.628,196.431,46.477,187.674,47.922z"/>
		<path fill="#D94541" d="M186.075,32.464c-4.646-0.532-6.168,2.514-6.168,2.514s9.594,1.982-0.382,12.794
			c0,0,11.423-0.231,8.91-5.484C185.922,37.034,190.72,32.999,186.075,32.464z"/>
		<path fill="#D94541" d="M198.832,39.366c-0.457-7.006,0.508-12.155-9.895-13.907c-10.401-1.752-9.412,4.569-9.412,6.702
			c0,0.323,1.22-3.533,7.539-0.93c6.32,2.604,2.133,6.868,2.133,6.868s4.721,5.71-0.076,8.415
			C189.121,46.514,199.288,46.37,198.832,39.366z"/>
		<path fill="#D94541" d="M161.556,31.231c0,0,6.494-7.782,16.447-1.432c0,0,0.533-8.834-10.052-9.137
			C157.367,20.357,152.494,27.637,161.556,31.231z"/>
	</g>
	<circle fill="#FEBA3D" cx="41.92" cy="107.008" r="3.018"/>
	<circle fill="#FEBA3D" cx="34.434" cy="104.025" r="2.534"/>
	<circle fill="#FEBA3D" cx="28.417" cy="100.787" r="2.107"/>
	<circle fill="#FEBA3D" cx="50.411" cy="111.038" r="3.587"/>
	<circle fill="#FEBA3D" cx="149.992" cy="65.338" r="2.919"/>
	<circle fill="#FEBA3D" cx="142.282" cy="65.962" r="2.239"/>
	<circle fill="#FEBA3D" cx="81.095" cy="43.12" r="2.239"/>
	<circle fill="#FEBA3D" cx="53.815" cy="45.158" r="3.708"/>
	<circle fill="#FEBA3D" cx="166.484" cy="70.254" r="3.74"/>
	<circle fill="#FEBA3D" cx="158.314" cy="66.067" r="3.263"/>
	<g>
		<circle fill="#299466" cx="96.827" cy="89.512" r="2.707"/>
		<circle fill="#299466" cx="100.108" cy="94.925" r="2.254"/>
		<circle fill="#299466" cx="102.265" cy="100.794" r="1.994"/>
	</g>
	<circle fill="#299466" cx="23.578" cy="52.685" r="2.706"/>
	<circle fill="#299466" cx="16.951" cy="56.007" r="2.254"/>
	<circle fill="#299466" cx="10.928" cy="58.261" r="1.994"/>
	<g>
		<path fill="#299466" d="M54.72,67.844c0,0,13.745,6.48,1.316,20.433c0,0-6.639-5.938-3.333-12.806
			C56.012,68.605,54.72,67.844,54.72,67.844z"/>
		<g>
			<g>
				<path fill="#15B0E6" d="M32.837,75.223c0,0-2.848-11.813,2.849-14.872c5.695-3.058,8.753,2.111,8.858,5.379
					c0,0,7.276,0.212,7.171,4.957s-6.749,8.542-16.979,7.065C34.736,77.752,47.391,61.512,32.837,75.223z"/>
				<path fill="#15B0E6" d="M29.807,75.223c0,0,2.848-11.813-2.848-14.872c-5.694-3.058-8.753,2.111-8.859,5.379
					c0,0-6.587,2.035-6.481,6.78s6.061,6.719,16.29,5.242C27.908,77.752,15.253,61.512,29.807,75.223z"/>
			</g>
			<g>
				<path fill="#15B0E6" d="M32.837,82.304c0,0-2.848,11.812,2.849,14.871c5.695,3.058,8.753-2.11,8.858-5.379
					c0,0,7.276-0.21,7.171-4.957s-6.749-8.543-16.979-7.066C34.736,79.773,47.391,96.014,32.837,82.304z"/>
				<path fill="#15B0E6" d="M29.807,82.304c0,0,2.848,11.812-2.848,14.871c-5.694,3.058-8.753-2.11-8.859-5.379
					c0,0-7.275-0.21-7.171-4.957c0.105-4.746,6.75-8.543,16.979-7.066C27.908,79.773,15.253,96.014,29.807,82.304z"/>
			</g>
		</g>
	</g>
	<path fill="#299466" d="M127.068,90.455l0.143-0.597c0,0-1.487,1.354-2.824,3.807c-1.11,1.855-1.647,3.465-1.765,4.863
		c-0.383,1.944-0.462,4.174,0.035,6.655c1.897,9.469,10.227,2.135,10.227,2.135C125.06,102.396,126.532,92.909,127.068,90.455z"/>
	<path fill="#299466" d="M141.726,109.795c0,0,6.593,4.823,12.298,2.962C154.023,112.757,143.165,123.477,141.726,109.795z"/>
	<path fill="#92BD47" d="M86.562,78.513c0,0-1.879-13.629-11.957-15.978S61.794,67.25,61.794,67.25s-0.842,6.897,9.23,4.528
		C81.096,69.411,84.341,72.241,86.562,78.513z"/>
	<path fill="#299466" d="M110.58,15.272c0,0,11.021-0.216,9.138-7.422C119.718,7.85,112.349,8.926,110.58,15.272z"/>
	<path fill="#FEBA3D" d="M129.383,3.501c-8.886,4.757-1.943,15.883-1.943,15.883c0.01,0.018,0.006-0.014-0.005-0.082l-0.237-4.226
		c0.244-2.339,1.345-4.687,4.925-4.318c0,0,2.662-3.598,5.828-0.719C141.58,6.075,138.269-1.256,129.383,3.501z"/>
	<path fill="#299466" d="M47.772,48.905c0,0,5.156,6.615,1.826,12.328c0,0,2.25,0.238,4.595,1.472
		c0.372-1.772,0.67-4.016,0.276-5.602c-0.174-0.524-0.308-0.836-0.308-0.836c0.132,0.249,0.232,0.531,0.308,0.836
		c0.424,1.268,1.084,3.784,0.714,6.184c1.167,0.767,2.282,1.809,3.074,3.226C58.258,66.513,63.709,51.762,47.772,48.905z"/>
	<path fill="#43BD98" d="M59.157,51.662c3.965,3.063,2.908,10.756,2.908,10.756c1.201-1,2.782-1.569,4.331-1.889
		c-0.126-1.34-0.359-2.631-0.778-3.49c0,0,1.089,1.05,1.657,3.334c2.555-0.386,4.803-0.16,4.803-0.16
		C69.572,51.928,59.157,51.662,59.157,51.662z"/>
</g>
</svg>
