<?xml version="1.0" encoding="utf-8"?>
<!-- Generator: Adobe Illustrator 18.1.1, SVG Export Plug-In . SVG Version: 6.00 Build 0)  -->
<svg version="1.1" id="Слой_1" xmlns="http://www.w3.org/2000/svg" xmlns:xlink="http://www.w3.org/1999/xlink" x="0px" y="0px"
	 viewBox="-146.3 385.3 22.8 22.8" enable-background="new -146.3 385.3 22.8 22.8" xml:space="preserve">
<path fill="#C6D4E5" d="M-126.4,393.1c0.7-2,0.6-3.6-0.4-4.5c-0.4-0.4-1.1-0.8-2.3-0.8c-0.7,0-1.4,0.1-2.3,0.4
	c-0.9-1.9-2.1-2.9-3.5-2.9c-1.4,0-2.6,1-3.5,2.9c-0.8-0.3-1.6-0.4-2.3-0.4c-1.2,0-1.9,0.5-2.3,0.8c-1,1-1.1,2.6-0.4,4.5
	c-1.9,0.9-2.9,2.1-2.9,3.5c0,1.4,1,2.6,2.9,3.5c-0.7,2-0.6,3.6,0.4,4.5c0.4,0.4,1.1,0.8,2.3,0.8c0.7,0,1.4-0.1,2.3-0.4
	c0.9,1.9,2.1,2.9,3.5,2.9c1.4,0,2.6-1,3.5-2.9c0.8,0.3,1.6,0.4,2.3,0.4c1.2,0,1.9-0.5,2.3-0.8c1-1,1.1-2.6,0.4-4.5
	c1.9-0.9,2.9-2.1,2.9-3.5C-123.5,395.3-124.5,394-126.4,393.1z M-128.1,398.6c-0.3,0.1-0.5,0.3-0.6,0.6c-0.1,0.3-0.1,0.5,0,0.8
	c0.8,1.9,0.7,2.9,0.4,3.3c-0.2,0.2-0.5,0.3-0.8,0.3c-0.6,0-1.5-0.2-2.4-0.7c-0.3-0.1-0.5-0.1-0.8,0c-0.3,0.1-0.5,0.3-0.6,0.6
	c-0.7,1.9-1.5,2.6-2,2.6s-1.3-0.7-2-2.6c-0.1-0.3-0.3-0.5-0.6-0.6c-0.1-0.1-0.3-0.1-0.4-0.1c-0.1,0-0.3,0-0.4,0.1
	c-1.5,0.7-2.8,0.8-3.3,0.4c-0.3-0.3-0.4-1.4,0.4-3.3c0.1-0.3,0.1-0.5,0-0.8c-0.1-0.3-0.3-0.5-0.6-0.6c-1.9-0.7-2.6-1.5-2.6-2
	s0.7-1.3,2.6-2c0.3-0.1,0.5-0.3,0.6-0.6c0.1-0.3,0.1-0.5,0-0.8c-0.8-1.9-0.7-2.9-0.4-3.3c0.4-0.4,1.7-0.3,3.3,0.4
	c0.3,0.1,0.5,0.1,0.8,0c0.3-0.1,0.5-0.3,0.6-0.6c0.7-1.9,1.5-2.6,2-2.6s1.3,0.7,2,2.6c0.1,0.3,0.3,0.5,0.6,0.6
	c0.3,0.1,0.5,0.1,0.8,0c1.5-0.7,2.8-0.8,3.3-0.4c0.3,0.3,0.4,1.4-0.4,3.3c-0.1,0.3-0.1,0.5,0,0.8c0.1,0.3,0.3,0.5,0.6,0.6
	c1.9,0.7,2.6,1.5,2.6,2S-126.2,397.9-128.1,398.6z"/>
<path fill="#C6D4E5" d="M-134.9,392.3c-2.4,0-4.3,1.9-4.3,4.3s1.9,4.3,4.3,4.3s4.3-1.9,4.3-4.3S-132.5,392.3-134.9,392.3z
	 M-134.9,398.9c-1.3,0-2.3-1-2.3-2.3c0-1.3,1-2.3,2.3-2.3c1.3,0,2.3,1,2.3,2.3C-132.6,397.9-133.6,398.9-134.9,398.9z"/>
</svg>
