<?xml version="1.0" encoding="utf-8"?>
<svg version="1.1" xmlns="http://www.w3.org/2000/svg" xmlns:xlink="http://www.w3.org/1999/xlink" x="0px" y="0px" viewBox="65 1.3 438.2 789.4" enable-background="new 65 1.3 438.2 789.4" xml:space="preserve">
<path fill="#C6D4E5" d="M371.3,376.2l-7.9-2.6V188.8c5.3,2.6,10.6,5.3,13.2,5.3c23.8,13.2,39.6,26.4,47.5,39.6
	c7.9,13.2,13.2,18.5,15.8,21.1c5.3,5.3,13.2,7.9,21.1,7.9c18.5,0,31.7-13.2,31.7-31.7c0-26.4-21.1-52.8-63.4-79.2
	c-21.1-13.2-42.2-23.8-68.6-31.7V27.7c0-15.8-13.2-26.4-26.4-26.4c-15.8,0-26.4,13.2-26.4,26.4v84.5c-15.8,0-31.7,0-47.5,0V27.7
	c0-15.8-13.2-26.4-26.4-26.4c-13.2,0-26.4,13.2-26.4,26.4v95c-23.8,7.9-44.9,18.5-63.4,31.7c-37,29-55.4,66-55.4,105.6
	c0,29,7.9,52.8,21.1,73.9c13.2,21.1,31.7,34.3,55.4,44.9c13.2,5.3,26.4,10.6,42.2,15.8v211.2c-10.6-2.6-18.5-7.9-26.4-13.2
	c-23.8-15.8-42.2-37-52.8-58.1c-2.6-7.9-10.6-18.5-31.7-18.5c-18.5,0-31.7,13.2-31.7,31.7c0,29,21.1,58.1,66,89.8
	c23.8,15.8,47.5,29,76.6,34.3v92.4c0,15.8,13.2,26.4,26.4,26.4s26.4-13.2,26.4-26.4v-84.5c15.8,0,31.7,0,47.5,0v84.5
	c0,15.8,13.2,26.4,26.4,26.4c15.8,0,26.4-13.2,26.4-26.4v-92.4c31.7-7.9,60.7-21.1,81.8-37c39.6-31.7,60.7-71.3,60.7-121.4
	c0-37-13.2-68.6-39.6-92.4C439.9,400,408.2,384.1,371.3,376.2z M442.6,516.1c0,29-13.2,52.8-39.6,73.9
	c-10.6,7.9-23.8,15.8-39.6,18.5V442.2c5.3,2.6,10.6,2.6,18.5,5.3c18.5,7.9,34.3,15.8,44.9,29C437.3,484.4,442.6,500.3,442.6,516.1z
	 M310.6,178.2v182.2l-42.2-10.6c-2.6,0-2.6,0-5.3-2.6V175.6C278.9,175.6,292.1,175.6,310.6,178.2z M310.6,423.7v192.7
	c-15.8,0-31.7,2.6-47.5,0V410.5L310.6,423.7z M207.6,191.4v137.3c-7.9-5.3-15.8-7.9-23.8-13.2c-21.1-13.2-31.7-31.7-31.7-52.8
	s10.6-39.6,34.3-58.1C194.4,199.3,202.3,194,207.6,191.4z"/>
</svg>
