<?xml version="1.0" encoding="utf-8"?>
<!DOCTYPE svg PUBLIC "-//W3C//DTD SVG 1.1//EN" "http://www.w3.org/Graphics/SVG/1.1/DTD/svg11.dtd">
<svg version="1.1" xmlns="http://www.w3.org/2000/svg" xmlns:xlink="http://www.w3.org/1999/xlink" x="0px" y="0px" width="27.116px" height="23.459px" viewBox="0 0 27.116 23.459" enable-background="new 0 0 27.116 23.459" xml:space="preserve">
	<path fill="#fff" d="M16.595,16.766H4.313c-0.426,0-0.805-0.27-0.944-0.671L0.056,6.573c-0.106-0.306-0.059-0.644,0.129-0.908 C0.372,5.401,0.676,5.245,1,5.245h13.455c0.553,0,1,0.448,1,1s-0.447,1-1,1H2.406l2.617,7.521H15.86l4.404-14.064			C20.396,0.284,20.781,0,21.219,0h4.897c0.553,0,1,0.448,1,1s-0.447,1-1,1h-4.163l-4.404,14.064	C17.418,16.481,17.032,16.766,16.595,16.766z"/>
	<path fill="#fff" d="M5.83,23.459c-0.894,0-1.62-0.728-1.62-1.621s0.727-1.62,1.62-1.62s1.621,0.727,1.621,1.62	S6.724,23.459,5.83,23.459z M5.83,21.459c-0.209,0-0.379,0.17-0.379,0.379s0.17,0.38,0.379,0.38s0.38-0.171,0.38-0.38 S6.039,21.459,5.83,21.459z"/>
	<path fill="#fff" d="M15.423,23.459c-0.894,0-1.621-0.728-1.621-1.621s0.728-1.62,1.621-1.62s1.62,0.727,1.62,1.62 S16.316,23.459,15.423,23.459z M15.423,21.459c-0.209,0-0.38,0.17-0.38,0.379s0.171,0.38,0.38,0.38s0.379-0.171,0.379-0.38 S15.632,21.459,15.423,21.459z"/>
</svg>
