<?xml version="1.0" encoding="utf-8"?>
<!DOCTYPE svg PUBLIC "-//W3C//DTD SVG 1.1//EN" "http://www.w3.org/Graphics/SVG/1.1/DTD/svg11.dtd">
<svg version="1.1" fill="#fff" xmlns="http://www.w3.org/2000/svg" xmlns:xlink="http://www.w3.org/1999/xlink" x="0px" y="0px" width="24px" height="20px" viewBox="0 0 24 20" enable-background="new 0 0 24 20" xml:space="preserve">
	<path d="M6.02,6.399h2.383v2.069c0,0.552,0.448,1,1,1s1-0.448,1-1V6.399h2.383c0.552,0,1-0.448,1-1s-0.448-1-1-1h-2.383V1.827
		c0-0.552-0.448-1-1-1s-1,0.448-1,1v2.572H6.02c-0.552,0-1,0.448-1,1S5.467,6.399,6.02,6.399z"/>
	<path d="M23,0h-4.289c-0.433,0-0.816,0.278-0.95,0.689l-3.825,11.697H4.602L2.427,6.399H2.68c0.552,0,1-0.448,1-1s-0.448-1-1-1H1
		c-0.326,0-0.632,0.159-0.819,0.426C-0.006,5.093-0.051,5.434,0.06,5.741l2.901,7.987c0.144,0.395,0.52,0.658,0.94,0.658H14.66
		c0.433,0,0.816-0.278,0.95-0.689L19.435,2H23c0.553,0,1-0.448,1-1S23.552,0,23,0z"/>
	<path d="M5.231,16.959c-0.851,0-1.543,0.682-1.543,1.521S4.38,20,5.231,20c0.852,0,1.544-0.682,1.544-1.521
		S6.083,16.959,5.231,16.959z M5.231,18.959c-0.251,0-0.456-0.215-0.456-0.479S4.98,18,5.231,18c0.252,0,0.457,0.215,0.457,0.479
		S5.483,18.959,5.231,18.959z"/>
	<path d="M13.633,16.959c-0.852,0-1.544,0.682-1.544,1.521S12.782,20,13.633,20c0.851,0,1.543-0.682,1.543-1.521
		S14.484,16.959,13.633,16.959z M13.633,18.959c-0.252,0-0.457-0.215-0.457-0.479S13.381,18,13.633,18s0.456,0.215,0.456,0.479
		S13.885,18.959,13.633,18.959z"/>
</svg>
