<?xml version="1.0" encoding="utf-8"?>
<!-- Generator: Adobe Illustrator 21.1.0, SVG Export Plug-In . SVG Version: 6.00 Build 0)  -->
<svg version="1.1" id="Layer_1" xmlns="http://www.w3.org/2000/svg" xmlns:xlink="http://www.w3.org/1999/xlink" x="0px" y="0px"
	 viewBox="0 0 144.4 140.5" style="enable-background:new 0 0 144.4 140.5;" xml:space="preserve">
<style type="text/css">
	.st0{fill:#299466;}
	.st1{fill:#31BB99;}
	.st2{fill:#15B0E6;}
	.st3{fill:#FEBA3D;}
	.st4{fill:#92BD47;}
	.st5{fill:#43BD98;}
	.st6{fill:#E269A8;}
	.st7{fill:#F25F5F;}
	.st8{fill:#333333;}
</style>
<g>
	<path class="st0" d="M86.6,125.5c0,0,8.4-4.3,10.6,7.2c0,0-5.5,1-7.5-3.2C87.5,125.1,86.6,125.5,86.6,125.5z"/>
	<path class="st1" d="M94.1,5.4c0,0,0.1-4,4-4.2c3.9-0.1,4.5-1.2,4.5-1.2s1.2,3.4-1.5,5.1c-2.6,1.7-6.5,1.2-7.5,2.8c0,0,0.2-2.2,2-3
		c1.8-0.7,3.2-1,3.4-1.7c0,0,0,0.2-1.5,0.4C95.9,3.8,94.6,4.4,94.1,5.4z"/>
	<path class="st2" d="M57.7,7.4c0,0,3.2-7.6-4.9-3.6c0,0-6.1-5.9-5.6,2.4c0,0-8.4,2.6-1,6.2c0,0-3,8.5,5.2,3.5c0,0,7.5,5.9,5.4-2.7
		C56.8,13.2,65.8,10.5,57.7,7.4z M52.2,11.6c-1,0-1.8-0.8-1.8-1.8S51.2,8,52.2,8S54,8.8,54,9.8S53.2,11.6,52.2,11.6z"/>
	<path class="st0" d="M76.3,134.3c0,0-2.1-0.9-5.1,1c0,0-2.1,2,0,5.2C71.1,140.4,75.7,139.9,76.3,134.3z"/>
	<path class="st0" d="M64.4,133.2c0.2-0.1-5.2,0.1-6.7-3.5c0,0-2.9,3-8.3,0.6C49.4,130.3,53.7,139.1,64.4,133.2z"/>
	<path class="st0" d="M71.3,12.6c0,0,3.1,2.1,6.8,0.1c3.8-2,4.1-9.6-0.3-11S70.9,3,70.1,5.5c-0.8,2.4,1,6.5,4.8,5.5s3.1-4.6,1.8-4.8
		c0,0-0.2,1.3-1.3,1.7c-1.1,0.4-2.3-0.9-1.5-2.2s5.5-1.8,4.9,3.3C78.2,14,71.3,12.6,71.3,12.6z"/>
	<path class="st1" d="M35.2,9.1c0,0,3-0.8,5.3,2.5C40.5,11.6,43.3,1.3,35.2,9.1z"/>
	<g>
		<circle class="st3" cx="48.5" cy="20" r="1.5"/>
		<circle class="st3" cx="52.7" cy="19.1" r="1.8"/>
		<circle class="st3" cx="60.6" cy="6.1" r="1.7"/>
		<circle class="st3" cx="63" cy="3" r="1.2"/>
	</g>
	<path class="st1" d="M71.4,1.1c0,0-8.8,0.4-9,9.9l1.4,1.8c0.5-2.6,2.1-4.2,2.1-4.2c-0.9,1.8-1.1,3.3-1,4.3c0.6-0.5,1.8-1.2,4-1.3
		C68.9,11.6,67.7,4.5,71.4,1.1z"/>
	<g>
		<path class="st0" d="M10,42.3c0,0-0.2,1.1,0.7,2.8s-0.8,3.7-0.8,3.7S5.3,45.9,10,42.3z"/>
		<path class="st0" d="M7.9,42.6c0,0-8.6-1.9-7.9,8.9c0,0,5.2-0.4,6.1-4.7S7.9,42.6,7.9,42.6z"/>
		<path class="st1" d="M106.2,22.9c0,0,8.3,1.5,3.6,11.2c0,0-4.4-2.3-3.6-6.6C107,23.1,106.2,22.9,106.2,22.9z"/>
		<path class="st0" d="M5.2,111.2c0,0,3.8-10.7,15.1-2.5c0,0-3.9,5.4-9.2,3.4C5.7,110.2,5.2,111.2,5.2,111.2z"/>
		<path class="st0" d="M144.4,82.6c0,0-3.2-9-12.7-2.1c0,0,3.3,4.5,7.8,2.9C144,81.8,144.4,82.6,144.4,82.6z"/>
		<path class="st0" d="M115.3,100c0,0-3.4,4.3-7.2-1.2c0,0,2.6-1.9,4.7-0.1C114.9,100.4,115.3,100,115.3,100z"/>
		<path class="st1" d="M18.5,28c0,0-4.7-3.6-7.7,1.1c-3,4.6-3,11.6-5.3,12.5c0,0,18,2.5,13.9-12.3c0,0-5.4,3.1-7.5,7.1
			C11.9,36.4,13.7,30.7,18.5,28z"/>
		<path class="st3" d="M34.4,116.1c0,0-1.4-5.1,1.4-9.9c2.8-4.8,0.1-14.7-5.2-8.3c0,0-1-4.4-4.9-3.4s-1.9,5.7-1.9,5.7
			s-1.7-1.1-3.7,0.6c-2,1.8-2.1,5.9,3.5,8.2c5.6,2.3,7.1,5.4,7.1,5.4s-0.3-2.8-1.8-5.4s-1.6-7.8,2-6
			C34.5,104.8,30.1,111.3,34.4,116.1z"/>
		<path class="st4" d="M126.7,80.1c0,0,2.1-3.7,0.8-8c-1.3-4.3,2.8-11.6,5.7-5.5c0,0,1.7-3.3,4.6-1.7c2.9,1.6,0.4,4.8,0.4,4.8
			s1.5-0.6,2.8,1.2c1.2,1.8,0.5,5-4.4,5.7c-4.8,0.7-6.6,2.8-6.6,2.8s0.7-2.1,2.4-3.9s2.8-5.8-0.4-5.1
			C128.8,71.3,131,77.2,126.7,80.1z"/>
		<path class="st5" d="M27.6,114.1c0,0-4.6-4.8-9.5-0.6c-4.9,4.2-6.8,3.4-6.8,3.4s2.4,5.4,7.4,4.5s9.2-5.7,12.2-5
			c0,0-2.7-2.4-5.7-1.3c-3.1,1.1-5,2.3-5.9,1.7c0,0,0.2,0.2,2.3-1.2C23.6,114.2,25.9,113.5,27.6,114.1z"/>
		<path class="st5" d="M122.2,65.6c0,0-1.5-6.5-7.8-5.5s-7.5-0.6-7.5-0.6s-0.7,5.9,4,7.7c4.7,1.9,10.7-0.1,12.9,2.2
			c0,0-1.1-3.5-4.2-4.1c-3.2-0.6-5.5-0.7-5.9-1.7c0,0,0.1,0.3,2.5,0.2C118.8,63.6,121.1,64.1,122.2,65.6z"/>
		<path class="st0" d="M15,23c0,0-3.3-3.5-6.8-0.4c-3.5,3-4.9,2.5-4.9,2.5S5,29,8.6,28.3c3.6-0.7,6.6-4.1,8.8-3.6
			c0,0-1.9-1.8-4.1-0.9C11.1,24.6,9.7,25.5,9,25c0,0,0.2,0.2,1.6-0.8C12.2,23.1,13.8,22.5,15,23z"/>
		<path class="st5" d="M106.1,16c0,0,6.1-3.7,10,2s6.1,5.4,6.1,5.4s-4,4.9-8.9,2.6c-5-2.3-7.9-8.5-11.3-8.6c0,0,3.5-1.8,6.3,0.2
			c2.9,2,4.6,3.8,5.7,3.4c0,0-0.3,0.2-2-1.9C110.2,17.2,108,15.8,106.1,16z"/>
		<g>
			<path class="st2" d="M11.6,90.4c-0.3-2-1.3-3.5-2.6-1.8c-1.3-1.7-2.3-0.3-2.6,1.8C6.1,92.8,9,95.6,9,95.6S11.9,92.8,11.6,90.4z"
				/>
			<path class="st2" d="M8.1,96.3c0,0-1.7-3.6-4.1-4.1c-2-0.4-3.7,0.2-2.5,1.9c-2,0.7-1,2.1,0.9,3C4.6,98.2,8.1,96.3,8.1,96.3z"/>
			<path class="st2" d="M3.1,100.3c-1,1.8-1,3.6,1.1,3c0,2.1,1.7,1.6,3.1,0.1c1.7-1.7,0.9-5.7,0.9-5.7S4.3,98.1,3.1,100.3z"/>
			<path class="st2" d="M9.8,97.6c0,0-0.7,4,0.9,5.7c1.4,1.5,3.1,2,3.1-0.1c2,0.6,2-1.2,1.1-3C13.8,98.1,9.8,97.6,9.8,97.6z"/>
			<path class="st2" d="M16.7,93.9c1.2-1.7-0.5-2.3-2.5-1.9c-2.4,0.4-4.1,4.1-4.1,4.1s3.5,1.9,5.7,0.9C17.7,96,18.8,94.6,16.7,93.9z
				"/>
		</g>
		<path class="st0" d="M123,73.6c0,0,2.2-5.3-3.4-2.6c0,0-4.3-4.1-3.9,1.7c0,0-5.9,1.8-0.7,4.3c0,0-2.1,5.9,3.6,2.5
			c0,0,5.3,4.1,3.8-1.9C122.3,77.7,128.6,75.8,123,73.6z M119.1,76.6c-0.7,0-1.3-0.6-1.3-1.3c0-0.7,0.6-1.3,1.3-1.3
			c0.7,0,1.3,0.6,1.3,1.3C120.3,76,119.8,76.6,119.1,76.6z"/>
		<path class="st0" d="M70.4,19.5c0,0,3.6-8.6-5.6-4.1c0,0-6.9-6.7-6.3,2.7c0,0-9.5,2.9-1.2,7c0,0-3.4,9.6,5.9,4c0,0,8.5,6.7,6.1-3
			C69.4,26,79.5,23,70.4,19.5z M64.2,24.3c-1.1,0-2-0.9-2-2s0.9-2,2-2c1.1,0,2,0.9,2,2S65.3,24.3,64.2,24.3z"/>
		<path class="st5" d="M126.6,73.2c0.2,0.3-2.6-10.5,5.2-9.7c0,0,3-4,6.5-0.8c0,0,1.8-2.7,0.6-4.5c-1.1-1.9-5.8-3.4-8.6,1
			C130.4,59.2,119.7,60.1,126.6,73.2z"/>
		<g>
			<path class="st6" d="M66.8,131.2c0,0-0.6,3.7,2.3,4.9c0,0,1.6-2.9,7.5-2.9c5.8,0,8.1-3.5,7.7-6.3c0,0-3.1,3.6-8.1,2.9
				C71.2,129.2,66.8,131.2,66.8,131.2z"/>
			<path class="st6" d="M75.3,128.6c0,0-3.3-0.6-8.2,1.6c-5,2.2-8.7-0.9-7.9-6.6c0,0,1.2,1.6,6.9,0.9
				C71.7,123.9,73.5,126.4,75.3,128.6z"/>
			<path class="st6" d="M88.9,121.7c0,0-2.3,0.2-4.8,4.1s-8.9,5.1-10.3-1.2c0,0,7.8,0.1,11.8-7.7C85.6,116.9,88.3,118.1,88.9,121.7z
				"/>
			<path class="st6" d="M57.1,121.7c0,0-1.1-7.6,6.3-7.4c0,0-4.5,3.3,2.6,5.8c0,0,3.6,0.8,3.3,3.3c0,0-0.7-0.7-5.2,0
				C59.6,124,57.1,121.7,57.1,121.7z"/>
			<path class="st6" d="M70.7,123.7c0,0-1.1-2.2,1.3-3.1c2.4-1,9.1-4.1,4.8-9.6c0,0,6.3,4.5,2.5,7.2s-7.3,4.1-6.5,6.8
				C72.7,124.9,71.1,123.9,70.7,123.7z"/>
			<path class="st6" d="M74,123.5c0,0-0.3-1.6,4.8-4c5-2.4,1.3-8.6-3.2-10c0,0,4.4-2.4,8.8,1.2C88.8,114.3,80.8,123.5,74,123.5z"/>
			<path class="st6" d="M59.7,114.3c0,0,1.6-1.5,4.1-0.7c0,0,0.9-3.1,6.6-2.7c0,0-1-2.3-4.3-2.2C62.9,108.8,60.1,111.9,59.7,114.3z"
				/>
			<path class="st6" d="M69.9,112c0,0-3.5,1.1-3.4,3.5c0,2.4,3.4,4.3,3.4,4.3s-6.4,0.2-6.2-3.9C63.8,111.8,69.9,112,69.9,112z"/>
			<path class="st6" d="M68,115.1c0,0-0.7,2.8,2.7,4.3c0,0-0.4-1.6,2-3s1.4-2.8-1.2-3.6C69,112,68,115.1,68,115.1z"/>
			<path class="st6" d="M67.2,107.6c0,0,4.8,0.5,4.3,3.4c0,0,5.4,2.6,3.8,4.6c-1.5,2-3.7,2.2-3.6,3.9c0,0,0.5-1,2.8-1.9
				c2.4-0.9,4.3-4.7,0.3-7.7C74.8,109.8,74,105.1,67.2,107.6z"/>
		</g>
		<g>
			<path class="st7" d="M36.8,31.7c0,0,0.6,3.3-2.1,4.3c0,0-1.4-2.6-6.6-2.6s-7.2-3.1-6.9-5.6c0,0,2.7,3.2,7.2,2.6
				C32.9,29.9,36.8,31.7,36.8,31.7z"/>
			<path class="st7" d="M29.2,29.3c0,0,2.9-0.5,7.3,1.4c4.4,2,7.8-0.8,7-5.8c0,0-1.1,1.4-6.1,0.8C32.4,25.1,30.9,27.4,29.2,29.3z"/>
			<path class="st7" d="M17.2,23.2c0,0,2.1,0.2,4.3,3.6s7.9,4.5,9.1-1c0,0-7,0.1-10.5-6.9C20.1,18.9,17.6,20,17.2,23.2z"/>
			<path class="st7" d="M45.4,23.2c0,0,1-6.8-5.6-6.6c0,0,4,2.9-2.4,5.2c0,0-3.2,0.7-2.9,2.9c0,0,0.7-0.6,4.6,0
				C43.2,25.3,45.4,23.2,45.4,23.2z"/>
			<path class="st7" d="M33.4,24.9c0,0,1-1.9-1.1-2.8s-8.1-3.6-4.3-8.6c0,0-5.6,4-2.2,6.4c3.3,2.4,6.5,3.6,5.8,6.1
				C31.6,26.1,33,25.1,33.4,24.9z"/>
			<path class="st7" d="M30.4,24.8c0,0,0.2-1.4-4.3-3.6s-1.2-7.7,2.9-8.9c0,0-3.9-2.1-7.8,1.1C17.2,16.6,24.3,24.8,30.4,24.8z"/>
			<path class="st7" d="M43.1,16.6c0,0-1.4-1.4-3.6-0.6c0,0-0.8-2.7-5.9-2.4c0,0,0.9-2,3.8-2C40.3,11.7,42.8,14.5,43.1,16.6z"/>
			<path class="st7" d="M34.1,14.5c0,0,3.1,1,3,3.1c0,2.1-3,3.8-3,3.8s5.7,0.1,5.5-3.5C39.4,14.4,34.1,14.5,34.1,14.5z"/>
			<path class="st7" d="M35.7,17.3c0,0,0.6,2.5-2.4,3.8c0,0,0.3-1.4-1.8-2.7c-2.1-1.2-1.2-2.5,1.1-3.2
				C34.9,14.6,35.7,17.3,35.7,17.3z"/>
			<path class="st7" d="M36.5,10.6c0,0-4.2,0.5-3.8,3c0,0-4.8,2.3-3.4,4.1c1.4,1.8,3.3,2,3.2,3.5c0,0-0.4-0.9-2.5-1.7
				c-2.1-0.8-3.8-4.2-0.2-6.8C29.7,12.6,30.4,8.4,36.5,10.6z"/>
		</g>
		<path class="st4" d="M44,30.4c0,0-1-3.4,1.8-6.2s9.8-1,9.8,3.4c0,4.3-3.1,5.8-5.5,5.8s-5.5-2.7-3.6-5.8c2-3.1,5-1.5,4.8-0.3
			c0,0-1.2-0.2-1.8,0.7c-0.6,0.9,0.2,2.3,1.6,2c1.4-0.3,3.2-4.4-1.6-5.3C44.7,23.7,44,30.4,44,30.4z"/>
		<circle class="st0" cx="22.2" cy="35.8" r="1.6"/>
		<circle class="st0" cx="26.5" cy="36" r="1.2"/>
		<path class="st2" d="M105.2,41.3c0,0-1.7-3.1,0.2-6.5c0.3-2.1-0.2-4.6-5.9-1.8c0,0-6.6-6.4-6,2.6c0,0-9,2.8-1.1,6.7
			c0,0-3.3,9.2,5.6,3.8c0,0,1.2,1,2.6,1.6C101.1,45.9,102.2,42.7,105.2,41.3z M97,39.5c0-1.1,0.9-1.9,1.9-1.9c1.1,0,1.9,0.9,1.9,1.9
			s-0.9,1.9-1.9,1.9C97.9,41.5,97,40.6,97,39.5z"/>
		<path class="st4" d="M58.2,127.7c-0.5-8.6-5.6-9.9-8.7-9.9c-1,0-1.7,0.1-2,0.2c1.1-0.4,2.2-0.6,3-0.6c1.4,0,2.5,0.3,2.5,0.3
			l0.2,0.1l0.2-0.1c5-4.1,3.3-8,3.2-8.2l-0.1-0.2h-0.2c-1.5-0.4-2.8-0.6-4-0.6c-7.6,0-8.4,7.3-8.5,7.8l0,0c-0.3-2.9,1.5-5.4,1.5-5.5
			l0.1-0.2l-0.1-0.2c-2.1-5.2-5.5-5.6-6.5-5.6c-0.2,0-0.3,0-0.3,0h-0.2l-0.1,0.1c-2.1,3.3-2.8,6.3-2,8.9c1.1,3.3,4.2,4.9,4.9,5.2
			c-2.8-0.7-4.6-3-4.6-3.1l-0.1-0.2h-0.2c-6.4,0.4-7.4,4.6-7.4,4.7v0.2l0.1,0.1c2.5,3.1,5.1,4.6,7.9,4.6c3.3,0,5.7-2.3,6.3-3
			c-1.5,2.4-4.3,3.4-4.3,3.4l-0.2,0.1v0.2c-1.6,6.2,2.1,8.4,2.2,8.5l0.2,0.1l0.2-0.1c3.7-1.4,5.9-3.5,6.8-6c1.2-3.6-0.8-6.8-0.9-7.1
			c0,0,0-0.1-0.1-0.1c2,2.2,2.1,5.3,2.1,5.4v0.2l0.2,0.1c1.8,1.1,3.5,1.7,5.1,1.7l0,0c2.3,0,3.6-1.1,3.6-1.2L58.2,127.7L58.2,127.7z
			 M44.3,121.2c-0.9,0-1.6-0.7-1.6-1.6s0.7-1.6,1.6-1.6c0.9,0,1.6,0.7,1.6,1.6C46,120.5,45.3,121.2,44.3,121.2z"/>
		<path class="st4" d="M105.1,29.1c0.4-9.7-5.3-11.7-8.7-12c-1.1-0.1-2,0-2.3,0c1.2-0.4,2.5-0.4,3.5-0.3c1.6,0.2,2.8,0.6,2.8,0.6
			l0.2,0.1l0.2-0.1c6-4.1,4.5-8.7,4.5-8.9V8.3l-0.2-0.1c-1.6-0.6-3.1-0.9-4.5-1.1C92,6.3,90.4,14.5,90.3,15l0,0c0-3.3,2.2-6,2.2-6
			l0.1-0.2l-0.1-0.2c-1.8-6-5.6-6.9-6.8-7c-0.2,0-0.3,0-0.3,0h-0.2l-0.1,0.2c-2.7,3.5-3.8,6.8-3.1,9.8c0.8,3.8,4.2,5.9,4.9,6.3
			C83.8,16.8,82.1,14,82,14l-0.1-0.2h-0.2c-7.3-0.2-8.8,4.4-8.8,4.6l-0.1,0.2l0.1,0.2c2.5,3.7,5.3,5.7,8.4,6c3.8,0.4,6.7-2,7.4-2.7
			c-2,2.5-5.2,3.3-5.2,3.4l-0.2,0.1l0,0.1c-2.5,6.9,1.4,9.7,1.6,9.8l0.2,0.1l0.2-0.1c4.3-1.2,7.1-3.3,8.3-6.1
			c1.7-3.9-0.1-7.8-0.3-8.1c0,0,0-0.1-0.1-0.1c2,2.7,1.8,6.2,1.8,6.3v0.2l0.2,0.1c1.9,1.5,3.8,2.3,5.6,2.5l0,0
			c2.6,0.2,4.2-0.9,4.2-1l0.2-0.1L105.1,29.1z M90.2,20.3c-1-0.1-1.8-1-1.7-2c0.1-1,1-1.8,2-1.7c1,0.1,1.8,1,1.7,2
			C92.2,19.6,91.3,20.4,90.2,20.3z"/>
		<g>
			<path class="st6" d="M114.9,41l0.1,0.7c0,0.1,0.5,5.4,6.3,6.7c0.7,0.2,1.4,0.2,2.2,0.2l0,0c4.5,0,7.3-3.2,7.4-3.4l1.1-1.3
				l-1.5,0.9c0,0-1.9,1.2-4.9,1.2c-3.5,0-6.9-1.6-10.2-4.6L114.9,41z"/>
			<path class="st6" d="M135.2,47l-0.2-0.5l-0.3,0.4c-1.2,2-2.7,2.7-5.9,2.7c-1.3,0-2.9-0.1-5.5-0.4c-0.4,0-0.8-0.1-1.1-0.1
				c-6.6,0-7.9,6.4-7.9,6.4l-0.2,1.2l0.7-1c1.1-1.5,2.6-2,5.3-2c2.2,0,5.1,0.4,9.2,0.9c0.7,0.1,1.3,0.1,1.9,0.1l0,0
				c2,0,3.4-0.6,4.2-1.8C136.9,50.9,135.3,47.2,135.2,47z"/>
			<path class="st6" d="M121.5,54.3c-6,0-6.1,2.9-6.1,3v0.2l0.1,0.1c2.2,1.5,4.4,2.2,6.6,2.2l0,0c4.8,0,7.4-3.8,7.5-3.9l0.2-0.3
				l-0.4-0.1C126.3,54.6,123.6,54.3,121.5,54.3z"/>
			<path class="st6" d="M111.5,45.8c1.8,2.3,3.5,4.5,3.6,6.4v0.9l0.5-0.8c0.1-0.1,1.9-3.5-1.2-8.2c-3.1-4.6-3.6-6.8-1.9-8.4l0.4-0.4
				l-0.5-0.1c0,0-0.8-0.2-1.7-0.2c-1.4,0-2.5,0.4-3,1.1c-0.5,0.7-0.6,1.6-0.2,2.9C108.1,41.5,109.8,43.7,111.5,45.8z"/>
			<path class="st6" d="M132.3,44.2c-0.3,1.6-1.3,2.9-3.1,4l-2.1,1.2l2.3-0.7c0.2-0.1,6-2,6.3-5.1c0.1-1.7-1.4-3.4-4.6-5l-1.2-0.6
				l0.9,1C130.7,39.1,132.7,41.6,132.3,44.2z"/>
			<path class="st6" d="M121.8,36.6l0.3-0.3l-0.4-0.2c0,0-0.8-0.3-1.7-0.3c-1.1,0-3,0.4-3.2,3.3c-0.3,4.5,5.3,6.1,5.3,6.2l1.4,0.4
				l-1.1-0.9c-1.6-1.2-2.4-2.6-2.4-4C119.8,38.5,121.7,36.6,121.8,36.6z"/>
			<path class="st6" d="M129.2,41.4c0,0.1-0.4,1.4-1.6,1.4c-0.4,0-0.8-0.1-1.2-0.3c-2.5-1.2-3.3-4.1-3.3-4.1l-0.2-0.7l-0.3,0.6
				c-0.1,0.1-1.3,2.6-0.6,4.5c0.3,0.8,0.8,1.4,1.6,1.7c0.9,0.4,2,0.7,3,0.7c1.5,0,2.7-0.5,3.2-1.3c0.3-0.5,0.5-1.3-0.1-2.5l-0.3-0.7
				L129.2,41.4z"/>
			<path class="st6" d="M112.6,37.8c0.4,1.8,2.3,2.6,2.4,2.7l0.4,0.2v-0.4c0,0,0.1-5,6.3-6.8l0.6-0.2l-0.5-0.3
				c-0.1,0-1.7-1.1-3.7-1.1c-1.7,0-3.1,0.8-4.3,2.2C112.7,35.3,112.3,36.6,112.6,37.8z"/>
			<path class="st6" d="M120.7,35.2h0.8c0.8,0,5,0.3,6.4,5.4L128,41l0.3-0.2c0,0,0.9-0.6,1.2-1.9c0.2-1.2-0.3-2.5-1.4-3.9
				c-1-1.3-2.2-2-3.4-2c-1.7,0-3,1.2-3.5,1.7L120.7,35.2z"/>
			<path class="st6" d="M111,48c-3.5-3-3.5-5.3-3.5-5.3v-1.2l-0.5,1.1c-1.4,2.9-1.6,5.7-0.6,8.2c1.7,4.4,6.3,6.4,6.5,6.5l0.2,0.1
				l0.1-0.2C114.4,55.4,114.9,51.3,111,48z"/>
		</g>
		<path class="st0" d="M123.7,101.5c0,0-3.4,6.5,2,8.4C125.7,110,132.3,106.9,123.7,101.5z"/>
		<g>
			<path class="st7" d="M100.4,106.1c-2.4-4-5.1-2.1-5,0.2s-2.5,1.3-5.1,3.8c-4,3.8,2.4,9,2.4,9s-1.3,3.4,2.6,6.2
				c3.9,2.8,6.8-2.5,6.8-2.5C87.2,114,100.4,106.1,100.4,106.1z"/>
			<path class="st7" d="M99.7,107.8c-5.6,3.7-2.8,9.3-2.8,9.3c0.8-3.4,4.5-6.7,8-6.7c3.7-0.1,5.4,2.4,5.4,2.4
				C111,108.9,105.3,104.1,99.7,107.8z"/>
			<path class="st7" d="M98.4,118.3c1.2,5.2,10.3,4.3,10.3,4.3c-14.7-5-3.2-11.1-3.2-11.1C103.3,111.6,97.2,113.1,98.4,118.3z"/>
			<path class="st7" d="M105.1,112.9c0,0,3.6,2.2,2.3,4.4c-1.3,2.2-4.2,1.3-4.2,1.3c5.5,4.4,9.3-3.5,6.5-5.1
				C106.9,111.7,105.1,112.9,105.1,112.9z"/>
			<path class="st7" d="M110.8,123.3c0,0-3.9,1.4-8.2-0.2c0,0,0.2,1.7-1.7,3.1c-1.9,1.4,0.3,8,4,5.6c3.9-2.4,2.5-0.7,5.3-1
				S116.4,125.2,110.8,123.3z"/>
			<path class="st7" d="M114.8,113.8c-2.5-1.8-4.4-0.4-4.4-0.4s4.9,4.1-4.3,7.3c0,0,6.7,3.4,6.9-0.4
				C113.2,116.5,117.2,115.6,114.8,113.8z"/>
			<path class="st7" d="M120,121.8c1.9-4.2,4-6.9-1.4-11.2c-5.5-4.3-6.9-0.3-7.5,0.9c-0.1,0.2,1.8-1.6,4.7,1.8
				c2.9,3.5-0.9,4.6-0.9,4.6s0.9,4.8-2.6,4.9C112.1,122.9,118.1,126,120,121.8z"/>
			<path class="st7" d="M100.9,105.4c0,0,6.2-2.5,10,4.4c0,0,3.1-4.9-3-8.4C101.8,97.8,96.7,100.6,100.9,105.4z"/>
		</g>
		<g>
			<circle class="st3" cx="114.6" cy="29.2" r="2.1"/>
			<circle class="st3" cx="119.6" cy="29" r="1.8"/>
			<circle class="st3" cx="124.4" cy="29.8" r="1.6"/>
		</g>
		<g>
			<g>
				<path class="st2" d="M125.4,90.2c0,0-1.5-6.3,1.5-8c3.1-1.6,4.7,1.1,4.8,2.9c0,0,3.9,0.1,3.9,2.7c-0.1,2.5-3.6,4.6-9.1,3.8
					C126.4,91.5,133.2,82.8,125.4,90.2z"/>
				<path class="st2" d="M123.8,90.2c0,0,1.5-6.3-1.5-8c-3.1-1.6-4.7,1.1-4.8,2.9c0,0-3.9,0.1-3.8,2.7c0.1,2.5,3.6,4.6,9.1,3.8
					C122.8,91.5,116,82.8,123.8,90.2z"/>
			</g>
			<g>
				<path class="st2" d="M125.4,94c0,0-1.5,6.3,1.5,8c3.1,1.6,4.7-1.1,4.8-2.9c0,0,3.9-0.1,3.9-2.7c-0.1-2.5-3.6-4.6-9.1-3.8
					C126.4,92.6,133.2,101.3,125.4,94z"/>
				<path class="st2" d="M123.8,94c0,0,1.5,6.3-1.5,8c-3.1,1.6-4.7-1.1-4.8-2.9c0,0-3.9-0.1-3.8-2.7c0.1-2.5,3.6-4.6,9.1-3.8
					C122.8,92.6,116,101.3,123.8,94z"/>
			</g>
		</g>
		<circle class="st3" cx="139.4" cy="87.2" r="1.8"/>
		<circle class="st3" cx="123.5" cy="111.3" r="1.3"/>
		<circle class="st3" cx="137.6" cy="92.4" r="2"/>
		<circle class="st3" cx="115.7" cy="103.8" r="1.8"/>
		<circle class="st3" cx="119.1" cy="107.6" r="1.6"/>
		<path class="st0" d="M104.5,44.5l0.1-0.4c0,0-1,0.8-2,2.2c-0.8,1.1-1.2,2.1-1.4,2.9c-0.3,1.2-0.5,2.6-0.3,4.1
			c0.7,6,6.3,1.9,6.3,1.9C102.6,51.9,104,46,104.5,44.5z"/>
		<g>
			<g>
				<path class="st8" d="M50.8,53.4"/>
				<path class="st8" d="M52.3,57.7"/>
				<path class="st8" d="M40.9,40.7c-0.1-0.2-0.2-0.5-0.4-0.6c-0.1-0.2-0.3-0.3-0.4-0.3c-0.4,0-1.7,2-2.8,3.7c-1,1.5-4.1,5.7-5,6.9
					c-0.1,0.2-0.2,0.2-0.2,0.3c-1.1-1.1-2.5-2.1-3.9-2.7l0,0c0,0-0.2-0.1-0.5-0.2c0,0,0,0,0,0c0,0,0,0,0,0c-1.1-0.3-3.4-0.8-5.2,0.2
					c-2.4,1.4-1.7,3.8-1.2,5c0.3,0.7,0.8,1.1,1.4,1.5c0.2,0.1,0.4,0.2,0.6,0.3c0.3,0.1,0.6,0.2,1,0.2c0.1,0,0.1,0,0.1,0
					c0.1,0,0.3,0,0.4,0c0.1,0,0.1,0,0.1,0c0.3,0,0.5-0.1,0.7-0.1c0.9-0.1,2.1-0.7,2.2-3.2c0,0-1.8,0.1-2.3,1.7
					c-0.2,0.6-0.3,0.9-0.4,1.2c-0.2,0-0.4,0-0.8-0.1c-0.7-0.3-1.3-0.9-1.6-1.8c0-0.1,0-0.2-0.1-0.3c0,0,0-0.1,0-0.1
					c0-0.2,0-0.5,0-0.8c0-0.2,0-0.3,0-0.4c0-0.1,0-0.2,0-0.2c0-0.1,0-0.1,0-0.2c0.5-1.7,2.6-2.2,4.8-1.6c1.6,0.4,2.9,1.4,3.6,2.1
					l0,0l0.3,0.3c0,0,0,0,0,0c0.1,0.1,0.1,0.1,0.2,0.2c-0.2,0.3-0.5,0.7-0.9,1.2c-0.1,0.1-0.2,0.3-0.3,0.4c-0.1,0.1-0.1,0.2-0.2,0.2
					c0,0,0,0,0,0c-1,1.3-2.3,2.9-3.7,4.3c0,0,0,0-0.1,0.1c-0.9,0.9-1.9,1.6-2.8,2.1c-0.2,0.1-0.3,0.1-0.5,0.2l0,0
					c-0.5,0.2-1,0.3-1.5,0.4c-2.3,0.4-3.4-1.1-3.8-1.6c-0.5-0.7-0.8-2.2-0.1-2.9c0.1-0.1,0.2-0.2,0.3-0.3c0.2,0.1,0.4,0.2,0.6,0.4
					c1.4,1,3-0.1,3-0.1c-1.8-2.2-3.3-1.6-4.1-1.1c-0.4,0.2-0.8,0.6-1.1,1.2c-1,2-1.1,6.4,4.4,6.1c5.3-0.3,9.2-6.6,11-9.3
					c0-0.1,0.3-0.6,0.4-0.5c0.1,0.1,2,2.2,2.8,3.6c0.7,1.5,0.9,2.9,1,3.5c0,0.2,0.1,0.5,0.1,0.7c0,0.1,0,0.1,0,0.2
					c0,0.2,0,0.3,0,0.4v0.1c0,0.1,0,0.2,0.1,0.3c0.1,0.1,0.2,0.1,0.3,0.1c0.1,0,0.2,0,0.4-0.1c0.2-0.1,0.4-0.2,0.5-0.3
					c0.1-0.1,0.2-0.3,0.2-0.5c0,0-0.2-4.2,0.7-8.9l0.1-0.5c0,0,0-0.1,0-0.1c0.1-0.4,0.2-0.8,0.3-1.2c0,0,0,0,0,0
					c0.1-0.3,0.2-0.6,0.3-0.9c0-0.3,0.1-0.5,0.1-0.6c0-0.1,0.1-0.3,0.1-0.4c0.8-2.9,1.6-5.2,1.8-5.7c0.1-0.2,0.1-0.3,0.1-0.4
					C41.1,41.1,41,40.9,40.9,40.7z M38.2,44.7c0,0.1-0.1,0.2-0.1,0.3c-0.4,1.5-1.1,4.1-1.4,5.8c-0.4,2.5-0.5,4-0.5,4.6
					s0,0.7-0.1,0.6c0,0-0.6-1.1-1.7-2.6c-0.6-0.8-1.6-2-1.6-2c-0.1-0.1,0.1-0.2,0.1-0.2l0,0c1.8-2.7,4.3-6.6,4.6-7.1
					c0.3-0.6,0.8-0.9,1-0.7C38.5,43.4,38.4,44.2,38.2,44.7z"/>
				<path class="st8" d="M77.9,55.9c0,0-0.2,0.3-0.5,0.7c-0.3,0.3-0.7,0.8-1.3,1.4c0,0-0.1,0.1-0.1,0.1c0,0.1,0,0.1-0.1,0.1
					c0,0-0.1,0.1-0.2,0.1c0,0,0,0,0,0c-1.6,1.6-2.6,1.9-3.7,1.4c-1.2-0.5-2.4-3.6-2.4-3.6s-0.1,0,1-1.2c0,0,0,0,0.1-0.1c0,0,0,0,0,0
					c1.2-1.3,2.6-1.5,2.9-1.2c0.3,0.3-0.4,1.2-0.6,1.6l1.4,0.9c0,0,0.7-1.5,0.4-2.6c-0.1-0.5-0.7-0.8-1.5-0.7c-0.1,0-0.1,0-0.1,0
					c0,0,0,0,0,0c0,0-0.1,0-0.1,0c0,0,0,0-0.1,0c-0.8,0.2-1.8,0.9-3,2.1l0.1-0.2c0,0,0-0.1,0-0.1l0,0c0.3-0.9,0.8-2.4,0.8-3
					c0-0.9-1.4,0-2.1,1s-2,2.7-3.4,3.8l0.4,1c0,0,1.6-1.7,2.4-2.7c0.8-0.9,0.4,0,0.4,0s-1.6,4.4-1.9,5.1c-0.3,0.6-0.4,0.9-0.1,1
					c0.2,0.1,1.3,0.1,1.7-0.1l1-3.1c0.3,1,1.2,3.6,2.8,3.8c1.9,0.4,5.5-4,5.5-4l1.3-1.8L77.9,55.9z"/>
				<path class="st8" d="M43.3,63.6c0,0,1.3-0.7,2.1,0.8c0.7,1.4-0.3,1.6,1,2.4c1,0.6,2,0.7,2,0.7c0-2.1-0.6-3.3-1.4-4
					c-0.1-0.2-0.4-0.4-0.9-0.6c-1.1-0.5-2.2-0.3-2.4-0.3c0,0-0.1,0-0.1,0c0.5-1.7,1-3.4,0.8-3.9c-0.3-0.5-2.3-0.1-2.9,0
					c1-0.5,4-2.2,5-3.7c1.2-1.8,0.7-3.2,0-3.6c-0.6-0.3-1.4-0.7-3.1,0.3c-0.5,0.2-1,0.5-1.5,1c0.1-0.2,0.2-0.4,0.1-0.6
					c-0.2-0.3-1.6-0.3-1.9,1.3c-0.3,1.6-0.4,2.3,0.1,2c0.4-0.2,0.7-0.8,1.2-1.4l0,0c0.3-0.3,0.8-1,1.5-1.6c0.5-0.3,1-0.6,1.5-0.7
					c0,0,0,0,0,0c0,0,0.1,0,0.1,0c0.3,0,0.5,0,0.7,0.1c0.2,0.1,0.9,0.6-0.2,2.5c-0.4,0.6-0.8,1.1-1.2,1.6c-0.1,0.1-0.1,0.1-0.2,0.2
					l-1.4,1.3c-0.5,0.4-0.9,0.6-1.1,0.8c-0.3,0.2-0.5,0.3-0.7,0.4c-0.3,0.2-0.7,0.3-1.1,0.3l-0.1,0c-0.1,0-0.1,0.1-0.1,0.2
					c0,0.1,0,0.1,0.1,0.2c0.2,0.3,0.4,0.5,0.7,0.5c0.1,0,0.2,0,0.4-0.1c0,0,1.2-0.5,1.8-0.5c0.6,0,0.4,0.9,0.2,1.5
					c-0.2,0.5-0.6,1.5-0.7,1.8c-3.2,0.4-5.8,1.5-8.6,3.9c-3,2.5-3.8,4.7-3.7,6.3c0,0,0,0,0,0c0,0.1,0,0.2,0,0.2c0,0,0,0.1,0,0.1
					c0,0,0,0,0,0c0,0.1,0,0.3,0.1,0.4c0,0,0,0.1,0,0.1c0,0.1,0,0.1,0.1,0.2c0,0.1,0,0.1,0.1,0.2c0.1,0.1,0.2,0.3,0.3,0.4
					c0.4,0.4,0.8,0.7,1.3,0.8c0.3,0.1,0.7,0.1,1.1,0.1c0,0,0,0,0.1,0c0.1,0,0.2,0,0.3,0c0.5-0.1,1.1-0.2,1.6-0.4
					c0.4-0.1,0.8-0.2,1.1-0.4c0.2-0.1,0.4-0.3,0.6-0.4c0.1-0.1,0.2-0.1,0.3-0.2c0.2-0.1,0.3-0.2,0.5-0.4c0.2-0.2,0.5-0.4,0.7-0.6
					c0.1-0.1,0.3-0.3,0.4-0.4c0.1-0.1,0.3-0.2,0.4-0.4c0.1-0.1,0.1-0.1,0.2-0.2c0.1-0.1,0.2-0.2,0.3-0.3c2.3-2.8,3.5-5.4,4.3-7.3
					C43.1,64.2,43.2,63.9,43.3,63.6z M36.3,72.6c-2.2,2.2-4,2.1-4.4,2c-0.1,0-0.1,0-0.2,0c-1.2,0-1.8-0.6-1.8-1.9
					c0-0.2,0-0.5,0.1-0.7c0.1-0.6,0.5-1.5,1.4-2.6c0,0,0-0.1,0-0.1c0,0,0.1-0.1,0.1-0.1c0,0,0,0,0,0c0,0,0,0,0,0
					c1-1.1,3.2-3.1,5.7-4.1c0.9-0.4,1.9-0.6,2.8-0.9c0.7-0.2,1.2-0.2,1.2-0.2S38.8,70.2,36.3,72.6z"/>
				<path class="st8" d="M65.8,52.1c-0.2-0.4-0.7-0.4-1,0c0,0-0.1,0.2-0.2,0.4c-0.1,0.2-0.3,0.5-0.4,0.9c-0.2,0.4-0.3,0.8-0.5,1.1
					c0,0-1.8,2.4-3.1,3.5c-1,0.9-1.8,1.5-2.2,1.3c0,0,0,0-0.1,0c-0.1,0-0.2-0.2-0.2-0.4C58,58.3,58.5,57,59,55.9l0-0.1l0.1,0
					c0.4-0.9,0.9-1.7,0.9-1.7c0.1-0.3,0.1-0.5,0.1-0.7c0-0.2,0-0.4-0.1-0.7c0,0,0-0.1-0.1-0.1c0-0.1-0.1-0.2-0.1-0.2
					c-0.1-0.1-0.1-0.1-0.2-0.1c-0.1,0-0.3,0.1-0.6,0.4c0,0,0,0,0,0c0,0,0,0,0,0c-0.1,0.1-0.3,0.3-0.4,0.6c-0.6,0.9-3.2,3.3-3.2,3.3
					l0,0c0,0-0.1,0.1-0.1,0.1c-0.1,0-0.1,0.1-0.2,0.2l0,0.1c0,0.1,0,0.1,0.1,0.1c0.1,0,0.3-0.1,0.5-0.3c0.2-0.2,0.3-0.3,0.4-0.3
					c0.2-0.1,0.4-0.3,0.5-0.5c0.1-0.1,0.2-0.2,0.3-0.3c0.4-0.4,0.7-0.7,0.9-0.9c0,0,0,0.1,0.1,0.1c0.1,0,0.1,0,0.1,0.1
					c-0.1,0.2-0.1,0.3-0.1,0.5c0,0.2-0.1,0.5-0.3,0.7c0,0.1-0.1,0.2-0.1,0.3c0,0.1-0.1,0.2-0.1,0.3c-0.1,0.2-0.3,0.5-0.4,1l0,0
					c0,0-0.4,1-0.5,1.9l0,0c0,0,0,0,0,0c-0.1,0.9,0.1,1.6,1.2,1.4c2-0.4,4.9-4,5.7-5c-0.1,0.3-1.2,5.6-3.4,10.3
					c-0.2,0.4-0.4,0.9-0.6,1.2c-1,1.9-2.9,4.6-4.4,5.6c-1.1,0.7-1.7,0.6-2,0.6c0,0,0,0,0,0c-0.1,0-0.1,0-0.1,0
					c-0.3-0.1-0.4-0.3-0.6-0.5c-0.1-0.2-0.2-0.5-0.3-0.9C51.3,70.1,49,70,49,70c0.1,3.2,1.7,4,2.8,4.1c0.4,0.1,1.2,0.1,2.2-0.1
					c1.6-0.4,3.7-1.5,5.9-4.5c4.3-6,6-15.9,6-15.9S66,52.5,65.8,52.1z M61.2,57.9L61.2,57.9C61.2,57.9,61.2,57.9,61.2,57.9
					L61.2,57.9z"/>
				<path class="st8" d="M51.5,43.5c0.2,0,0.9,0.1,1.4,0.2c0.7,0.1,5.8,1,7-2.7c-0.2,0-0.5-0.1-0.8-0.1c-0.3,0-0.7,0-1.1,0.1
					c-0.3,0.1-0.6,0.2-0.8,0.4c-1.1,1-1.2,1.4-3.2,1.5c-2,0-2.6-0.5-3.9,0.6c-0.3,0.4-0.6,1.1-0.5,2.3c0,0.3,0.1,0.7,0.2,1
					c0,0.2,0.1,0.3,0.1,0.5c0,0.1,0.1,0.2,0.1,0.2c0.5,1.6,1.3,2.3,1.8,3c0.6,0.9,0.8,1.7,0.8,1.7l-0.2-0.1
					c-0.6-0.2-1.7-0.2-3.2,0.7c-2.3,1.5-2.6,4.7-2.6,4.7s-0.1,0.9,0.1,1.6c0.2,1,0.9,1.5,1.9,1.5c0.6,0,1.1-0.2,1.6-0.5
					c0.5-0.3,1.4-1,2.2-2.3c0.3,0.1,1.2,0.4,2.4-0.2c0.1,0,0.2-0.1,0.3-0.1c1.7-0.9,2.9-2.9,2.9-2.9l0.2-0.4c0,0-0.7,0.5-2.5,2.1
					c-1.4,1.3-2.5,1.1-2.9,1c0.4-0.6,0.6-1.2,0.6-1.8l0.1-0.1l0,0c0.1-0.1,0.1-0.3,0.2-0.4c0,0,0,0,0,0c0,0,0,0,0,0
					c0.3-0.6,0.4-1.5,0.1-3c-0.4-1.7-1.4-2.8-2.1-3.8c0,0,0,0,0,0c0,0,0,0,0-0.1c-0.1-0.2-0.3-0.4-0.4-0.6c-0.1-0.2-0.2-0.3-0.3-0.5
					c0-0.1,0-0.1-0.1-0.2c-0.5-1.1-0.4-1.8-0.2-2.5C50.5,43.5,51.1,43.4,51.5,43.5z M52.8,53.9c0,0.2,0,0.4-0.1,0.6
					c-0.3-0.2-0.7-0.1-1.2,0.4c0,0,0,0.1-0.1,0.1c0,0,0,0-0.1,0c-0.1,0.1-0.1,0.1-0.1,0.2c-0.4,0.7,0,1.4,0.3,1.8
					c0.1,0.1,0.1,0.2,0.2,0.3c-0.3,0.5-0.7,1-1,1.3c0,0-0.1,0.1-0.1,0.1c-0.2,0.2-0.4,0.4-0.7,0.6c-0.3,0.2-0.7,0.4-1.1,0.4
					c-0.2,0-0.3,0-0.5-0.1c-0.3-0.1-0.5-0.5-0.5-1.2c0-0.3,0-0.6,0.1-1c0-0.1,0-0.1,0-0.2c0-0.1,0-0.1,0-0.2
					c0.1-0.2,0.1-0.4,0.2-0.6c0,0,0,0,0,0c0.1-0.2,0.2-0.3,0.2-0.5c0,0,0,0,0,0c0-0.1,0.1-0.1,0.1-0.2c0,0,0,0,0,0
					c1-1.9,2.5-2.5,2.5-2.5c0.2-0.1,0.5-0.2,0.7-0.2c0,0,0.1,0,0.1,0h0.1c0.3,0,0.5,0.1,0.6,0.3C52.8,53.5,52.8,53.7,52.8,53.9z"/>
				<path class="st8" d="M88.1,58.2C88.1,58.2,88.1,58.2,88.1,58.2c0.1-0.2,0.1-0.3,0.2-0.5c0-0.1,0-0.1,0-0.2c0.1-0.4,0.1-1,0-1.7
					c0,0-1.7,0.4-1.9,1.9c-0.1,0.5-0.1,0.9-0.2,1.1c0,0.1-0.1,0.2-0.2,0.3c-0.3,0.3-1.9,1.1-2.3,0.6c-0.5-0.5,0.7-2.6,0.7-2.6l0,0
					C84.7,56.5,85,56,85,56c0.1-0.2,0.1-0.4,0.2-0.5c0-0.1,0-0.2,0-0.4c0,0-0.1-0.2-0.3-0.3l0,0c0,0-0.3-0.5-0.9,0.1
					c0,0-0.1,0-0.1,0c-0.1,0.1-0.2,0.1-0.3,0.2c-0.3,0.3-0.7,0.7-1,1l0,0c-0.9,0.9-1.9,2-2.4,2.4c-1.3,1.1-2.3,1.1-2,0.1
					c0,0,0,0,0,0c0,0,0,0,0-0.1c0-0.1,0.1-0.2,0.1-0.3l0,0c0,0,0,0,0-0.1c0.1-0.4,0.2-0.7,0.4-1l0.3-0.4c0.2-0.3,0.3-0.4,0.4-0.6
					c0.2-0.3,0.4-0.6,0.6-0.8c0,0,0,0,0,0c0,0,0,0,0,0c0.1-0.1,0.2-0.2,0.3-0.4l0,0c0,0,1.2-1.6,3.1-1.8c0.8-0.1,1.2,0,1.5,0.2
					c0,0,0.1,0,0.1,0l0,0c0,0,0,0,0.1,0c0,0,0.1,0,0.1,0c0,0,0,0,0.1,0.1c0.1,0.1,0.1,0.1,0.2,0.2c0,0,0,0,0,0c0,0,0,0,0,0
					c0.1,0.1,0.1,0.2,0.1,0.2l0,0c0,0,0,0.1,0,0.1c0,0.1,0,0.1-0.1,0.2c0,0.1-0.1,0.1-0.1,0.2c0,0.1,0,0.2,0,0.3c0,0,0,0.1,0.1,0.2
					c0.1,0.1,0.1,0.1,0.2,0.1c0.3,0,0.5-0.1,0.5-0.3c0,0,0-0.1,0-0.3c0-0.4-0.2-0.8-0.5-1.2c-0.3-0.3-0.7-0.5-1.1-0.6c0,0,0,0,0,0
					c-1-0.5-3.4-0.3-5.6,1.8c-1.8,1.7-2,3-2,3.5c-0.1,0.4-0.2,0.7-0.2,1.2c0,0.3,0,0.6,0.1,0.8l0,0c0,0,0.1,0.5,0.7,0.6
					c0.1,0,0.2,0.1,0.3,0.1c0.1,0,0.3,0,0.4-0.1c1.1-0.3,3.8-2.7,4.6-3.4c-0.1,0.4-0.4,1.1-0.5,1.9c0,0.2-0.1,0.3-0.1,0.5
					c0,0.2,0,0.3,0,0.4c0,0.2,0.1,0.3,0.1,0.5c0.3,0.7,1.2,0.6,2.1,0.3v0c0,0,2.4-0.5,3.3-2.1C88,58.4,88,58.3,88.1,58.2
					C88.1,58.2,88.1,58.2,88.1,58.2z"/>
			</g>
			<g>
				<path class="st8" d="M59.4,96.4c-0.1,0-0.2,0-0.3,0c-0.2,0-0.4,0-0.6,0c0,0,0.5-1.4,0.2-1.6c0,0-0.1,0-0.1,0c0,0,0,0-0.1,0
					c0,0-0.1,0-0.1,0.1c-0.2,0.1-0.4,0.4-0.9,0.6c-0.7,0.4-0.9,0.4-1.2,0.2s-1.1-1.2-0.5-4.4s2.7-8.6,2.7-8.6l0,0
					c1.1-2.8,2.1-5.3,2.2-6c0.2-1-0.5-1.5-0.9-1.7c0,0-0.1-0.1-0.1-0.1l-0.2-0.1c-0.2,0-0.3,0.2-0.4,0.6c-0.3,0.6-2.2,4.4-3.5,6.4
					c-0.1,0.1-0.2,0.2-0.3,0.4c-1.6,2.3-7.1,9.7-8.2,10.3c-1.2,0.7-2.1,0.8-1.9-1.3c0.1-1.7,1.7-5.2,2.3-6.3c1-1.6,2.3-5.3,1.3-7.9
					c-0.9-2.4-2.7-3.1-3.1-3.2c-2.2-0.8-6.2-0.6-8.6,1.5c-2.5,2.3-2.2,5.1-2.1,5.8c0.1,0.9,0.3,1.6,0.8,2.3c0.7,1,1.6,1.6,2.9,2
					c0.3,0.1,0.6,0.1,1,0.1c0.7,0,1.2-0.1,1.4-0.2c0.9-0.2,1.7-0.8,2.3-1.5c0.5-0.7,0.7-1.5,0.7-2.6c0-0.1,0-0.1,0-0.2
					c-0.1-1.3-0.7-3.5-4.5-3.7c0,0-0.7,1.2,0.6,2.1c1.3,0.9,1.9,0.7,2.9,1.5c0.2,0.1,0.3,0.3,0.4,0.6c0,0,0,0,0.1,0c0,0,0,0.1,0,0.1
					c0,0,0,0,0,0c0.1,0.8-0.5,2-1,2.4c0,0,0,0,0,0c-0.1,0.1-0.2,0.2-0.3,0.2c-0.4,0.3-0.8,0.4-1.2,0.6c0,0,0,0,0,0
					c-0.1,0-0.2,0-0.3,0.1c-0.1,0-0.1,0-0.2,0c-1.4,0.2-2.3-0.3-3-0.8c-0.8-0.6-1.6-1.6-1.1-4.4c0.5-2.8,2.2-4.3,5-5.3
					c2.8-1,5.5,0.5,5.9,2.6c0.4,2.1-1,5.7-1,5.7l0,0c-0.2,0.6-0.5,1.4-1,2.6c-0.9,1.9-1.5,3.7-1.8,5.2c-0.1,0.5-0.2,1.1-0.2,1.6
					c0,1.2,0.4,2,1.2,2.4c0.2,0.1,0.5,0.1,0.9,0.1c0.2,0,0.3,0,0.5-0.1c0,0,0,0,0.1,0c1-0.2,2.2-1.1,3.3-2.4l0,0l3.9-5.3
					c0,0,0-0.1,0.1-0.1c0,0,0.1-0.1,0.1-0.1c0.1-0.1,0.1-0.2,0.2-0.3c0,0,0.1-0.1,0.1-0.1c0,0,0.1-0.1,0.1-0.1l0.1-0.2
					c0,0,0-0.1,0.1-0.1c1-1.4,2.2-2.9,2.7-3.6c0,0,0.1,0,0.1,0c-0.1,0.3-0.2,0.7-0.3,1c-0.1,0.3-0.3,0.9-0.6,1.9l-0.1,0.7
					c-0.1,0.4-0.3,0.9-0.4,1.5c-0.1,0.4-0.2,0.8-0.3,1.2l0,0c0,0-1.2,3.7-0.5,6.2c0.4,1.6,1.7,1.9,2.6,1.9l-0.1,0.1
					c-0.6,0.1-1.3,0.4-2.1,0.8c-0.2,0-0.6,0.2-1,0.4c-0.1,0.1-0.1,0.1-0.2,0.1c-1.4,0.4-3.5,2.2-4.3,3.5c-0.8,1.3-0.7,3,0,3.5
					c0.7,0.5,3.5,1.1,6.3-2.3c1.8-2.2,2.6-4.4,2.9-5.7c0.2-0.1,0.5-0.1,0.8-0.1c0.2,0,0.4,0,0.6,0.1c0.1,0.2,0.2,0.4,0.3,0.7
					c0.4,1.2,1.7,1.3,1.7,1.3C61.6,96.2,59.8,96.3,59.4,96.4z M54.3,102.6c-2.2,2.3-3.7,1.8-4.2,1.4c0,0,0,0-0.1-0.1c0,0,0,0,0,0
					c0,0,0,0,0-0.1c0,0,0,0,0,0c-0.4-0.5-0.7-1.7,0.7-3.2l0.1,0c0.8-1,2.1-1.8,3.3-2.4c0.1-0.1,0.2-0.1,0.3-0.2l0.1-0.1
					c0.1,0,0.2-0.1,0.3-0.1l0.9-0.4l0.3-0.1c0,0,0,0,0.1,0c0,0,0.1,0,0.1,0c0,0,0.1,0,0.1,0c0,0,0.1,0,0.1,0c0,0,0.1,0,0.2,0l0.2,0
					c0.1,0,0.2-0.1,0.4-0.1C57,97.2,56.5,100.3,54.3,102.6z"/>
				<path class="st8" d="M67.3,84.8c-0.2-0.1-0.5-0.2-1-0.2c-0.3,0-0.4,0-0.6,0.1c-2.2,0.5-4,4-4.4,4.8c0,0-0.1,0-0.2-0.1
					c-0.1-0.2,0.1-1.8,0.3-2.4c0.2-0.7,0.6-1,0.6-1c0.1-0.1,0.1-0.2,0.2-0.2c0.2-0.1,0.4-0.3,0.6-0.6c0,0,0.1-0.1,0.1-0.1
					c0.1-0.1,0.2-0.1,0.2-0.2c0.1-0.1,0.3-0.3,0.6-0.6c1.3-1.3,3-3.1,3.9-4.7c0.9-1.7,1.1-2.9,0.8-3.7c0,0,0-0.2-0.2-0.5
					c0,0,0,0,0,0c0-0.1-0.1-0.1-0.1-0.1c-0.8-0.9-1.9-0.3-1.9-0.3l0,0c-0.8,0.3-1.9,1.1-2.9,3.3c-1.1,2.3-2.2,5-2.8,6.8
					c-0.2,0.7-0.5,1.9-0.8,3.1l0,0c0,0.5-0.1,0.9-0.2,1.4c0,0.4-0.1,0.9,0,1.2c0.1,1.2,0.2,1.8,0.3,2.1c0,0,0,0.1,0,0.1
					c0.2,0.2,0.5,0.3,0.9,0.3c0.1,0,0.2-0.1,0.2-0.2c0.1-0.1,0.1-0.3,0.1-0.6c0-0.3,0-0.6,0-0.9c0-0.1,0.1-0.2,0.1-0.3
					c0-0.2,0-0.3,0.1-0.4c0,0,1-2.3,2.5-3.8c1.4-1.5,2.4-1.4,2.8-1.1c0.4,0.3-0.5,3.8-1.1,5c-0.7,1.2-1.5,2.1-2.2,2.1
					c0,0-0.1,0-0.2,0c-0.1,0-0.2,0-0.2-0.1c-0.1,0-0.1-0.1-0.1-0.1l0-0.2c0-0.3-0.1-0.5-0.4-0.5c-0.3,0-0.4,0.1-0.5,0.3
					c0,0,0,0.1,0,0.2c0,0.3,0.2,0.5,0.5,0.7l0,0c0.2,0.1,0.5,0.2,0.9,0.2c0.5,0,0.9-0.1,1.2-0.3c0,0,0.1-0.1,0.1-0.1
					c0,0,0.1,0,0.1,0c0,0,0.1-0.1,0.3-0.2c0,0,0.1-0.1,0.1-0.1c0,0,0.1-0.1,0.1-0.1c0,0,0.1-0.1,0.2-0.1c0.1-0.1,0.3-0.3,0.7-0.7
					c0.1-0.1,0.1-0.2,0.1-0.2c0.1-0.1,0.2-0.3,0.3-0.5c0.1-0.1,0.2-0.3,0.2-0.4c0.3-0.5,0.6-1,0.8-1.5c0,0,0,0,0,0c0,0,0,0,0,0
					c0.3-0.8,0.5-1.4,0.5-1.4s0.3-1.5-0.4-2.4C67.6,85.1,67.5,84.9,67.3,84.8z M62.3,84.3c0.3-1.1,1.2-4.1,2.3-6.1
					c0.1-0.3,1.1-2,1.9-2.6c0.9-0.6,1.2-0.2,1.2,0.4c0,0,0,0,0,0c0,0.1,0,0.1,0,0.2c0.1,0.8,0,2-0.8,3.4c-0.1,0.1-0.2,0.3-0.2,0.4
					c0,0,0,0.1-0.1,0.1c-0.1,0.1-0.2,0.2-0.2,0.3c0,0-0.1,0.1-0.1,0.1c-0.1,0.2-0.3,0.4-0.4,0.6c0,0,0,0,0,0
					c-0.1,0.1-0.2,0.2-0.3,0.3c0,0,0,0,0,0c0,0,0,0.1-0.1,0.1c0,0,0,0,0,0.1c-0.3,0.4-0.6,0.7-0.9,1l0,0c-0.4,0.5-0.8,0.8-1,1.1
					c-0.2,0.3-0.4,0.4-0.5,0.5c-0.3,0.3-0.6,0.5-0.8,0.5c-0.1,0-0.1-0.1-0.1-0.2C62.1,84.7,62.2,84.5,62.3,84.3z"/>
				<path class="st8" d="M76.1,89c-0.1,0.1-0.1,0.2-0.2,0.2c0,0,0,0,0,0c-0.1,0.2-0.2,0.3-0.3,0.3c-1.3,1.6-3,2.5-3.7,2.7
					c-0.8,0.3-1.7,0.6-2.1-0.3c-0.5-0.8,0.1-2.2,0.1-2.2s0.9-0.1,1.9-0.7c0.1-0.1,2-0.9,2.4-2.3c0.3-1.1-0.2-1.6-0.6-1.8l0,0
					c0,0-0.8-0.4-2.1,0.2c-1.2,0.4-2.2,1.8-3.1,3.1c-0.9,1.4-1.6,5.9,2.2,4.9c3-0.8,4.6-2.8,5.2-3.6c0.1-0.1,0.2-0.2,0.3-0.3
					L76.1,89z M73.9,87.1L73.9,87.1L73.9,87.1C73.9,87.1,73.9,87.1,73.9,87.1z M70.1,89c0,0,0-0.1,0.1-0.3c0.2-0.5,0.5-1.1,0.8-1.5
					l0,0c0.4-0.6,1-1.1,1.7-1.3l0,0c0,0,0.3-0.1,0.5,0c0.2,0.1,0.3,0.9-0.2,1.8s-1.6,1.4-2.1,1.6s-1,0.1-1,0.1S70,89.1,70.1,89
					L70.1,89z"/>
				<path class="st8" d="M93.6,88.7c-0.1,0.2-0.2,0.3-0.3,0.5c-1.7,2.3-2.8,2.2-3,2.1c-0.2,0-0.4-0.3-0.4-1.2c0-0.2,0-0.4,0-0.6
					c0,0,0-0.1,0-0.1c0-0.1,0-0.2,0-0.3c0,0,0-0.1,0-0.1c0,0,0-0.1,0-0.1c0-0.6,0-1.3-0.1-2.2c-0.1-0.6-0.3-0.8-0.6-0.9c0,0,0,0,0,0
					c0,0-0.1,0-0.1,0c-0.2-0.1-0.5,0-0.7,0.1c0,0,0,0-0.1,0c-0.1,0-0.1,0-0.1,0.1c0,0,0,0,0,0c-0.1,0.1-0.2,0.1-0.4,0.2
					c0,0-0.1,0-0.1,0.1c-0.5,0.3-1,0.8-1.4,1.2c-0.5,0.5-1,1-1.4,1.5c0.2-0.4,0.4-1,0.6-1.8c0.3-1.5-0.3-1.7-0.3-1.7
					c-0.2-0.1-0.4-0.2-0.6-0.2c-1.7-0.6-4.6,3.1-5.1,3.6c0,0,0.1-0.3,0.2-0.7c0.1-0.3,0.2-0.5,0.3-0.8c0.1-0.1,0.1-0.3,0.2-0.4
					l0.1-0.4c0-0.1,0-0.1,0-0.2c0.2-0.6,0.3-1.4,0.1-1.6c-0.1-0.1-0.2-0.1-0.3-0.1c0,0,0,0,0,0c0,0-0.1,0-0.1,0c0,0-0.1,0-0.1,0
					c0,0-0.1,0-0.1,0c-0.1,0-0.2,0.1-0.2,0.1l0,0c0,0-0.1,0-0.1,0.1c0,0,0,0,0,0c-0.2,0.2-0.4,0.4-0.6,0.8c-0.2,0.3-0.6,0.8-0.9,1.2
					l0,0L77.8,87c-0.2,0.2-0.4,0.5-0.6,0.7l-1.4,1.6c0.1,0,0.1,0.1,0.2,0.1c0.1,0,0.1,0,0.1,0c0,0,0,0,0,0l2.4-2.7
					c0,0,0.3-0.2,0.2,0c-0.1,0.2-1.5,3.9-1.8,4.8c-0.3,1-0.4,1.2,0,1.5c0.4,0.2,0.7,0.5,1.1,0.2c0.2-0.1,0.6-1.2,1-2.2l0,0l0-0.1
					c0.2-0.6,0.5-1.1,0.8-1.5c0.1-0.1,0.1-0.2,0.2-0.2c0,0,2-2.5,3.1-2.8c0,0,0,0,0,0c0.1,0,0.1,0,0.2,0c0.9-0.2,0.7,0.3,0.5,1.2
					c0,0,0,0,0,0c-0.1,0.8-0.9,3.3-1.2,4.4c0,0-0.2,0.6-0.2,0.7c0.1,0.2,1.1,0.6,1.3,0.6c0.2,0,0.4-0.3,0.4-0.5c0-0.1,0.5-1.7,1-2.8
					c0,0,1.4-2.6,2.4-2.8c1-0.3,0.7,0.7,0.8,1.4c0,0,0,0,0,0c0,0.1,0,0.2,0,0.3c-0.1,1.1-0.6,3.3,0.6,3.8c1.3,0.7,4.2-2.8,4.2-2.8
					l0,0c0.2-0.2,0.4-0.4,0.6-0.6c0,0,0.1-0.1,0.1-0.1c0-0.1,0-0.2-0.1-0.2C94.1,88.4,94.4,87.7,93.6,88.7z"/>
				<path class="st8" d="M100.9,90.2c0,0,0.1,0,0.1,0c0.4-0.2,0.9-0.4,1.3-0.8c0,0,0-0.1,0-0.1c0,0,0-0.1-0.1-0.1c0,0,0,0-0.1,0
					c-0.1,0-0.2,0-0.3,0.1l-0.1,0c-0.3,0.3-0.5,0.4-0.8,0.5l-0.1,0c-0.1,0.1-0.2,0.1-0.4,0.2c-0.1,0-0.3,0.1-0.5,0.1h-0.2
					c-0.3,0-0.6-0.1-0.7-0.2c0.4-0.7,0.6-1.3,0.6-1.8c0.2-0.4,0.3-0.8,0.3-1v-0.3c0,0,0-0.1,0-0.1c0,0,0-0.1,0-0.2
					c0-0.5-0.1-0.8-0.3-1.1c0,0,0,0,0,0s-0.4-1.3-3-0.6c-1.8,0.5-2.9,2.6-3.4,3.8c-0.1,0.1-0.2,0.3-0.2,0.5c0,0.1-0.1,0.2-0.1,0.4
					c-0.1,0.4-0.2,0.8-0.2,1.3c0,1.6,0.7,2.4,2,2.4c0.7,0,1.3-0.2,1.8-0.6c1-0.7,1.6-1.6,1.9-2c0.1-0.1,0.1-0.1,0.2-0.3
					C98.8,90.3,99.7,90.6,100.9,90.2z M98.6,87c-0.7,0.2-0.9,0.6-0.9,1.5c0,0.6,0.3,1,0.5,1.2c0,0,0,0.1,0.1,0.1
					c-0.2,0.3-0.5,0.7-1,1.3c-1,1.2-1.8,1.2-1.9,1.2c-0.1,0-1,0-0.9-1.5c0-1.5,0.7-3,1.4-3.9c0.8-0.9,2.6-1.7,3.1-1.2
					c0.4,0.4,0.4,1.1,0.3,1.4C99.2,87.1,99,86.9,98.6,87z"/>
				<path class="st8" d="M109.1,84.8c-0.2-0.1-0.5-0.2-1-0.2c-0.3,0-0.4,0-0.6,0.1c-2.2,0.5-4,4-4.4,4.8c0,0-0.1,0-0.2-0.1
					c-0.1-0.2,0.1-1.8,0.3-2.4c0.2-0.7,0.6-1,0.6-1c0.1-0.1,0.1-0.2,0.2-0.2c0.2-0.1,0.4-0.3,0.6-0.6c0,0,0.1-0.1,0.1-0.1
					c0.1-0.1,0.2-0.1,0.2-0.2c0.1-0.1,0.3-0.3,0.6-0.6c1.3-1.3,3-3.1,3.9-4.7c0.9-1.7,1.1-2.9,0.8-3.7c0,0,0-0.2-0.2-0.5
					c0,0,0,0,0,0c0-0.1-0.1-0.1-0.1-0.1c-0.8-0.9-1.9-0.3-1.9-0.3l0,0c-0.8,0.3-1.9,1.1-2.9,3.3c-1.1,2.3-2.2,5-2.8,6.8
					c-0.2,0.7-0.5,1.9-0.8,3.1l0,0c0,0.5-0.1,0.9-0.2,1.4c0,0.4-0.1,0.9,0,1.2c0.1,1.2,0.2,1.8,0.3,2.1c0,0,0,0.1,0,0.1
					c0.2,0.2,0.5,0.3,0.9,0.3c0.1,0,0.2-0.1,0.2-0.2c0.1-0.1,0.1-0.3,0.1-0.6c0-0.3,0-0.6,0-0.9c0-0.1,0.1-0.2,0.1-0.3
					c0-0.2,0-0.3,0.1-0.4c0,0,1-2.3,2.5-3.8c1.4-1.5,2.4-1.4,2.8-1.1c0.4,0.3-0.5,3.8-1.1,5c0,0-0.1,0.2-0.3,0.5
					c-0.1,0.1-0.1,0.2-0.2,0.3c-0.1,0.1-0.2,0.2-0.3,0.4c0,0,0,0,0,0c0,0,0,0,0,0c-0.2,0.2-0.4,0.4-0.5,0.6
					c-0.6,0.4-1.4,0.8-1.5,0.2c-0.1-0.5,0.1-0.4,0.3-1.3c0.2-0.7-0.4-1-0.6-1.1c-0.2,0.2-0.6,0.8-0.8,1.3c-0.1,0.6,0,2.2,2.2,1.6
					c0.9-0.3,1.6-0.8,2.1-1.3c0.1-0.1,0.2-0.2,0.3-0.3c0,0,0.1-0.1,0.1-0.1c0.3-0.3,0.5-0.6,0.6-0.9c0,0,0.1-0.1,0.1-0.1
					c0.3-0.5,0.6-1,0.8-1.5c0,0,0,0,0,0c0,0,0,0,0,0c0.3-0.8,0.5-1.4,0.5-1.4s0.3-1.5-0.4-2.4C109.3,85.1,109.2,84.9,109.1,84.8z
					 M104,84.3c0.3-1.1,1.2-4.1,2.3-6.1c0.1-0.3,1.1-2,1.9-2.6c0.9-0.6,1.2-0.2,1.2,0.4c0,0,0,0,0,0c0,0.1,0,0.1,0,0.2
					c0.1,0.8,0,2-0.8,3.4c-0.1,0.1-0.2,0.3-0.2,0.4c0,0,0,0.1-0.1,0.1c-0.1,0.1-0.2,0.2-0.2,0.3c0,0-0.1,0.1-0.1,0.1
					c-0.1,0.2-0.3,0.4-0.4,0.6c0,0,0,0,0,0c-0.1,0.1-0.2,0.2-0.3,0.3c0,0,0,0,0,0c0,0,0,0.1-0.1,0.1c0,0,0,0,0,0.1
					c-0.3,0.4-0.6,0.7-0.9,1l0,0c-0.4,0.5-0.8,0.8-1,1.1c-0.2,0.3-0.4,0.4-0.5,0.5c-0.3,0.3-0.6,0.5-0.8,0.5c-0.1,0-0.1-0.1-0.1-0.2
					C103.9,84.7,103.9,84.5,104,84.3z"/>
			</g>
		</g>
	</g>
</g>
</svg>
