<?xml version="1.0" encoding="utf-8"?>
<!-- Generator: Adobe Illustrator 17.0.0, SVG Export Plug-In . SVG Version: 6.00 Build 0)  -->
<!DOCTYPE svg PUBLIC "-//W3C//DTD SVG 1.1//EN" "http://www.w3.org/Graphics/SVG/1.1/DTD/svg11.dtd">
<svg version="1.1" id="Слой_1" xmlns="http://www.w3.org/2000/svg" xmlns:xlink="http://www.w3.org/1999/xlink" x="0px" y="0px"
	 width="106px" height="52px" viewBox="0 0 106 52" enable-background="new 0 0 106 52" xml:space="preserve">
<g>
	<path fill-rule="evenodd" clip-rule="evenodd" fill="#949B9E" d="M1.345,24.997h7.11c3.254,0,5.688,0.826,7.302,2.479
		c1.307,1.322,1.96,2.988,1.96,4.996c0,1.831-0.435,3.356-1.307,4.577c-0.692,0.992-1.55,1.666-2.575,2.021
		c-0.231,0.051-0.346,0.165-0.346,0.343c0,0.153,0.064,0.356,0.192,0.61l4.804,10.298c0.077,0.203,0.115,0.382,0.115,0.534
		c0,0.559-0.308,0.839-0.922,0.839h-3.997c-0.564,0-0.961-0.114-1.191-0.343c-0.077-0.076-0.167-0.229-0.269-0.458l-4.574-9.917
		c-0.179-0.356-0.448-0.534-0.807-0.534h-0.73c-0.282,0-0.423,0.153-0.423,0.458v9.459c0,0.585-0.109,0.953-0.327,1.106
		c-0.218,0.153-0.557,0.229-1.019,0.229H1.345c-0.461,0-0.769-0.051-0.922-0.153C0.141,51.339,0,50.945,0,50.36V26.331
		c0-0.458,0.051-0.763,0.154-0.915C0.359,25.136,0.756,24.997,1.345,24.997L1.345,24.997z M5.688,30.527v4.653
		c0,0.382,0.179,0.572,0.538,0.572h1.806c1.076,0,1.934-0.267,2.575-0.801c0.641-0.534,0.961-1.246,0.961-2.136
		c0-0.814-0.243-1.475-0.73-1.983c-0.615-0.636-1.55-0.953-2.806-0.953H6.341C5.906,29.878,5.688,30.095,5.688,30.527L5.688,30.527z
		 M20.37,41.969v-7.247c0-2.543,0.333-4.526,0.999-5.95c1.281-2.721,3.741-4.081,7.379-4.081c3.408,0,5.778,1.221,7.11,3.662
		c0.845,1.551,1.268,3.674,1.268,6.369v7.247c0,2.517-0.333,4.488-0.999,5.912C34.846,50.627,32.387,52,28.748,52
		c-2.844,0-4.951-0.82-6.322-2.46S20.37,45.376,20.37,41.969L20.37,41.969z M31.439,41.321v-5.95c0-1.983-0.115-3.331-0.346-4.043
		c-0.359-1.119-1.14-1.678-2.344-1.678c-1.204,0-1.986,0.547-2.344,1.64c-0.23,0.712-0.346,2.072-0.346,4.081v5.95
		c0,1.983,0.115,3.331,0.346,4.043c0.359,1.119,1.14,1.678,2.344,1.678c1.204,0,1.986-0.547,2.344-1.64
		C31.323,44.69,31.439,43.329,31.439,41.321L31.439,41.321z M39.817,41.969v-7.247c0-2.543,0.333-4.526,0.999-5.95
		c1.281-2.721,3.741-4.081,7.379-4.081c3.408,0,5.778,1.221,7.11,3.662c0.845,1.551,1.268,3.674,1.268,6.369v7.247
		c0,2.517-0.333,4.488-0.999,5.912C54.294,50.627,51.834,52,48.196,52c-2.844,0-4.951-0.82-6.322-2.46
		C40.503,47.9,39.817,45.376,39.817,41.969L39.817,41.969z M50.886,41.321v-5.95c0-1.983-0.115-3.331-0.346-4.043
		c-0.359-1.119-1.14-1.678-2.345-1.678c-1.204,0-1.986,0.547-2.344,1.64c-0.23,0.712-0.346,2.072-0.346,4.081v5.95
		c0,1.983,0.115,3.331,0.346,4.043c0.359,1.119,1.14,1.678,2.344,1.678c1.204,0,1.986-0.547,2.345-1.64
		C50.771,44.69,50.886,43.329,50.886,41.321L50.886,41.321z M70.756,38.04V26.331c0-0.458,0.051-0.763,0.154-0.915
		c0.205-0.28,0.602-0.42,1.191-0.42h2.883c0.589,0,0.961,0.108,1.115,0.324c0.154,0.216,0.231,0.553,0.231,1.011V50.36
		c0,0.458-0.051,0.763-0.154,0.915c-0.205,0.28-0.602,0.42-1.192,0.42h-2.46c-0.461,0-0.781-0.076-0.961-0.229
		c-0.077-0.051-0.179-0.229-0.307-0.534L65.03,37.316V50.36c0,0.585-0.109,0.953-0.327,1.106c-0.218,0.153-0.557,0.229-1.019,0.229
		h-2.882c-0.461,0-0.769-0.051-0.923-0.153c-0.282-0.203-0.423-0.597-0.423-1.182V26.331c0-0.458,0.051-0.763,0.154-0.915
		c0.205-0.28,0.602-0.42,1.192-0.42H63.8c0.692,0,1.166,0.305,1.422,0.915L70.756,38.04L70.756,38.04z M79.404,50.36V26.331
		c0-0.458,0.051-0.763,0.154-0.915c0.205-0.28,0.602-0.42,1.192-0.42h2.998c0.589,0,0.961,0.108,1.115,0.324
		c0.154,0.216,0.231,0.553,0.231,1.011V50.36c0,0.585-0.109,0.953-0.327,1.106c-0.218,0.153-0.557,0.229-1.019,0.229h-2.998
		c-0.461,0-0.769-0.051-0.923-0.153C79.545,51.339,79.404,50.945,79.404,50.36L79.404,50.36z M89.204,24.997h3.805
		c0.256,0,0.513,0.07,0.769,0.21c0.256,0.14,0.461,0.388,0.615,0.744l1.883,4.348c0.128,0.254,0.231,0.382,0.308,0.382
		c0.179-0.153,0.269-0.254,0.269-0.305l2.306-4.73c0.077-0.152,0.154-0.267,0.231-0.343c0.205-0.203,0.513-0.305,0.922-0.305h4.074
		c0.564,0,0.846,0.229,0.846,0.687c0,0.178-0.051,0.356-0.154,0.534l-5.112,10.565c-0.051,0.102-0.064,0.229-0.039,0.381
		c0.026,0.153,0.077,0.318,0.154,0.496l5.765,12.777c0.103,0.203,0.154,0.407,0.154,0.61c0,0.432-0.256,0.648-0.769,0.648h-3.92
		c-0.359,0-0.602-0.038-0.73-0.114c-0.256-0.153-0.487-0.458-0.692-0.915l-3.113-6.408c-0.128-0.203-0.218-0.305-0.269-0.305
		c-0.102,0.025-0.218,0.152-0.346,0.381l-2.883,6.217c-0.154,0.33-0.295,0.559-0.423,0.687c-0.282,0.305-0.615,0.458-0.999,0.458
		h-4.112c-0.487,0-0.73-0.229-0.73-0.687c0-0.153,0.051-0.356,0.154-0.61l5.919-12.663c0.128-0.254,0.192-0.47,0.192-0.649
		c0-0.102-0.026-0.203-0.077-0.305c-0.051-0.102-0.09-0.191-0.115-0.267l-4.574-10.412c-0.077-0.153-0.115-0.305-0.115-0.458
		C88.397,25.213,88.666,24.997,89.204,24.997z"/>
	<path fill-rule="evenodd" clip-rule="evenodd" fill="#949B9E" d="M83.181,0.706l-0.166,3.32c-0.018,0.36-0.325,0.64-0.687,0.621
		l-0.264-0.014c-0.363-0.019-0.652-0.33-0.634-0.691l0.166-3.32c0.018-0.361,0.324-0.64,0.688-0.621l0.264,0.014
		C82.911,0.034,83.199,0.346,83.181,0.706z"/>
	<path fill-rule="evenodd" clip-rule="evenodd" fill="#949B9E" d="M90.573,9.496l2.235-2.527c0.238-0.269,0.211-0.682-0.06-0.918
		L92.55,5.879c-0.271-0.236-0.687-0.209-0.925,0.06L89.39,8.465c-0.238,0.269-0.211,0.682,0.06,0.918l0.197,0.172
		C89.919,9.791,90.335,9.765,90.573,9.496z"/>
	<path fill-rule="evenodd" clip-rule="evenodd" fill="#949B9E" d="M90.573,15.978l2.235,2.527c0.238,0.269,0.211,0.682-0.06,0.918
		l-0.197,0.172c-0.271,0.236-0.687,0.209-0.925-0.06l-2.235-2.527c-0.238-0.269-0.211-0.682,0.06-0.918l0.197-0.172
		C89.919,15.682,90.335,15.709,90.573,15.978z"/>
	<path fill-rule="evenodd" clip-rule="evenodd" fill="#949B9E" d="M73.862,9.496l-2.235-2.527c-0.238-0.269-0.211-0.682,0.06-0.918
		l0.197-0.172c0.271-0.236,0.687-0.209,0.925,0.06l2.235,2.527c0.238,0.269,0.211,0.682-0.06,0.918l-0.197,0.172
		C74.516,9.791,74.1,9.765,73.862,9.496z"/>
	<path fill-rule="evenodd" clip-rule="evenodd" fill="#949B9E" d="M73.862,15.978l-2.235,2.527c-0.238,0.269-0.211,0.682,0.06,0.918
		l0.197,0.172c0.271,0.236,0.687,0.209,0.925-0.06l2.235-2.527c0.238-0.269,0.211-0.682-0.06-0.918l-0.197-0.172
		C74.516,15.682,74.1,15.709,73.862,15.978z"/>
	<path fill-rule="evenodd" clip-rule="evenodd" fill="#949B9E" d="M82.31,21.896l-2.671,0.002l-0.201-0.299
		c-0.267-0.42-0.351-0.879-0.443-1.432c-0.082-0.548-0.13-1.169-0.169-1.788c-0.002-0.156-0.147-0.636-0.388-1.129
		c-0.239-0.5-0.566-1.049-0.899-1.485c-0.317-0.417-0.528-0.84-0.671-1.189c-0.3-0.702-0.466-1.476-0.466-2.285
		c0-3.238,2.645-5.862,5.907-5.862c3.263,0,5.907,2.624,5.908,5.862c0,0.809-0.166,1.583-0.466,2.285
		c-0.143,0.349-0.354,0.772-0.671,1.189c-0.333,0.436-0.66,0.985-0.899,1.485c-0.242,0.492-0.386,0.973-0.388,1.129
		c-0.039,0.618-0.088,1.24-0.17,1.788c-0.091,0.553-0.176,1.012-0.443,1.432l-0.201,0.3L82.31,21.896L82.31,21.896z M79.09,9.097
		L79.09,9.097c-0.825,0.82-1.333,1.945-1.334,3.195c0,0.63,0.129,1.226,0.362,1.769l0.003,0.008l0.001,0.003
		c0.109,0.269,0.272,0.59,0.496,0.884c0.4,0.526,0.763,1.137,1.042,1.719c0.276,0.591,0.477,1.117,0.517,1.621
		c0.038,0.603,0.086,1.197,0.157,1.674c0.03,0.226,0.075,0.43,0.118,0.585l1.857-0.001l1.856,0.001
		c0.043-0.155,0.088-0.359,0.118-0.585c0.072-0.477,0.12-1.071,0.157-1.674c0.039-0.504,0.24-1.03,0.517-1.621
		c0.279-0.582,0.642-1.193,1.042-1.719c0.224-0.293,0.387-0.615,0.496-0.884l0.002-0.006l0.003-0.005
		c0.233-0.543,0.362-1.139,0.362-1.769c0-1.25-0.509-2.375-1.334-3.195c-0.827-0.819-1.96-1.323-3.22-1.324
		C81.05,7.773,79.916,8.278,79.09,9.097z"/>
	<path fill-rule="evenodd" clip-rule="evenodd" fill="#949B9E" d="M83.981,13.926c0.275-0.525,0.364-0.972,0.364-1.359
		c0-0.503-0.157-0.92-0.329-1.228c-0.171-0.306-0.357-0.495-0.375-0.512l0.003,0.003c0,0-0.213-0.145,0.227-0.624
		c0.53-0.576,0.701-0.355,0.701-0.355c0.032,0.031,0.303,0.287,0.577,0.747c0.272,0.458,0.551,1.133,0.551,1.97
		c0.001,0.601-0.148,1.278-0.518,1.981c0,0-0.164,0.199-0.761-0.134C83.879,14.111,83.981,13.926,83.981,13.926z"/>
</g>
</svg>
