<?xml version="1.0" encoding="utf-8"?>
<!DOCTYPE svg PUBLIC "-//W3C//DTD SVG 1.1//EN" "http://www.w3.org/Graphics/SVG/1.1/DTD/svg11.dtd">
<svg version="1.1" xmlns="http://www.w3.org/2000/svg" xmlns:xlink="http://www.w3.org/1999/xlink" x="0px" y="0px"
	 width="19px" height="19px" viewBox="-1.621 -1.586 19 19" enable-background="new -1.621 -1.586 19 19" xml:space="preserve">
		<path fill="#fff" d="M7.879,2.973c-2.681,0-4.902,2.182-4.902,4.904c0,2.72,2.183,4.902,4.902,4.902s4.903-2.222,4.903-4.902
			C12.782,5.194,10.561,2.973,7.879,2.973z M7.879,11.017c-1.724,0-3.141-1.418-3.141-3.14c0-1.725,1.418-3.141,3.141-3.141
			s3.141,1.418,3.141,3.141C11.02,9.599,9.603,11.017,7.879,11.017z M12.973,1.746c-0.614,0-1.11,0.497-1.11,1.112
			c0,0.613,0.497,1.11,1.11,1.11c0.615,0,1.112-0.497,1.112-1.11C14.084,2.243,13.588,1.746,12.973,1.746z M15.847-0.015
			c-0.996-1.035-2.414-1.571-4.023-1.571H3.933c-3.331,0-5.553,2.222-5.553,5.554v7.854c0,1.647,0.535,3.065,1.608,4.098
			c1.033,0.996,2.414,1.493,3.985,1.493h7.814c1.647,0,3.026-0.535,4.022-1.493c1.033-0.996,1.571-2.414,1.571-4.061V3.968
			C17.379,2.36,16.842,0.982,15.847-0.015z M15.693,11.86h-0.076c0,1.187-0.345,2.145-1.033,2.797
			c-0.69,0.651-1.647,0.995-2.796,0.995H3.973c-1.149,0-2.107-0.345-2.796-0.995c-0.69-0.69-1.034-1.648-1.034-2.834V3.968
			c0-1.149,0.345-2.107,1.034-2.796c0.651-0.652,1.647-0.996,2.796-0.996h7.891c1.149,0,2.106,0.345,2.796,1.035
			c0.651,0.689,1.033,1.647,1.033,2.757C15.693,3.968,15.693,11.86,15.693,11.86z"/>
</svg>
