<?xml version="1.0" encoding="utf-8"?>
<!DOCTYPE svg PUBLIC "-//W3C//DTD SVG 1.1//EN" "http://www.w3.org/Graphics/SVG/1.1/DTD/svg11.dtd">
<svg version="1.1" xmlns="http://www.w3.org/2000/svg" xmlns:xlink="http://www.w3.org/1999/xlink" x="0px" y="0px"
	 width="19px" height="11px" viewBox="0 0 19 11" enable-background="new 0 0 19 11" xml:space="preserve">
<path fill="#fff" d="M18.859,0.844c-0.235-0.197-1.148-0.189-2.051-0.185c-0.925,0.005-1.842,0.011-2.053,0.093
	c-0.195,0.076-0.639,1.129-1.211,2.215c-0.65,1.226-1.453,2.405-1.961,2.398c-0.656-0.011-0.506-2.028-0.466-3.507
	c0.026-0.981-0.135-1.288-0.282-1.385c-0.35-0.231-1.304-0.46-1.304-0.46S6.675-0.201,6.266,1.029C6.81,1.1,7.748,0.927,7.386,4.719
	C7.367,4.903,6.948,6.467,5.613,4.351C5.282,3.828,4.001,0.672,3.56,0.66c-1.48-0.04-2.932-0.1-3.451,0.185
	c-0.472,0.26,0.64,2.442,2.519,5.351c1.537,2.378,3.163,4.237,5.97,4.706c0.525,0.051,1.907,0.114,2.333-0.092
	c0.297-0.143-0.064-2.207,0.933-2.399c0.448-0.087,2.15,2.143,2.799,2.399c0.392,0.154,1.26,0.211,2.146,0.185
	c0.957-0.031,2.04,0.083,2.144-0.554c0.235-1.424-2.891-3.273-2.984-4.153c-0.069-0.631,1.143-1.793,1.773-2.675
	C18.507,2.537,19.337,1.243,18.859,0.844z"/>
</svg>
