<?xml version="1.0" encoding="utf-8"?>
<!-- Generator: Adobe Illustrator 16.0.1, SVG Export Plug-In . SVG Version: 6.00 Build 0)  -->
<!DOCTYPE svg PUBLIC "-//W3C//DTD SVG 1.1//EN" "http://www.w3.org/Graphics/SVG/1.1/DTD/svg11.dtd">
<svg version="1.1" id="Слой_1" xmlns="http://www.w3.org/2000/svg" xmlns:xlink="http://www.w3.org/1999/xlink" x="0px" y="0px"
	 width="62.885px" height="38.834px" viewBox="0 0 62.885 38.834" enable-background="new 0 0 62.885 38.834" xml:space="preserve">
<g>
	<path fill="#343449" d="M62.359,20.759l-7.782-4.2l1.999-9.25c0.064-0.295-0.01-0.604-0.199-0.839S55.9,6.098,55.599,6.098h-9.671
		l0.903-4.917c0.054-0.292-0.024-0.593-0.215-0.82C46.426,0.132,46.145,0,45.848,0H17.042c-0.482,0-0.896,0.345-0.983,0.819
		l-1.12,6.098c-0.101,0.543,0.26,1.064,0.803,1.164c0.55,0.105,1.064-0.26,1.164-0.803L17.875,2h26.771l-5.354,29.145H25.615
		c-0.479-1.824-1.747-3.263-3.482-3.628c-0.282-0.06-0.57-0.09-0.859-0.09c-2.064,0-3.953,1.515-4.778,3.718h-3.975l2.229-12.133
		c0.101-0.543-0.259-1.064-0.803-1.164c-0.543-0.102-1.064,0.26-1.164,0.803l-2.446,13.313c-0.053,0.292,0.025,0.593,0.215,0.82
		c0.191,0.229,0.473,0.36,0.77,0.36h4.758c-0.064,1.12,0.146,2.216,0.632,3.161c0.667,1.298,1.753,2.165,3.06,2.439
		c0.281,0.06,0.57,0.089,0.857,0.089c2.361,0,4.492-1.979,5.066-4.705c0.07-0.331,0.102-0.659,0.121-0.984h14.311
		c0.044,0,0.083-0.017,0.125-0.022c0.035,0.004,0.065,0.022,0.1,0.022h4.473c-0.152,2.706,1.358,5.111,3.686,5.601
		c0.281,0.06,0.57,0.089,0.857,0.089c2.361,0,4.492-1.979,5.066-4.705c0.07-0.331,0.102-0.659,0.121-0.984h5.361
		c0.481,0,0.895-0.343,0.982-0.815l1.971-10.506C62.947,21.396,62.742,20.965,62.359,20.759z M23.736,33.717
		c-0.414,1.968-2.043,3.386-3.555,3.071c-0.705-0.148-1.307-0.645-1.693-1.396c-0.422-0.822-0.536-1.833-0.322-2.848
		c0.373-1.777,1.71-3.117,3.107-3.117c0.15,0,0.301,0.016,0.447,0.047C23.256,29.797,24.16,31.7,23.736,33.717z M52.634,16.082
		h-8.315l1.467-7.984h8.574L52.634,16.082z M52.475,33.717c-0.414,1.968-2.043,3.383-3.555,3.071
		c-1.536-0.323-2.44-2.228-2.016-4.244c0.373-1.777,1.71-3.117,3.108-3.117c0.149,0,0.3,0.016,0.446,0.047
		c1.053,0.222,1.797,1.193,2.031,2.429c-0.021,0.079-0.049,0.156-0.049,0.242c0,0.166,0.051,0.316,0.122,0.455
		C52.574,32.963,52.555,33.335,52.475,33.717z M59.084,31.145h-4.73c-0.479-1.824-1.747-3.263-3.482-3.628
		c-0.281-0.06-0.57-0.09-0.858-0.09c-2.065,0-3.954,1.515-4.779,3.718h-3.683l2.399-13.063h9.238l7.578,4.09L59.084,31.145z"/>
	<path fill="#343449" d="M6.816,10.631h21.768c0.552,0,1-0.447,1-1s-0.448-1-1-1H6.816c-0.552,0-1,0.447-1,1
		S6.265,10.631,6.816,10.631z"/>
	<path fill="#343449" d="M3.627,8.631H1c-0.552,0-1,0.447-1,1s0.448,1,1,1h2.627c0.553,0,1-0.447,1-1S4.18,8.631,3.627,8.631z"/>
	<path fill="#343449" d="M9.068,13.259c-0.553,0-1,0.447-1,1s0.447,1,1,1h10.883c0.552,0,1-0.447,1-1s-0.448-1-1-1H9.068z"/>
	<path fill="#343449" d="M9.318,17.621H5.94c-0.552,0-1,0.447-1,1s0.448,1,1,1h3.378c0.552,0,1-0.447,1-1S9.87,17.621,9.318,17.621z
		"/>
</g>
</svg>
