<?xml version="1.0" encoding="utf-8"?>
<!-- Generator: Adobe Illustrator 16.0.1, SVG Export Plug-In . SVG Version: 6.00 Build 0)  -->
<!DOCTYPE svg PUBLIC "-//W3C//DTD SVG 1.1//EN" "http://www.w3.org/Graphics/SVG/1.1/DTD/svg11.dtd">
<svg version="1.1" id="Слой_1" xmlns="http://www.w3.org/2000/svg" xmlns:xlink="http://www.w3.org/1999/xlink" x="0px" y="0px"
	 width="32.859px" height="42.821px" viewBox="0 0 32.859 42.821" enable-background="new 0 0 32.859 42.821" xml:space="preserve">
<path fill="#343449" d="M31.859,12.311H21.48c5.268-1.833,7.858-5.172,7.673-8.143c-0.162-2.598-2.355-4.307-5.524-4.159
	c-4.087,0.187-6.152,3.348-7.199,6.438c-1.046-3.09-3.111-6.251-7.199-6.438C6.082-0.135,3.869,1.57,3.707,4.168
	c-0.186,2.971,2.406,6.31,7.672,8.143H1c-0.553,0-1,0.447-1,1v6.331c0,0.553,0.447,1,1,1h11.2l-8.42,1.029
	c-0.548,0.066-0.938,0.565-0.871,1.113L5.25,41.942c0.063,0.507,0.493,0.879,0.991,0.879c0.04,0,0.081-0.002,0.122-0.008
	l24.716-3.019c0.264-0.031,0.503-0.167,0.667-0.376c0.163-0.209,0.236-0.475,0.204-0.737l-2.204-18.04h2.113c0.553,0,1-0.447,1-1
	v-6.331C32.859,12.758,32.412,12.311,31.859,12.311z M7.114,40.707l-1.37-11.213l-0.729-5.96l22.73-2.778l2.098,17.176L7.114,40.707
	z M23.72,2.007C23.816,2.002,23.911,2,24.004,2c1.856,0,3.065,0.879,3.153,2.292c0.132,2.115-2.423,5.754-9.711,7
	C17.733,8.591,18.918,2.226,23.72,2.007z M5.703,4.292C5.791,2.879,7,2,8.856,2c0.093,0,0.188,0.002,0.284,0.007
	c4.802,0.219,5.986,6.584,6.272,9.285C8.125,10.046,5.571,6.407,5.703,4.292z M30.859,18.642H2v-4.331h28.859V18.642z"/>
</svg>
