<?xml version="1.0" encoding="utf-8"?>
<!-- Generator: Adobe Illustrator 16.0.1, SVG Export Plug-In . SVG Version: 6.00 Build 0)  -->
<!DOCTYPE svg PUBLIC "-//W3C//DTD SVG 1.1//EN" "http://www.w3.org/Graphics/SVG/1.1/DTD/svg11.dtd">
<svg version="1.1" id="Слой_1" xmlns="http://www.w3.org/2000/svg" xmlns:xlink="http://www.w3.org/1999/xlink" x="0px" y="0px"
	 width="34.566px" height="34.566px" viewBox="0 0 34.566 34.566" enable-background="new 0 0 34.566 34.566" xml:space="preserve">
<g>
	<g>
		<g>
			<path fill="#343449" d="M17.283,34.566c-2.017,0-3.839-1.683-5.189-4.766c-3.13,1.226-5.616,1.122-7.032-0.297
				c-1.422-1.421-1.52-3.896-0.296-7.032C1.683,21.122,0,19.301,0,17.283c0-2.019,1.683-3.839,4.766-5.189
				C3.542,8.958,3.64,6.483,5.063,5.062c1.414-1.416,3.9-1.521,7.03-0.295C13.444,1.683,15.267,0,17.283,0s3.839,1.683,5.189,4.766
				c3.131-1.226,5.616-1.122,7.032,0.297c1.422,1.42,1.52,3.896,0.296,7.031c3.083,1.35,4.766,3.17,4.766,5.189
				c0,2.018-1.684,3.839-4.768,5.188c1.226,3.135,1.13,5.61-0.296,7.033c-0.76,0.762-1.818,1.149-3.143,1.149l0,0
				c-1.137,0-2.441-0.287-3.888-0.853C21.122,32.884,19.3,34.566,17.283,34.566z M12.64,27.482c0.129,0,0.26,0.025,0.383,0.076
				c0.256,0.106,0.457,0.314,0.554,0.574c1.036,2.776,2.422,4.434,3.707,4.434s2.671-1.657,3.707-4.434
				c0.097-0.26,0.298-0.468,0.554-0.574c0.256-0.106,0.547-0.102,0.799,0.014c1.549,0.707,2.938,1.08,4.018,1.081l0,0
				c0.774,0,1.355-0.189,1.729-0.563c0.907-0.906,0.713-3.055-0.518-5.749c-0.115-0.252-0.121-0.542-0.014-0.798
				c0.105-0.256,0.314-0.458,0.574-0.554c2.777-1.035,4.435-2.42,4.435-3.706c0-1.287-1.657-2.671-4.432-3.706
				c-0.261-0.097-0.468-0.297-0.575-0.554c-0.105-0.256-0.101-0.545,0.015-0.798c1.229-2.695,1.422-4.844,0.517-5.748
				c-0.896-0.898-3.088-0.697-5.748,0.516c-0.252,0.115-0.543,0.121-0.799,0.014c-0.256-0.106-0.457-0.314-0.554-0.574
				C19.954,3.657,18.568,2,17.283,2s-2.671,1.657-3.707,4.434c-0.097,0.26-0.298,0.468-0.554,0.574
				c-0.257,0.106-0.547,0.101-0.799-0.014C9.565,5.78,7.371,5.582,6.478,6.476C5.57,7.381,5.764,9.53,6.992,12.226
				c0.115,0.253,0.12,0.542,0.015,0.798c-0.107,0.256-0.314,0.457-0.575,0.554C3.657,14.612,2,15.997,2,17.283
				c0,1.286,1.657,2.671,4.433,3.706c0.26,0.097,0.467,0.298,0.574,0.554c0.105,0.256,0.101,0.545-0.015,0.798
				c-1.229,2.695-1.421,4.844-0.517,5.749c0.896,0.897,3.09,0.697,5.748-0.517C12.355,27.513,12.497,27.482,12.64,27.482z"/>
		</g>
		<g>
			<path fill="#343449" d="M17.284,21.404c-2.272,0-4.121-1.849-4.121-4.121c0-2.272,1.849-4.12,4.121-4.12
				c2.271,0,4.119,1.848,4.119,4.12C21.403,19.556,19.556,21.404,17.284,21.404z M17.284,15.163c-1.17,0-2.121,0.951-2.121,2.12
				c0,1.169,0.951,2.121,2.121,2.121c1.169,0,2.119-0.952,2.119-2.121C19.403,16.114,18.453,15.163,17.284,15.163z"/>
		</g>
	</g>
</g>
</svg>
