<?xml version="1.0" encoding="utf-8"?>
<!DOCTYPE svg PUBLIC "-//W3C//DTD SVG 1.1//EN" "http://www.w3.org/Graphics/SVG/1.1/DTD/svg11.dtd">
<svg version="1.1" id="Слой_1" xmlns="http://www.w3.org/2000/svg" xmlns:xlink="http://www.w3.org/1999/xlink" x="0px" y="0px" width="34.917px" height="34.917px" viewBox="0 0 34.917 34.917" enable-background="new 0 0 34.917 34.917" xml:space="preserve">
	<path fill="#343449" d="M27.713,34.917H7.204C3.231,34.917,0,31.686,0,27.713V7.204C0,3.231,3.231,0,7.204,0h20.509
			c3.972,0,7.204,3.231,7.204,7.204v20.509C34.917,31.686,31.685,34.917,27.713,34.917z M7.204,2C4.335,2,2,4.335,2,7.204v20.509
			c0,2.869,2.335,5.204,5.204,5.204h20.509c2.87,0,5.204-2.335,5.204-5.204V7.204C32.917,4.335,30.583,2,27.713,2H7.204z"/>
	<path fill="#343449" d="M17.459,25.07c-4.197,0-7.612-3.414-7.612-7.611s3.415-7.612,7.612-7.612
			c4.196,0,7.611,3.415,7.611,7.612S21.655,25.07,17.459,25.07z M17.459,11.847c-3.095,0-5.612,2.518-5.612,5.612
			c0,3.094,2.518,5.611,5.612,5.611s5.611-2.518,5.611-5.611C23.07,14.364,20.554,11.847,17.459,11.847z"/>
	<path fill="#343449" d="M8.475,8.564c-0.749,0-1.359-0.609-1.359-1.359s0.61-1.359,1.359-1.359s1.358,0.609,1.358,1.359
		S9.224,8.564,8.475,8.564z"/>
</svg>
