<?xml version="1.0" encoding="utf-8"?>
<!-- Generator: Adobe Illustrator 16.0.1, SVG Export Plug-In . SVG Version: 6.00 Build 0)  -->
<!DOCTYPE svg PUBLIC "-//W3C//DTD SVG 1.1//EN" "http://www.w3.org/Graphics/SVG/1.1/DTD/svg11.dtd">
<svg version="1.1" id="Слой_1" xmlns="http://www.w3.org/2000/svg" xmlns:xlink="http://www.w3.org/1999/xlink" x="0px" y="0px"
	 width="55.217px" height="32.086px" viewBox="0 0 55.217 32.086" enable-background="new 0 0 55.217 32.086" xml:space="preserve">
<g>
	<path fill="#343449" d="M55.081,19.796c0.196-0.672,0.19-1.407-0.091-2.104L48.656,2.016C48.162,0.791,46.99,0,45.67,0
		c-0.414,0-0.821,0.079-1.207,0.236l-24.668,9.965c-0.596,0.241-1.076,0.644-1.42,1.135c-0.141,0.118-0.26,0.261-0.318,0.449
		c-0.014,0.045-0.007,0.091-0.014,0.137c-0.326,0.761-0.361,1.646-0.027,2.473l6.332,15.677c0.286,0.706,0.802,1.261,1.438,1.61
		c0.043,0.036,0.076,0.082,0.127,0.11c0.12,0.068,0.249,0.101,0.378,0.115c0.331,0.113,0.682,0.179,1.046,0.179
		c0.414,0,0.82-0.079,1.207-0.235l24.668-9.964c0.734-0.298,1.288-0.844,1.63-1.497c0.096-0.106,0.178-0.227,0.221-0.374
		C55.084,19.943,55.076,19.87,55.081,19.796z M44.602,2.336l-8.014,14.167l-15.283-4.756L44.602,2.336z M28.16,29.849l4.653-8.225
		c0.272-0.48,0.103-1.091-0.378-1.362c-0.479-0.271-1.091-0.104-1.362,0.378l-4.888,8.639l-6.316-15.634
		c-0.034-0.085-0.036-0.175-0.051-0.264l16.946,5.273c0.099,0.03,0.198,0.045,0.297,0.045c0.353,0,0.689-0.188,0.87-0.508
		l8.797-15.551c0.023,0.043,0.056,0.079,0.074,0.125l6.315,15.633l-9.517-2.819c-0.529-0.16-1.086,0.145-1.243,0.675
		c-0.157,0.529,0.146,1.086,0.675,1.243l9.063,2.685L28.16,29.849z"/>
	<path fill="#343449" d="M8.042,9.575h7.917c0.553,0,1-0.447,1-1s-0.447-1-1-1H8.042c-0.552,0-1,0.447-1,1S7.49,9.575,8.042,9.575z"
		/>
	<path fill="#343449" d="M16.625,18.732H8.042c-0.552,0-1,0.447-1,1s0.448,1,1,1h8.583c0.553,0,1-0.447,1-1
		S17.178,18.732,16.625,18.732z"/>
	<path fill="#343449" d="M14.292,14.406c0-0.553-0.448-1-1-1H1c-0.552,0-1,0.447-1,1s0.448,1,1,1h12.292
		C13.844,15.406,14.292,14.959,14.292,14.406z"/>
</g>
</svg>
