<svg width="44" height="44" viewBox="0 0 44 44" fill="none" xmlns="http://www.w3.org/2000/svg">
<path d="M16.5 27.5L27.5 16.5" stroke="#34B5E5" stroke-width="2.5" stroke-linecap="round" stroke-linejoin="round"/>
<path d="M17.4167 18.3333C17.9229 18.3333 18.3333 17.9229 18.3333 17.4167C18.3333 16.9104 17.9229 16.5 17.4167 16.5C16.9104 16.5 16.5 16.9104 16.5 17.4167C16.5 17.9229 16.9104 18.3333 17.4167 18.3333Z" fill="#34B5E5" stroke="#34B5E5" stroke-width="2.5" stroke-linecap="round" stroke-linejoin="round"/>
<path d="M26.5834 27.5C27.0896 27.5 27.5 27.0896 27.5 26.5834C27.5 26.0771 27.0896 25.6667 26.5834 25.6667C26.0771 25.6667 25.6667 26.0771 25.6667 26.5834C25.6667 27.0896 26.0771 27.5 26.5834 27.5Z" fill="#34B5E5" stroke="#34B5E5" stroke-width="2.5" stroke-linecap="round" stroke-linejoin="round"/>
<path d="M9.16666 13.2C9.16666 12.1303 9.5916 11.1044 10.348 10.348C11.1044 9.5916 12.1303 9.16666 13.2 9.16666H15.0333C16.0983 9.16605 17.1198 8.74426 17.875 7.99332L19.1583 6.70999C19.5331 6.33306 19.9788 6.03393 20.4696 5.82982C20.9604 5.62571 21.4868 5.52063 22.0183 5.52063C22.5499 5.52063 23.0762 5.62571 23.567 5.82982C24.0579 6.03393 24.5035 6.33306 24.8783 6.70999L26.1617 7.99332C26.9168 8.74426 27.9383 9.16605 29.0033 9.16666H30.8367C31.9064 9.16666 32.9323 9.5916 33.6887 10.348C34.4451 11.1044 34.87 12.1303 34.87 13.2V15.0333C34.8706 16.0983 35.2924 17.1198 36.0433 17.875L37.3267 19.1583C37.7036 19.5331 38.0027 19.9788 38.2068 20.4696C38.4109 20.9604 38.516 21.4868 38.516 22.0183C38.516 22.5499 38.4109 23.0762 38.2068 23.567C38.0027 24.0579 37.7036 24.5035 37.3267 24.8783L36.0433 26.1617C35.2924 26.9168 34.8706 27.9383 34.87 29.0033V30.8367C34.87 31.9064 34.4451 32.9323 33.6887 33.6887C32.9323 34.4451 31.9064 34.87 30.8367 34.87H29.0033C27.9383 34.8706 26.9168 35.2924 26.1617 36.0433L24.8783 37.3267C24.5035 37.7036 24.0579 38.0027 23.567 38.2068C23.0762 38.4109 22.5499 38.516 22.0183 38.516C21.4868 38.516 20.9604 38.4109 20.4696 38.2068C19.9788 38.0027 19.5331 37.7036 19.1583 37.3267L17.875 36.0433C17.1198 35.2924 16.0983 34.8706 15.0333 34.87H13.2C12.1303 34.87 11.1044 34.4451 10.348 33.6887C9.5916 32.9323 9.16666 31.9064 9.16666 30.8367V29.0033C9.16605 27.9383 8.74426 26.9168 7.99332 26.1617L6.70999 24.8783C6.33306 24.5035 6.03393 24.0579 5.82982 23.567C5.62571 23.0762 5.52063 22.5499 5.52063 22.0183C5.52063 21.4868 5.62571 20.9604 5.82982 20.4696C6.03393 19.9788 6.33306 19.5331 6.70999 19.1583L7.99332 17.875C8.74426 17.1198 9.16605 16.0983 9.16666 15.0333V13.2" stroke="#34B5E5" stroke-width="2.5" stroke-linecap="round" stroke-linejoin="round"/>
</svg>
