<svg width="44" height="44" viewBox="0 0 44 44" fill="none" xmlns="http://www.w3.org/2000/svg">
<path d="M12.8334 34.8333C14.8584 34.8333 16.5 33.1917 16.5 31.1667C16.5 29.1416 14.8584 27.5 12.8334 27.5C10.8083 27.5 9.16669 29.1416 9.16669 31.1667C9.16669 33.1917 10.8083 34.8333 12.8334 34.8333Z" stroke="#2F9367" stroke-width="2.5" stroke-linecap="round" stroke-linejoin="round"/>
<path d="M31.1667 34.8333C33.1917 34.8333 34.8333 33.1917 34.8333 31.1667C34.8333 29.1416 33.1917 27.5 31.1667 27.5C29.1416 27.5 27.5 29.1416 27.5 31.1667C27.5 33.1917 29.1416 34.8333 31.1667 34.8333Z" stroke="#2F9367" stroke-width="2.5" stroke-linecap="round" stroke-linejoin="round"/>
<path d="M9.16669 31.1667H5.50002V23.8334M3.66669 9.16669H23.8334V31.1667M16.5 31.1667H27.5M34.8334 31.1667H38.5V20.1667M38.5 20.1667H23.8334M38.5 20.1667L33 11H23.8334" stroke="#2F9367" stroke-width="2.5" stroke-linecap="round" stroke-linejoin="round"/>
<path d="M5.5 16.5H12.8333" stroke="#2F9367" stroke-width="2.5" stroke-linecap="round" stroke-linejoin="round"/>
</svg>
