<svg width="441" height="457" viewBox="0 0 441 457" fill="none" xmlns="http://www.w3.org/2000/svg">
<path d="M293.751 183.156C290.764 179.719 288.006 176.474 285.184 173.307C282.209 170.01 278.911 167.095 275.344 164.345C271.865 161.801 268.204 159.626 264.297 157.898C262.164 157.014 259.967 156.206 257.846 155.463C257.553 155.346 257.335 155.293 256.965 155.112C257.505 154.782 257.94 154.887 258.31 155.069C260.43 155.812 262.551 156.556 264.684 157.44C268.297 159.051 271.793 160.955 274.902 163.318C276.495 164.532 278.076 165.605 279.54 166.971C281.538 168.789 283.472 170.684 285.277 172.731C287.388 175.036 289.434 177.418 291.416 179.876C292.14 180.88 292.798 181.96 293.751 183.156Z" fill="black"/>
<path d="M318.87 109.22C306.073 118.178 293.2 127.072 281.914 137.96C282.201 137.155 282.858 136.532 283.438 135.844C286.324 133.046 289.44 130.441 292.555 127.836C297.471 123.872 302.54 120.038 307.774 116.473C311.195 114.126 314.692 111.844 318.19 109.562C318.395 109.473 318.665 109.308 318.87 109.22Z" fill="black"/>
<path d="M282.098 109.062C288.096 90.1764 288.896 71.0909 284.846 51.7054C289.255 71.1316 288.454 90.2171 282.098 109.062Z" fill="black"/>
<path d="M273.434 152.656C274.05 152.391 274.59 152.061 275.142 151.873C280.905 149.541 286.841 148.401 293.142 148.223C299.724 148.022 305.898 149.7 311.667 152.477C314.182 153.684 316.556 154.903 318.942 156.262C319.312 156.444 319.617 156.702 319.694 156.766C316.298 155.208 312.814 153.445 309.2 151.834C305.076 150.054 300.794 148.925 296.378 148.73C290.118 148.55 283.917 149.074 278.001 151.276C276.486 151.83 275.036 152.308 273.522 152.861C273.446 152.797 273.434 152.656 273.434 152.656Z" fill="black"/>
<path d="M339.458 83.2826C338.56 83.5714 337.674 84.0011 336.776 84.2899C331.604 86.075 326.621 88.412 322.209 91.6232C319.264 93.7171 316.407 96.0164 313.638 98.5211C312.775 99.2326 311.837 99.8796 310.974 100.591C309.584 101.773 308.282 103.16 306.815 104.278C307.859 103.196 308.903 102.114 309.947 101.033C310.927 100.027 311.906 99.0222 312.974 98.2224C314.429 96.964 315.896 95.8467 317.35 94.5883C320.736 91.8187 324.273 89.178 328.153 87.2182C331.557 85.5113 335.137 84.2154 338.73 83.0603C338.935 82.972 339.076 82.9601 339.293 83.0127C339.434 83.0008 339.446 83.1417 339.458 83.2826Z" fill="black"/>
<path d="M340.191 185.194C339.403 184.267 338.615 183.34 337.763 182.49C335.805 180.313 333.782 178.213 331.965 176.025C328.749 172.394 325.287 169.209 321.49 166.266C319.668 164.858 317.729 163.745 315.778 162.49C315.472 162.232 315.102 162.051 314.808 161.934C314.873 161.857 314.861 161.716 314.925 161.64C315.219 161.757 315.654 161.862 315.947 161.979C318.398 163.263 320.642 164.634 322.782 166.44C324.998 168.311 327.214 170.182 329.236 172.282C332.964 176.083 336.562 180.036 339.761 184.308C339.926 184.578 340.091 184.848 340.191 185.194C340.191 185.194 340.255 185.118 340.191 185.194Z" fill="black"/>
<path d="M322.871 126.339C329.486 123.155 336.329 120.164 342.69 116.504C345.801 114.68 348.822 112.651 351.527 110.222C352.055 109.752 352.571 109.141 353.175 108.735C352.63 109.845 351.715 110.774 350.788 111.562C347.814 114.155 344.51 116.208 341.118 118.056C335.414 121.093 329.545 123.859 323.564 126.138C323.358 126.227 323.153 126.315 322.871 126.339Z" fill="black"/>
<path d="M280.234 96.2338C279.995 97.6023 279.832 99.0352 279.593 100.404C278.414 106.606 277.094 112.82 274.687 118.772C273.217 122.373 271.442 125.716 269.232 128.954C268.405 130.089 267.514 131.299 266.611 132.369C266.353 132.675 265.942 132.852 265.595 132.952C266.422 131.817 267.249 130.683 268.075 129.549C270.813 125.84 272.888 121.833 274.58 117.503C276.805 111.922 278.02 106.143 279.235 100.363C279.474 98.9946 279.777 97.5496 280.017 96.1811C280.093 96.2457 280.093 96.2457 280.234 96.2338Z" fill="black"/>
<path d="M294.507 88.7833C295.157 77.1615 295.884 65.6041 292.371 54.263C292.512 54.2511 292.576 54.1747 292.717 54.1628C292.894 54.5737 293.071 54.9845 293.171 55.3309C294.39 58.8469 295.046 62.4106 295.291 66.1509C295.834 73.4142 295.737 80.6606 294.717 87.914C294.6 88.2077 294.547 88.4251 294.507 88.7833Z" fill="black"/>
<path d="M230.217 145.095C231.832 144.887 233.511 144.604 235.126 144.396C238.073 144.005 240.968 143.832 243.899 144.081C246.33 144.301 248.709 144.739 250.941 145.97C251.464 146.28 251.923 146.667 252.446 146.978C252.752 147.236 253.057 147.494 253.504 147.74C255.549 144.232 258.547 141.921 261.863 140.009C260.343 141.343 258.736 142.473 257.369 143.936C256.003 145.4 254.789 146.993 253.434 148.597C251.847 146.603 249.508 145.807 247.118 145.228C244.293 144.544 241.515 144.424 238.685 144.521C236.712 144.688 234.674 144.931 232.701 145.098C231.856 145.169 231.087 145.305 230.318 145.441C230.229 145.236 230.294 145.159 230.217 145.095Z" fill="black"/>
<path d="M289.708 108.42C289.046 109.824 288.537 111.357 287.799 112.697C285.285 117.38 282.618 121.934 279.046 125.855C277.099 128.006 274.835 129.758 272.329 131.177C271.853 131.43 271.39 131.824 270.65 131.46C270.843 131.231 270.972 131.078 271.113 131.066C274.171 129.46 276.822 127.249 279.092 124.715C282.47 121.024 284.955 116.84 287.352 112.451C288.09 111.111 288.817 109.63 289.555 108.291C289.632 108.355 289.632 108.355 289.708 108.42Z" fill="black"/>
<path d="M282.176 141.06C293.057 135.457 303.861 129.79 314.742 124.187C314.818 124.252 314.83 124.393 314.83 124.393C304.448 130.024 293.991 135.591 283.432 140.812C283.022 140.989 282.675 141.089 282.188 141.201L282.176 141.06Z" fill="black"/>
<path d="M230.941 89.8246C231.806 90.8161 232.734 91.7311 233.458 92.7344C235.528 95.398 237.815 98.1143 239.551 101.019C243.111 107.034 246.271 113.366 247.917 120.253C248.13 121.086 248.201 121.932 248.132 122.789C246.621 116.672 244.354 110.832 241.47 105.257C238.586 99.6812 234.828 94.6765 230.941 89.8246Z" fill="black"/>
<path d="M271.512 48.4322C271.6 48.6376 271.677 48.7021 271.689 48.8431C270.806 52.6786 271.051 56.4189 271.232 60.2357C271.424 64.1933 271.834 68.2036 272.167 72.1493C272.179 72.2902 272.191 72.4311 271.998 72.6604C271.874 72.0322 271.75 71.404 271.702 70.8403C270.856 65.0219 270.356 59.1033 270.496 53.2016C270.553 52.2033 270.675 51.1285 270.798 50.0538C270.75 49.4901 270.92 48.979 271.512 48.4322Z" fill="black"/>
<path d="M257.24 164.243C258.45 165.134 259.35 166.548 260.25 167.962C263.433 172.873 266.011 178.191 268.307 183.532C269.632 186.613 270.816 189.707 272.076 192.864C272.176 193.211 272.353 193.622 272.389 194.044C268.037 183.697 263.75 173.272 257.24 164.243Z" fill="black"/>
<path d="M334.189 112.468C340.648 107.451 347.59 103.104 353.174 96.9551C353.25 97.0196 353.326 97.0842 353.403 97.1487C353.209 97.3779 353.092 97.6716 352.899 97.9009C350.923 100.552 348.4 102.61 345.724 104.539C342.175 107.039 338.484 109.55 334.934 112.05C334.729 112.138 334.459 112.303 334.189 112.468Z" fill="black"/>
<path d="M306.142 147.551C296.099 146.27 286.163 146.258 276.661 150.538C276.585 150.474 276.573 150.333 276.573 150.333C276.907 150.092 277.177 149.927 277.588 149.75C281.697 147.984 285.876 147.063 290.309 146.618C295.165 146.136 299.887 146.589 304.697 147.247C305.132 147.352 305.707 147.446 306.142 147.551Z" fill="black"/>
<path d="M260.552 184.968C258.399 177.131 257.286 168.993 253.878 161.404C253.942 161.328 254.083 161.316 254.147 161.239C254.389 161.574 254.63 161.908 254.73 162.255C255.854 164.643 256.773 167.12 257.346 169.698C258.379 174.365 259.412 179.032 260.38 183.776C260.557 184.187 260.592 184.609 260.552 184.968Z" fill="black"/>
<path d="M281.84 175.718C280.023 173.53 278.218 171.483 276.412 169.435C273.819 166.461 270.827 163.804 267.718 161.441C266.278 160.357 264.645 159.501 263.064 158.428C263.358 158.545 263.716 158.586 264.01 158.703C265.502 159.571 266.995 160.438 268.423 161.382C269.404 162.079 270.527 162.765 271.379 163.616C275.147 167.058 278.516 170.819 281.498 175.037C281.587 175.243 281.675 175.448 281.84 175.718Z" fill="black"/>
<path d="M268.767 195.699C270.571 201.933 271.824 208.356 272.782 214.661C272.954 215.853 272.954 215.853 272.538 216.811C271.291 209.607 270.067 202.685 268.767 195.699Z" fill="black"/>
<path d="M311.25 197.929C310.108 196.18 309.466 194.46 308.631 192.969C307.783 191.338 306.859 189.642 305.947 188.087C305.036 186.532 304.047 184.912 303.135 183.357C302.159 181.878 301.106 180.335 300.282 178.986C302.627 180.703 310.988 194.828 311.25 197.929Z" fill="black"/>
<path d="M346.613 121.779C338.957 127.748 329.835 130.647 320.789 133.611C329.658 130.236 338.704 127.272 346.613 121.779Z" fill="black"/>
<path d="M322.564 94.1479C329.053 88.6323 336.236 84.6193 344.531 82.8541C344.608 82.9186 344.62 83.0595 344.62 83.0595C342.002 83.9903 339.372 84.7802 336.766 85.8519C334.236 86.9881 331.783 88.1888 329.342 89.5305C327.118 90.9247 324.917 92.6008 322.564 94.1479Z" fill="black"/>
<path d="M272.671 111.704C272.618 111.921 272.642 112.203 272.589 112.42C271.116 118.506 269.144 124.562 266.356 130.191C265.94 131.149 265.307 132.054 264.673 132.959C264.363 133.482 263.887 133.735 263.424 134.129C263.348 134.064 263.271 134 263.195 133.935C263.259 133.859 263.312 133.641 263.376 133.565C264.614 132.254 265.481 130.762 266.196 129.14C268.868 123.805 270.658 118.119 272.231 112.38C272.348 112.086 272.389 111.728 272.441 111.51C272.594 111.639 272.671 111.704 272.671 111.704Z" fill="black"/>
<path d="M342.434 154.632C342.282 154.503 342.064 154.451 341.911 154.322C339.76 152.375 337.245 151.168 334.602 150.114C331.447 148.89 328.369 147.731 325.226 146.648C325.367 146.636 325.507 146.624 325.725 146.677C330.506 147.834 335.041 149.438 339.354 151.77C340.171 152.198 340.859 152.779 341.611 153.283C341.993 153.605 342.31 154.004 342.704 154.468C342.563 154.48 342.499 154.556 342.434 154.632Z" fill="black"/>
<path d="M264.04 216.18C265.703 222.426 266.955 228.849 269.863 234.706C269.799 234.783 269.734 234.859 269.734 234.859C269.581 234.73 269.287 234.613 269.199 234.408C268.681 233.316 268.087 232.16 267.71 231.056C266.731 227.875 265.894 224.681 265.056 221.488C264.732 220.167 264.472 218.769 264.288 217.437C264.035 216.961 264.064 216.462 264.04 216.18Z" fill="black"/>
<path d="M253.41 142.426C253.398 142.285 253.309 142.079 253.362 141.862C253.294 138.533 251.723 135.898 249.395 133.54C246.837 130.988 243.542 129.777 240.117 128.718C239.823 128.6 239.529 128.483 239.159 128.302C241.908 128.921 244.528 129.693 246.926 131.194C249.476 132.823 251.704 134.835 252.94 137.711C253.547 139.008 253.871 140.329 253.708 141.762C253.656 141.979 253.603 142.196 253.551 142.414C253.551 142.414 253.486 142.49 253.41 142.426Z" fill="black"/>
<path d="M276.201 200.535C275.581 197.394 274.973 194.394 273.736 191.518C272.5 188.642 271.199 185.842 269.974 183.107C272.827 187.479 276.931 196.57 276.201 200.535Z" fill="black"/>
<path d="M235.206 131.9C229.187 132.054 223.18 132.348 217.528 135.167C217.815 134.363 217.815 134.363 218.431 134.098C220.433 133.432 222.358 132.702 224.384 132.318C227.665 131.685 230.918 131.553 234.272 131.766C234.63 131.807 234.847 131.859 235.206 131.9Z" fill="black"/>
<path d="M219.659 67.9988C225.353 70.7111 229.703 75.169 233.59 80.0209C232.127 78.6544 230.651 77.1469 229.187 75.7803C227.647 74.3493 226.107 72.9182 224.502 71.5635C222.974 70.2734 221.123 69.3653 219.659 67.9988Z" fill="black"/>
<path d="M339 165.212C343.854 168.918 348.116 173.17 351.399 178.428C350.9 178.399 350.659 178.065 350.418 177.73C348.565 175.119 346.519 172.738 344.267 170.444C342.562 168.743 340.793 167.119 339.011 165.353L339 165.212C339 165.212 338.923 165.148 339 165.212Z" fill="black"/>
<path d="M292.03 172.019C289.455 170.107 286.845 167.773 283.989 165.886C281.133 163.998 278.16 162.404 275.034 160.681C279.328 161.951 290.612 169.513 292.03 172.019Z" fill="black"/>
<path d="M253.994 155.221C253.222 157.84 251.685 159.815 249.55 161.415C246.939 163.268 243.998 164.581 240.869 165.342C241.139 165.177 241.485 165.077 241.691 164.988C243.939 163.876 246.263 162.828 248.358 161.587C250.453 160.345 252.142 158.499 253.155 156.214C253.337 155.844 253.518 155.474 253.7 155.103C253.841 155.092 253.917 155.156 253.994 155.221Z" fill="black"/>
<path d="M242.698 121.474C241.394 121.159 240.348 120.537 239.484 119.546C238.632 118.695 237.779 117.845 236.991 116.918C235.263 114.935 233.598 112.876 232.075 110.805C235.497 114.348 238.479 118.566 242.698 121.474Z" fill="black"/>
<path d="M252.5 148.463C247.913 147.077 243.339 147.534 238.753 147.851C238.33 147.886 237.984 147.987 237.637 148.087C237.626 147.946 237.549 147.881 237.614 147.805C238.665 147.645 239.716 147.486 240.702 147.402C243.802 147.14 246.773 147.031 249.933 147.474C250.779 147.403 251.853 147.525 252.5 148.463Z" fill="black"/>
<path d="M223.464 103.797C224.82 108.082 227.449 111.479 229.936 114.888C227.298 113.053 223.256 106.37 223.464 103.797Z" fill="black"/>
<path d="M296.558 136.581C291.147 139.734 283.329 142.95 281.961 142.71C286.685 140.679 291.692 138.624 296.558 136.581Z" fill="black"/>
<path d="M234.075 160.522C234.897 160.169 235.896 160.227 236.794 159.938C237.692 159.649 238.59 159.36 239.476 158.931C240.298 158.578 241.119 158.224 242.006 157.795C242.892 157.365 243.714 157.012 244.688 156.787C244.148 157.117 243.749 157.434 243.133 157.699C241.361 158.559 239.447 159.43 237.598 160.225C236.777 160.578 235.79 160.661 234.957 160.874C234.675 160.898 234.381 160.78 234.099 160.804C234.087 160.663 234.011 160.599 234.075 160.522Z" fill="black"/>
<path d="M310.138 217.537C308.549 213.839 306.959 210.142 305.458 206.649C307.122 208.709 310.418 215.81 310.138 217.537Z" fill="black"/>
<path d="M296.987 75.3037C296.606 70.7943 296.583 66.3256 295.574 61.9402C297.212 66.2016 297.17 70.7467 296.987 75.3037Z" fill="black"/>
<path d="M271.274 200.17C272.959 204.995 273.782 210.532 273.043 211.872C272.504 208.014 271.889 204.092 271.274 200.17Z" fill="black"/>
<path d="M249.242 123.334C249.16 118.161 247.475 113.336 245.854 108.434C247.655 111.263 249.873 120.726 249.242 123.334Z" fill="black"/>
<path d="M275.401 137.304C271.761 137.895 268.715 139.642 265.67 141.39C268.116 139.267 270.763 137.837 273.892 137.076C274.367 136.823 274.919 136.635 275.401 137.304Z" fill="black"/>
<path d="M255.208 153.628C258.836 152.896 261.781 150.802 264.98 149.183C261.881 151.148 259.024 153.447 255.208 153.628Z" fill="black"/>
<path d="M268.55 61.2429C268.118 58.6537 268.097 55.8879 268.282 53.0338C268.311 52.5346 268.416 52.1 268.521 51.6653C268.509 51.5244 268.715 51.4361 268.856 51.4242C268.783 54.7655 268.634 58.0424 268.55 61.2429Z" fill="black"/>
<path d="M211.901 154.235C209.101 155.536 206.302 156.837 203.297 158.226C203.478 157.856 203.531 157.639 203.736 157.55C206.307 156.056 208.965 154.767 211.901 154.235Z" fill="black"/>
<path d="M345.562 105.972C348.084 103.914 350.607 101.855 353.194 99.7209C353.113 100.437 352.714 100.755 352.379 100.996C350.268 102.878 348.003 104.63 345.562 105.972Z" fill="black"/>
<path d="M348.22 176.923C350.701 179.41 353.065 182.19 354.631 185.606C352.473 182.737 350.379 179.792 348.22 176.923Z" fill="black"/>
<path d="M345.651 91.9136C347.916 90.1611 350.116 88.485 352.381 86.7325C352.457 86.797 352.534 86.8615 352.61 86.926C352.417 87.1553 352.3 87.449 352.171 87.6018C350.099 89.1251 347.964 90.7248 345.893 92.248C345.74 92.119 345.728 91.9781 345.651 91.9136Z" fill="black"/>
<path d="M347.948 195.538C349.689 197.662 351.546 199.492 353.363 201.68C352.059 201.364 348.984 197.721 347.948 195.538Z" fill="black"/>
<path d="M253.5 154.411C253.253 154.857 253.084 155.368 252.761 155.751C251.213 157.584 249.118 158.826 247.076 159.85C249.188 157.968 251.935 156.885 253.194 154.153C253.282 154.358 253.423 154.346 253.5 154.411Z" fill="black"/>
<path d="M276.691 145.852C277.095 144.754 277.434 143.731 277.838 142.633C278.371 141.381 278.34 140.178 277.605 139.033C277.529 138.969 277.517 138.828 277.505 138.687L277.569 138.611C278.539 139.167 278.957 139.913 278.758 140.923C278.49 142.791 277.776 144.412 276.691 145.852Z" fill="black"/>
<path d="M234.042 115.606C235.823 117.371 237.669 119.061 239.45 120.826C237.076 119.607 235.694 117.524 234.042 115.606Z" fill="black"/>
<path d="M306.581 213.225C307.569 214.845 308.558 216.464 308.789 218.361C307.8 216.741 307.158 215.021 306.581 213.225Z" fill="black"/>
<path d="M253.649 151.134C254.21 149.383 255.524 148.137 257.003 147.161C255.906 148.46 254.81 149.759 253.649 151.134Z" fill="black"/>
<path d="M218.451 68.8105C220.29 69.5777 221.548 71.0325 223 72.2582C221.419 71.1854 219.838 70.1126 218.257 69.0397C218.322 68.9633 218.386 68.8869 218.451 68.8105Z" fill="black"/>
<path d="M217.43 136.524C219.037 135.395 220.857 135.099 222.754 134.868C221.034 135.51 219.226 135.947 217.43 136.524Z" fill="black"/>
<path d="M270.542 140.269C271.868 139.163 273.23 138.481 274.756 138.068C274.832 138.132 274.844 138.273 274.921 138.338C273.483 138.956 272.045 139.574 270.542 140.269Z" fill="black"/>
<path d="M278.053 135.093C278.328 134.147 278.679 133.266 278.954 132.32C279.577 132.977 279.29 133.782 278.053 135.093Z" fill="black"/>
<path d="M34.5258 325.125C40.9527 317.202 47.4441 309.202 53.7946 301.215C59.4474 294.208 64.8829 287.15 70.6122 280.208C73.7611 276.323 77.1393 272.631 80.4411 268.875C83.8193 265.184 87.1329 261.569 90.5994 258.082C92.8929 255.831 95.3392 253.708 97.7855 251.585C111.536 239.637 127.565 231.968 144.416 225.648C149.23 223.822 154.078 222.419 159.08 221.144C163.107 220.095 167.146 219.186 171.173 218.136C183.331 215.051 194.441 209.642 204.845 202.589C212.83 197.16 220.511 191.473 227.85 185.105C231.416 181.965 234.918 178.901 238.485 175.762C238.55 175.685 238.614 175.609 238.731 175.315C237.692 175.616 236.782 175.764 235.808 175.988C233.232 178.263 230.593 180.615 227.941 182.826C216.742 192.217 205.148 201.144 192.185 208.129C185.4 211.825 178.098 214.428 170.672 216.404C167.966 217.129 165.413 217.984 162.618 218.504C158.08 219.384 153.642 220.61 149.151 222.054C133.96 227.028 119.551 233.709 106.255 242.638C103.438 244.579 100.634 246.661 98.0585 248.937C94.6208 251.924 91.4123 255.104 88.1919 258.144C80.9126 265.216 74.0917 272.676 67.8057 280.587C63.4956 285.848 59.4029 291.161 55.1692 296.486C51.1936 301.505 47.2824 306.448 43.2304 311.403C39.8998 315.658 36.5693 319.914 33.1623 324.104C33.0095 323.975 32.7802 323.782 32.6274 323.653C33.724 322.354 34.8206 321.055 35.7764 319.768C37.8287 317.182 39.8046 314.531 41.8569 311.945C46.2196 306.467 50.6468 300.913 55.0095 295.435C58.7916 290.645 62.5092 285.931 66.2913 281.141C70.525 275.816 74.9234 270.761 79.6155 265.823C82.1551 263.124 84.6947 260.426 87.3226 257.933C91.0064 254.5 94.7667 251.131 98.5269 247.762C107.49 239.624 118.242 234.174 129.094 229.071C139.47 224.22 150.289 220.397 161.431 217.894C167.214 216.625 173.037 214.998 178.631 213.177C186.908 210.349 194.578 206.224 201.766 201.43C211.114 195.318 219.914 188.614 228.309 181.305C232.275 177.847 236.164 174.326 240.053 170.804C240.182 170.651 240.388 170.563 240.517 170.41C241.797 170.444 243.013 170.554 244.369 170.652C244.176 170.881 243.982 171.11 243.712 171.275C237.465 177.125 231.141 182.911 224.5 188.297C215.143 195.971 205.391 203.181 194.752 209.119C188.52 212.626 181.869 215.387 175.019 217.456C170.029 218.871 164.975 220.363 159.961 221.496C142.549 225.38 126.702 232.679 111.574 241.763C105.019 245.652 99.2523 250.468 93.6501 255.554C89.3738 259.534 85.2503 263.644 81.368 268.087C78.2717 271.755 74.8052 275.241 71.7852 278.974C66.056 285.915 60.4677 292.845 54.8148 299.851C49.9361 305.94 45.1338 312.094 40.255 318.183C38.6543 320.234 37.0535 322.285 35.3763 324.272C35.0538 324.654 34.8722 325.024 34.626 325.471C34.9079 325.447 34.6786 325.254 34.5258 325.125Z" fill="black"/>
<path d="M341.748 159.942C342.194 160.188 342.717 160.498 343.228 160.668C345.296 161.629 346.772 163.136 347.732 165.255C348.768 167.438 349.522 169.645 349.929 171.953C350.497 175.311 351.822 178.392 353.493 181.374C355.329 184.625 356.472 188.076 357.345 191.693C358.018 194.616 357.399 197.365 355.91 199.904C354.861 201.766 353.165 202.69 351.127 202.933C349.155 203.1 347.351 202.755 345.448 202.065C342.293 200.841 339.514 199.018 336.992 196.889C333.565 194.127 330.538 191.048 327.575 187.892C323.277 183.217 319.031 178.324 314.141 174.196C307.94 168.83 300.778 165.532 292.942 163.497C292.507 163.392 292.008 163.363 291.573 163.258C291.509 163.334 291.521 163.475 291.456 163.552C292.438 164.249 293.419 164.947 294.324 165.58C298.15 168.025 300.984 171.333 303.367 175.177C305.826 179.085 307.31 183.217 308.396 187.667C308.921 189.681 309.651 191.606 310.317 193.608C312.178 198.844 313.271 204.215 313.095 209.694C313.032 211.474 312.829 213.265 312.191 214.951C311.734 216.267 310.972 217.325 309.84 218.201C308.772 219.001 307.516 219.249 306.329 218.64C305.295 218.159 304.249 217.538 303.344 216.905C301.904 215.82 300.722 214.43 299.681 213.027C298.234 211.021 296.787 209.014 295.34 207.007C292.382 203.071 288.831 199.68 285.023 196.596C282.666 194.737 280.385 192.943 277.964 191.161C277.911 191.378 277.782 191.531 277.718 191.607C277.437 197.521 275.928 203.183 274.279 208.858C273.296 212.347 272.813 215.865 273.122 219.529C273.427 223.974 272.874 228.349 271.235 232.462C270.831 233.56 270.35 234.594 269.5 235.447C268.456 236.528 267.199 236.776 265.795 236.114C264.761 235.634 264.05 234.772 263.338 233.909C260.686 230.23 258.174 226.54 255.586 222.784C253.327 219.569 250.928 216.366 249.274 212.744C248.314 210.625 247.354 208.507 246.6 206.3C245.18 202.091 244.529 197.746 244.366 193.289C244.185 189.473 245.015 185.854 246.485 182.253C247.89 178.728 249.436 175.191 250.765 171.602C251.234 170.427 251.549 169.123 251.877 167.96C252.046 167.449 251.922 166.821 252.016 166.245C250.895 167.262 249.992 168.332 248.86 169.208C246.402 171.19 243.466 171.722 240.488 170.909C238.89 170.476 237.345 169.826 235.865 169.1C232.98 167.711 230.288 166.094 227.298 165.14C223.133 163.718 218.822 163.088 214.471 162.817C212.832 162.743 211.194 162.668 209.608 162.377C208.022 162.085 206.436 161.793 205.032 161.131C202.876 159.965 201.711 157.934 201.432 155.474C201.213 153.719 201.722 152.186 202.589 150.693C203.884 148.384 205.932 146.579 207.915 144.85C209.24 143.744 210.067 142.61 210.347 140.883C210.802 137.865 212.29 135.326 213.996 132.84C216.4 129.373 219.503 126.627 223.077 124.409C223.887 123.915 224.849 123.55 225.671 123.197C225.941 123.032 226.287 122.932 226.763 122.679C226.268 121.869 225.645 121.212 225.227 120.466C224.468 119.04 223.709 117.614 223.232 116.164C222.418 113.253 221.681 110.406 221.149 107.47C220.085 101.599 218.405 95.993 215.751 90.6112C214.98 89.0442 214.068 87.4891 213.438 85.9102C211.824 81.9307 208.937 78.8393 206.256 75.6596C203.651 72.5445 200.53 70.0406 196.881 68.0071C196.358 67.6965 195.759 67.3213 195.3 66.9343C194.536 66.2892 194.553 65.6491 195.275 64.9495C196.19 64.0207 197.205 63.4382 198.538 63.2546C200.217 62.9708 201.791 63.1217 203.388 63.5544C204.475 63.8174 205.574 64.2214 206.672 64.6253C207.847 65.0937 209.034 65.7031 210.209 66.1715C212.483 67.0439 214.164 68.4631 215.739 70.3169C215.904 70.5868 216.057 70.7158 216.439 71.0384C216.621 70.6682 216.738 70.3745 216.778 70.0162C217.106 68.8531 217.892 68.0771 219.16 67.97C220.07 67.8221 221.069 67.8797 222.002 68.0137C226.313 68.643 229.821 70.6884 232.785 73.8443C234.807 75.9442 236.624 78.1325 238.506 80.2443C239.84 81.7637 241.11 83.3595 242.51 84.8025C246.02 88.5508 248.233 92.9054 249.777 97.7424C251.798 104.029 252.551 110.423 252.318 116.901C252.25 119.461 251.824 121.981 251.616 124.553C251.518 125.909 251.606 126.115 252.84 127.288C253.022 126.918 253.268 126.471 253.309 126.113C253.536 124.603 253.775 123.235 253.862 121.737C254.063 118.243 253.842 114.785 253.621 111.326C253.197 105.472 252.709 99.6945 252.567 93.8166C252.4 85.9539 253.436 78.0605 255.418 70.442C256.939 64.9203 259.34 59.7501 263.311 55.5117C264.484 54.2772 265.886 53.2362 267.212 52.1307C267.611 51.8132 268.086 51.5601 268.509 51.5244C269.56 51.3646 270.064 50.6124 270.557 49.7193C271.594 47.7157 272.631 45.7121 273.897 43.902C275.022 42.1038 276.771 40.9626 278.62 40.1678C280.469 39.3729 282.336 39.6409 283.994 40.7782C286.109 42.3026 287.633 44.3738 288.81 46.5451C290.504 49.8081 291.865 53.3123 293.495 56.6517C295.161 60.4139 296.828 64.1761 298.699 67.85C300.077 70.714 300.979 73.8311 301.458 76.984C302.192 82.3151 302.363 87.6939 302.034 93.0438C301.919 95.0405 301.51 96.92 301.177 98.8641C301.137 99.2224 301.02 99.5161 301.132 100.003C301.595 99.6094 301.982 99.151 302.381 98.8334C304.856 96.2116 307.802 94.1177 310.835 92.2293C313.124 90.7586 315.501 89.4934 317.878 88.2282C320.254 86.9629 322.884 86.173 325.526 85.5241C329.782 84.6678 333.898 83.8234 338.166 83.108C341.242 82.5642 344.355 82.4432 347.28 83.4734C348.443 83.8009 349.63 84.4103 350.676 85.0315C353.15 86.5966 354.492 89.0379 354.524 91.9446C354.491 93.2248 354.38 94.4405 354.282 95.797C354.22 97.5764 354.016 99.3676 354.171 101.2C354.627 109.96 351.277 117.34 345.564 123.641C342.262 127.397 338.237 130.15 333.983 132.709C329.523 135.357 324.734 137.465 319.667 138.815C318.347 139.14 317.09 139.388 315.834 139.636C315.488 139.736 315.141 139.836 314.859 139.86C314.795 139.936 314.871 140.001 314.807 140.077C315.241 140.183 315.676 140.288 316.175 140.317C321.279 141.092 326.29 142.443 330.949 144.675C334.421 146.297 337.635 148.225 340.422 150.97C341.974 152.542 343.333 154.344 344.216 156.398C344.481 157.014 344.681 157.707 344.741 158.412C344.836 159.539 344.243 160.086 343.116 160.181C342.693 160.217 342.259 160.111 341.836 160.147C341.736 159.801 341.748 159.942 341.748 159.942ZM254.062 142.584C254.138 142.648 254.279 142.636 254.279 142.636C254.472 142.407 254.601 142.254 254.795 142.025C258.436 137.247 262.736 133.548 268.536 131.639C269.498 131.274 270.614 131.038 271.548 131.172C273.339 131.375 274.994 130.809 276.568 130.96C278.346 129.32 279.994 127.832 281.783 126.333C282.44 125.71 283.186 125.292 283.778 124.745C284.758 123.74 285.802 122.658 286.705 121.588C289.103 118.902 291.196 115.958 292.996 112.896C294.549 110.281 296.243 107.655 297.72 104.975C299.677 101.262 300.982 97.3904 301.188 93.1152C301.417 87.4189 301.222 81.7583 300.464 76.1454C300.033 73.5562 299.396 71.0554 298.271 68.6667C296.364 64.5701 294.521 60.397 292.538 56.2359C291.06 53.0255 289.712 49.6622 288.093 46.4637C287.069 44.4214 285.71 42.6201 283.748 41.2248C282.308 40.1401 280.657 39.9247 278.937 40.5667C278.18 40.8436 277.576 41.2494 276.972 41.6553C275.158 42.8729 273.892 44.683 272.919 46.6102C272.246 47.8735 271.648 49.2013 270.974 50.4646C270.676 51.1285 270.224 51.6634 269.39 51.8757C267.711 52.1595 266.526 53.2531 265.341 54.3467C261.012 58.5444 258.329 63.7385 256.539 69.4248C256.381 70.0768 256.235 70.8697 256.218 71.5098C256.234 75.0566 256.66 78.4267 257.727 81.8138C258.441 84.3791 259.359 86.8561 260.214 89.4096C261.887 94.0937 263.419 98.7897 264.258 103.686C265.086 108.442 265.273 113.18 263.975 117.974C263.005 121.604 261.153 124.883 259.148 128.032C257.894 129.983 256.575 132.011 255.397 134.026C254.84 134.996 254.436 136.094 254.314 137.169C254.022 138.755 254.024 140.458 253.873 142.032C254.026 142.161 254.038 142.302 254.062 142.584ZM277.426 131.03C278.995 131.962 280.616 132.676 281.387 134.243C282.158 135.81 282.507 137.413 281.868 139.099C283.234 141.822 281.645 144.014 280.515 146.593C281.131 146.329 281.477 146.228 281.824 146.128C284.212 145.004 286.448 143.75 288.849 142.767C294.83 140.488 301.136 139.529 307.513 139.416C311.7 139.417 315.839 138.855 319.93 137.729C326.998 135.712 333.383 132.334 339.327 127.929C342.8 125.365 345.892 122.478 348.207 118.805C351.789 113.323 353.849 107.471 353.354 100.772C353.24 98.5817 353.549 96.3557 353.576 94.1536C353.621 93.0144 353.667 91.8751 353.648 90.8123C353.529 89.4031 353.128 88.0177 352.187 86.9618C350.929 85.5069 349.284 84.5105 347.392 83.9607C344.402 83.0069 341.355 83.0515 338.355 83.6597C334.022 84.4515 329.689 85.2434 325.368 86.1761C322.368 86.7843 319.404 87.8154 316.757 89.2453C314.11 90.6753 311.54 92.1698 309.058 93.8697C307.708 94.6933 306.523 95.7869 305.262 96.816C302.34 99.1917 299.954 102.019 298.331 105.491C297.241 107.712 296.14 109.792 294.897 111.884C293.59 114.052 291.989 116.104 290.53 118.143C288.167 121.252 285.574 124.168 282.6 126.761C281.609 127.625 280.629 128.63 279.409 129.301C278.651 129.578 278.212 130.254 277.426 131.03ZM267.741 155.833C267.753 155.974 267.83 156.039 267.842 156.18C271.36 156.663 274.878 157.146 278.429 156.35C281.558 155.589 284.611 154.763 287.664 153.937C290.716 153.112 293.934 152.556 297.158 152.922C303.389 153.602 308.777 156.057 313.514 160.056C317.27 163.358 320.293 167.218 322.993 171.461C324.146 173.35 325.376 175.304 326.529 177.194C327.606 179.019 328.682 180.844 329.759 182.669C330.594 184.16 331.43 185.65 332.33 187.064C334.93 190.961 337.929 194.539 340.992 198.041C343.65 200.939 346.957 202.292 350.774 202.111C352.542 202.033 354.044 201.338 354.976 199.77C356.4 197.307 357.031 194.699 356.447 191.981C355.739 188.635 354.684 185.389 353.013 182.408C351.088 178.951 349.575 175.318 348.819 171.408C348.535 169.729 347.752 168.021 347.187 166.366C346.179 163.683 344.257 161.93 341.625 161.016C340.744 160.665 339.799 160.39 338.982 159.962C338.612 159.781 338.306 159.523 338 159.265C337.988 159.124 338.053 159.047 338.041 158.907C339.837 158.329 341.688 159.237 343.52 159.082C343.936 158.125 343.659 157.367 343.318 156.687C342.146 153.734 340.188 151.558 337.754 149.635C334.11 146.82 330.18 144.81 325.797 143.336C318.413 140.766 310.749 139.923 302.998 140.578C297.426 140.978 292.066 142.211 286.866 144.496C284.747 145.455 282.705 146.479 280.586 147.439C279.7 147.869 278.955 148.286 278.374 148.974C275.729 152.107 272.425 154.16 268.639 155.545C268.499 155.556 268.088 155.733 267.741 155.833ZM250.425 166.734C252.929 163.613 253.871 160.482 253.537 156.537C253.33 154.922 253.123 153.307 252.839 151.628C252.443 149.462 252.405 147.336 252.726 145.251C252.953 143.742 253.245 142.156 253.396 140.582C253.698 137.434 253.999 134.286 253.379 131.145C252.936 128.415 251.67 126.038 249.402 124.385C247.962 123.3 246.34 122.586 244.602 122.165C237.482 120.212 230.678 121.141 224.14 124.39C220.941 126.009 219.018 128.442 218.393 131.972C218.166 133.481 217.939 134.991 217.571 136.512C217.202 138.034 216.834 139.555 216.172 140.959C214.989 143.756 212.748 145.79 210.355 147.695C208.63 149.118 206.841 150.618 205.116 152.041C204.189 152.829 203.568 153.875 203.317 155.102C202.802 157.416 203.485 158.778 205.066 159.851C206.2 160.678 207.569 160.917 208.978 160.798C211.168 160.684 213.246 160.082 215.248 159.416C217.109 158.762 218.893 158.044 220.766 157.531C226.935 155.803 232.046 157.501 235.957 162.634C237.227 164.23 238.368 165.979 239.51 167.727C240.98 170.016 244.587 170.705 246.834 169.592C248.325 168.757 249.586 167.728 250.425 166.734ZM254.511 160.499C255.468 160.915 256.35 161.266 257.166 161.694C260.815 163.728 263.896 166.59 266.448 169.922C267.007 170.656 267.706 171.377 268.265 172.11C269.447 173.501 270.758 174.738 271.863 176.064C274.392 179.115 277.114 181.936 280.428 184.211C282.914 185.917 285.336 187.699 287.692 189.558C289.82 191.223 291.625 193.271 292.826 195.724C294.103 198.242 295.392 200.9 296.605 203.494C298.159 206.769 299.713 210.044 301.472 213.231C302.573 215.338 304.395 216.745 306.527 217.629C307.779 218.162 308.894 217.926 309.95 216.985C310.736 216.209 311.369 215.304 311.632 214.218C311.988 212.555 312.345 210.893 312.419 209.255C312.631 204.198 311.638 199.173 309.965 194.489C308.846 191.319 307.868 188.138 306.954 184.88C306.104 181.545 304.703 178.399 302.891 175.43C300.167 170.906 296.464 167.386 291.974 164.643C286.885 161.525 281.445 159.288 275.536 158.226C272.799 157.748 270.203 157.257 267.466 156.779C266.098 156.54 264.753 156.582 263.397 156.484C262.539 156.415 261.682 156.345 260.748 156.211C259.597 156.025 258.422 155.556 257.347 155.434C256.413 155.3 255.479 155.166 254.703 154.38C254.551 154.251 254.41 154.263 254.116 154.146C254.306 156.401 254.409 158.45 254.511 160.499ZM250.747 124.342C250.864 124.049 250.916 123.831 250.981 123.755C251.23 120.824 251.696 117.946 251.664 115.04C251.873 108.281 250.75 101.705 248.371 95.3775C246.898 91.3861 244.692 87.9533 241.87 84.7856C239.518 82.1458 237.307 79.494 234.955 76.8542C233.62 75.3349 232.285 73.8155 230.681 72.4608C227.765 69.8686 224.381 68.4514 220.464 68.2856C218.327 68.1823 217.67 68.8055 217.349 70.8905C217.308 71.2488 217.127 71.6189 216.969 72.2709C216.587 71.9484 216.37 71.8958 216.14 71.7023C215.517 71.0453 214.97 70.4528 214.412 69.7194C213.535 68.5871 212.466 67.684 211.138 67.0865C209.516 66.372 208.036 65.6455 206.414 64.9309C204.793 64.2164 203.042 63.6547 201.186 63.5276C199.83 63.4293 198.549 63.3955 197.317 63.9254C196.495 64.2787 195.674 64.632 195.551 65.7067C195.704 65.8357 195.793 66.0411 195.945 66.1702C196.175 66.3637 196.404 66.5572 196.774 66.7388C200.258 68.5024 203.678 70.3424 207.227 72.0295C209.371 73.0547 211.568 73.8626 213.648 74.9642C219.583 78.011 222.971 82.8341 223.671 89.4454C223.89 91.2009 223.904 93.0448 223.842 94.8241C223.769 98.1655 223.62 101.442 223.548 104.784C223.421 106.639 223.294 108.495 223.231 110.275C223.123 113.193 223.578 116.064 225.008 118.711C225.679 119.932 226.144 121.241 227.56 122.043C227.983 122.008 228.394 121.831 228.881 121.719C233.114 120.581 237.406 120.147 241.717 120.777C244.084 121.073 246.345 121.805 248.437 123.047C249.395 123.463 249.994 123.838 250.747 124.342ZM254.248 161.586C254.26 161.727 254.272 161.868 254.283 162.009C255.207 163.705 255.72 165.577 256.092 167.462C256.713 170.603 256.693 173.727 256.25 176.886C255.86 179.829 255.252 182.719 254.721 185.673C254.073 188.921 254.4 191.945 256.059 194.785C257.465 197.15 258.19 199.856 258.569 202.663C259.22 207.008 258.885 211.436 258.972 215.828C258.981 218.453 259.002 221.219 259.856 223.772C260.687 226.044 261.517 228.315 262.553 230.498C263.324 232.065 264.172 233.697 265.624 234.923C267.293 236.201 268.907 235.993 269.88 234.066C271.163 231.616 271.871 229.073 272.349 226.336C272.775 223.816 272.766 221.191 272.616 218.578C272.431 215.542 272.744 212.535 273.634 209.622C274.289 207.296 274.879 205.046 275.458 202.655C276.376 199.243 276.936 195.789 277.202 192.218C277.3 190.862 276.999 189.823 276.135 188.831C275.03 187.506 274.053 186.027 273.294 184.601C272.358 182.764 271.563 180.915 270.833 178.99C268.69 173.778 265.672 169.136 261.252 165.536C259.724 164.246 258.002 163.185 256.28 162.124C255.528 161.62 254.993 161.168 254.248 161.586ZM276.604 157.426C276.616 157.567 276.616 157.567 276.616 157.567C276.769 157.696 276.91 157.684 277.063 157.813C281.039 158.684 284.911 159.989 288.548 161.881C288.918 162.063 289.352 162.168 289.711 162.209C295.008 162.755 299.925 164.681 304.737 167.042C311.247 170.182 316.62 174.98 321.529 180.171C324.886 183.79 328.179 187.486 331.742 191.017C333.917 193.246 336.274 195.105 338.642 197.105C338.948 197.363 339.266 197.762 339.829 197.714C337.695 195.127 335.496 192.616 333.643 190.005C331.549 187.059 329.596 184.102 327.913 180.98C326.042 177.306 323.63 173.962 321.489 170.453C319.03 166.544 316.031 162.966 312.375 160.01C306.897 155.648 300.652 153.124 293.53 153.655C291.557 153.821 289.531 154.205 287.582 154.654C284.095 155.374 280.696 156.3 277.221 157.161C277.015 157.25 276.81 157.338 276.604 157.426ZM260.037 227.589C260.101 227.512 260.101 227.512 260.166 227.436C260.154 227.295 260.154 227.295 260.142 227.154C260.042 226.808 259.941 226.461 259.777 226.191C258.311 223.122 257.961 219.816 257.892 216.487C257.872 213.721 257.915 210.879 257.895 208.113C257.824 203.081 257.061 198.249 254.554 193.777C253.631 192.081 253.259 190.196 253.386 188.341C253.484 186.984 253.659 185.692 253.91 184.464C254.388 181.727 254.931 178.914 255.268 176.189C255.833 171.954 255.617 167.715 254.209 163.647C254.109 163.301 254.008 162.954 253.908 162.608C253.767 162.62 253.767 162.62 253.626 162.632C253.457 163.143 253.222 163.73 253.129 164.306C252.983 165.099 252.978 165.88 252.832 166.673C252.424 168.552 252.015 170.432 251.312 172.194C249.983 175.784 248.437 179.321 247.031 182.846C245.562 186.447 244.961 190.259 245.218 194.14C245.487 198.162 246.026 202.019 247.345 205.882C248.188 208.294 249.095 210.63 250.284 212.943C252.408 217.092 255.266 220.683 257.79 224.514C258.59 225.582 259.313 226.585 260.037 227.589ZM255.716 73.9649L255.575 73.9768C255.458 74.2706 255.341 74.5643 255.288 74.7817C253.846 82.0707 253.12 89.4412 253.534 96.8573C253.81 101.801 254.291 106.657 254.49 111.537C254.676 114.572 254.708 117.479 254.676 120.462C254.673 122.946 254.324 125.53 253.158 127.687C253.459 128.726 253.824 129.688 253.972 130.598C254.196 131.573 254.344 132.483 254.427 133.469C254.697 133.305 254.697 133.305 254.761 133.228C256.702 130.155 258.706 127.005 260.57 123.867C262.926 119.836 264.119 115.478 264.149 110.792C264.145 107.386 263.73 104.157 263.022 100.81C261.901 95.9375 260.228 91.2534 258.631 86.6338C257.223 82.566 256.032 78.5508 255.74 74.2468C255.816 74.3113 255.804 74.1704 255.716 73.9649ZM256.878 140.643C256.427 141.177 255.987 141.853 255.471 142.465C253.354 145.127 253.04 148.134 253.878 151.327C254.09 152.161 254.572 152.83 255.055 153.499C256.096 154.901 257.71 154.694 259.184 154.498C261.644 154.22 263.904 153.248 266.14 151.995C269.725 149.918 272.229 146.797 274.21 143.365C274.767 142.396 275.235 141.221 275.281 140.081C275.379 138.725 275.477 137.368 275.858 135.988C276.08 135.259 276.02 134.555 275.538 133.886C274.256 132.149 271.701 131.301 269.623 131.902C264.516 133.611 260.438 136.581 256.878 140.643ZM222.443 109.348C222.584 109.336 222.584 109.336 222.725 109.324C222.777 109.107 222.766 108.966 222.818 108.748C222.986 106.534 223.23 104.385 223.269 102.324C223.389 99.5459 223.227 96.792 223.347 94.0143C223.427 91.5949 223.301 89.2637 222.611 86.9802C222.187 85.313 221.545 83.5932 220.709 82.1026C219.303 79.7377 217.381 77.9841 215.06 76.5481C211.769 74.5553 208.191 73.3673 204.719 71.7446C204.643 71.6801 204.437 71.7685 204.155 71.7923C205.325 73.0417 206.407 74.0857 207.36 75.2826C209.442 78.0871 211.664 80.8798 213.541 83.7726C214.682 85.5212 215.424 87.5874 216.372 89.5653C219.115 95.1525 220.96 101.028 221.971 107.117C222.107 107.886 222.307 108.579 222.443 109.348ZM269.888 174.528C269.824 174.604 269.747 174.54 269.683 174.616C269.695 174.757 269.63 174.834 269.707 174.898C270.843 177.428 271.903 179.893 273.039 182.422C274.175 184.952 275.658 187.382 277.733 189.264C279.12 190.566 280.636 191.715 282.153 192.865C287.901 197.063 293.132 201.872 297.32 207.763C297.485 208.033 297.638 208.162 297.867 208.355C297.908 207.997 297.819 207.792 297.719 207.445C296.506 204.851 295.282 202.116 294.069 199.522C292.945 197.133 291.692 194.897 290.104 192.903C287.969 190.315 285.242 188.275 282.463 186.452C277.961 183.568 274.04 179.996 270.906 175.648C270.523 175.326 270.206 174.927 269.888 174.528ZM240.622 169.975C239.328 168.097 238.211 166.631 237.158 165.087C236.84 164.689 236.664 164.278 236.346 163.879C234.987 162.078 233.5 160.429 231.549 159.175C228.781 157.493 225.698 157.114 222.557 157.735C221.095 158.071 219.71 158.472 218.336 159.014C216.194 159.691 213.987 160.445 211.844 161.123C211.703 161.135 211.574 161.288 211.369 161.376C212.455 161.639 213.454 161.697 214.528 161.819C220.941 162.129 227.155 163.449 232.937 166.367C234.418 167.093 235.834 167.896 237.314 168.622C238.131 169.05 239.23 169.454 240.622 169.975ZM260.459 155.313C260.753 155.43 260.906 155.559 261.047 155.547C262.327 155.581 263.695 155.82 264.952 155.572C270.066 154.785 274.255 152.303 277.775 148.599C279.464 146.753 280.859 144.79 281.567 142.247C282.105 140.214 281.216 138.941 279.208 138.685C278.85 138.644 278.35 138.616 277.992 138.575C276.929 138.594 276.26 139.076 276.138 140.151C275.964 141.443 275.572 142.682 274.821 143.881C273.878 145.309 272.934 146.737 271.837 148.036C269.333 151.157 266.335 153.468 262.437 154.365C261.744 154.566 261.205 154.895 260.459 155.313ZM219.03 128.583C218.953 128.519 218.877 128.454 218.877 128.454C218.812 128.53 218.607 128.619 218.542 128.695C215.011 132.258 211.939 136.207 211.176 141.452C210.989 142.603 210.432 143.573 209.505 144.361C208.05 145.619 206.531 146.954 205.305 148.406C204.402 149.475 203.588 150.751 203.055 152.002C202.562 152.895 202.376 154.046 202.676 155.085C202.741 155.009 202.882 154.997 202.946 154.921C203.549 152.812 205.056 151.336 206.64 149.925C208.494 148.349 210.424 146.838 212.278 145.262C214.724 143.139 216.277 140.524 216.937 137.417C217.404 134.539 217.706 131.391 219.03 128.583ZM281.245 138.442C281.936 136.539 280.647 133.88 279.219 132.936C277.867 132.057 276.451 131.254 274.526 131.984C275.901 133.146 277.059 134.254 276.703 135.916C277.792 137.882 279.571 137.945 281.245 138.442Z" fill="black"/>
<path d="M141.173 280.492C146.296 282.33 151.213 284.256 156.183 285.965C161.229 287.739 166.409 288.578 171.707 289.124C171.396 289.647 170.82 289.554 170.462 289.513C167.954 289.228 165.447 288.944 162.991 288.441C158.017 287.513 153.317 285.64 148.693 283.83C146.561 282.946 144.352 281.997 142.283 281.037C141.849 280.931 141.543 280.673 141.173 280.492Z" fill="#B38451"/>
<path d="M242.617 359.064C237.75 355.217 233.264 349.99 229.1 344.381C226.942 341.512 224.989 338.555 223.511 335.344C223.246 334.728 223.058 334.176 222.933 333.548C224.051 335.015 224.757 336.658 225.669 338.213C226.658 339.833 227.711 341.376 228.764 342.919C229.816 344.462 230.934 345.929 232.039 347.255C233.157 348.722 234.339 350.112 235.52 351.503C236.702 352.893 237.961 354.348 239.283 355.726C240.53 357.04 241.917 358.342 242.617 359.064Z" fill="#B38451"/>
<path d="M246.152 312.71C242.295 313.249 238.401 313.365 234.432 313.417C230.961 313.497 227.479 313.436 224.102 312.941C222.158 312.609 220.278 312.2 218.399 311.791C217.888 311.621 217.441 311.375 216.93 311.205C216.995 311.129 216.983 310.988 216.983 310.988C217.417 311.093 217.852 311.198 218.287 311.303C222.416 312.303 226.586 312.944 230.849 313.01C235.946 312.863 241.184 312.704 246.152 312.71Z" fill="#B38451"/>
<path d="M247.545 283.001C255.079 278.107 262.979 274.175 269.42 268.096C269.415 268.877 269.491 268.942 268.899 269.488C267.778 270.506 266.722 271.446 265.525 272.399C260.045 276.41 254.236 279.881 248.173 282.877C248.032 282.889 247.891 282.901 247.545 283.001Z" fill="#B38451"/>
<path d="M192.194 272.917C192.332 275.389 192.405 277.938 192.684 280.398C193.289 285.882 194.869 291.141 198.297 295.606C198.615 296.005 198.856 296.34 199.238 296.662C199.238 296.662 199.174 296.739 199.121 296.956C198.557 297.004 198.228 296.464 197.987 296.129C195.764 293.337 194.222 290.203 193.361 286.727C192.9 284.637 192.375 282.624 192.197 280.51C191.982 277.973 192.05 275.413 191.977 272.865C192.053 272.929 192.129 272.994 192.194 272.917Z" fill="#B38451"/>
<path d="M273.363 332.41C280.643 331.227 288.135 330.878 295.008 327.388C294.991 328.028 294.656 328.269 294.246 328.446C293.359 328.876 292.473 329.305 291.511 329.67C285.711 331.58 279.534 332.385 273.363 332.41Z" fill="#B38451"/>
<path d="M211.353 312.386C211.67 312.785 211.912 313.119 212.294 313.442C213.464 314.691 214.88 315.494 216.348 316.08C219.873 317.485 223.503 318.456 227.198 319.35C228.719 319.718 230.164 320.022 231.609 320.326C231.827 320.378 232.044 320.431 232.35 320.689C232.209 320.701 231.991 320.648 231.85 320.66C226.106 319.868 220.532 318.565 215.233 316.316C214.058 315.847 213 315.085 212.071 314.17C211.46 313.654 211.372 313.449 211.353 312.386Z" fill="#B38451"/>
<path d="M257.069 287.377C249.348 293.422 240.613 295.863 230.971 295.968C240.348 295.247 249.3 292.859 257.069 287.377Z" fill="#B38451"/>
<path d="M174.208 284.3C173.697 284.131 173.045 283.973 172.599 283.727C171.03 282.795 169.461 281.863 168.021 280.778C165.37 278.802 162.861 276.815 160.404 274.609C158.417 272.932 156.624 271.026 154.754 269.055C157.887 271.7 161.02 274.344 164.153 276.989C167.35 279.558 170.624 282.191 174.326 284.007C174.402 284.071 174.273 284.224 174.208 284.3Z" fill="#B38451"/>
<path d="M228.11 222.622C223.942 229.574 221.461 237.163 218.763 244.7C218.785 243.279 220.224 238.474 222.396 233.11C225.037 226.572 226.942 223.075 228.11 222.622Z" fill="#B38451"/>
<path d="M210.314 266.49C211.282 255.267 213.043 244.19 217.4 233.603C213.554 244.36 211.576 255.384 210.314 266.49Z" fill="#B38451"/>
<path d="M231.633 274.411C239.539 265.511 249.285 259.082 260.149 254.119C249.515 259.275 239.856 265.91 231.633 274.411Z" fill="#B38451"/>
<path d="M164.731 268.709C160.294 265.748 156.337 261.754 152.135 258.206C151.065 257.303 150.112 256.106 149.171 255.05C148.854 254.651 148.677 254.24 148.5 253.829C153.885 258.768 159.422 263.835 164.731 268.709Z" fill="#B38451"/>
<path d="M218.567 335.62C219.345 338.109 219.982 340.61 220.901 343.087C221.82 345.564 223.02 348.017 224.209 350.329C225.398 352.642 226.651 354.877 227.981 357.178C227.005 355.699 225.964 354.297 225.052 352.742C222.557 348.411 220.268 343.992 219.005 339.131C218.717 338.233 218.569 337.323 218.421 336.413C218.397 336.131 218.373 335.849 218.35 335.567C218.426 335.632 218.426 335.632 218.567 335.62Z" fill="#B38451"/>
<path d="M225.005 249.708C225.772 247.869 226.527 245.889 227.371 244.115C228.993 240.643 230.922 237.428 233.003 234.343C233.378 233.744 233.689 233.221 234.14 232.686C234.269 232.533 234.551 232.509 234.68 232.356C234.756 232.421 234.833 232.485 234.909 232.55C233.719 234.425 232.453 236.235 231.404 238.097C230.214 239.972 229.1 241.911 228.063 243.915C227.026 245.918 226.054 247.845 225.158 249.837C225.081 249.773 225.005 249.708 225.005 249.708Z" fill="#B38451"/>
<path d="M208.282 209.679C208.623 210.359 208.248 210.959 208.079 211.47C207.751 212.633 207.283 213.808 207.031 215.036C206.221 219.717 205.41 224.398 204.716 228.785C204.026 226.502 206.657 211.448 208.282 209.679Z" fill="#B38451"/>
<path d="M225.945 270.917C227.744 267.856 230.155 265.311 232.489 262.701C234.823 260.091 237.451 257.598 240.65 255.979C241.125 255.726 241.536 255.55 242.1 255.502C240.093 256.949 237.998 258.19 236.144 259.766C234.226 261.418 232.537 263.264 230.848 265.11C229.094 267.032 227.558 269.007 225.945 270.917Z" fill="#B38451"/>
<path d="M227.09 286.149C227.541 285.614 227.852 285.091 228.38 284.62C231.33 281.746 234.739 279.258 238.16 276.911C240.578 275.287 243.072 273.728 245.425 272.181C245.695 272.017 245.9 271.928 246.17 271.763C239.675 276.357 232.938 280.616 227.319 286.342C227.243 286.278 227.166 286.213 227.09 286.149Z" fill="#B38451"/>
<path d="M282.411 300.919C282.141 301.083 281.807 301.325 281.384 301.36C280.756 301.484 280.128 301.608 279.488 301.592C275.055 302.037 270.662 302.124 266.258 302.071C266.117 302.082 266.041 302.018 265.888 301.889C271.319 301.501 276.815 301.037 282.246 300.649C282.399 300.778 282.399 300.778 282.411 300.919Z" fill="#B38451"/>
<path d="M227.987 264.004C225.652 266.613 223.853 269.675 222.118 272.66C220.319 275.721 218.878 278.824 217.96 282.236C217.63 281.697 217.8 281.185 217.905 280.751C218.367 278.654 219.275 276.803 220.248 274.876C222.398 270.933 224.778 267.184 227.987 264.004Z" fill="#B38451"/>
<path d="M141.994 290.215C142.071 290.28 142.288 290.332 142.365 290.397C144.287 292.15 146.713 293.152 149.116 293.871C152.029 294.761 154.919 295.368 157.962 296.104C157.821 296.116 157.756 296.193 157.615 296.205C153.316 295.716 149.199 294.858 145.28 292.989C144.17 292.444 143.253 291.67 142.195 290.908C142.042 290.779 141.954 290.573 141.865 290.368C141.865 290.368 141.93 290.292 141.994 290.215Z" fill="#B38451"/>
<path d="M204.677 287.12C204.565 286.632 204.312 286.157 204.199 285.67C203.694 280.532 204.252 275.376 205.539 270.442C204.94 275.956 204.201 281.483 204.959 287.096C204.818 287.108 204.677 287.12 204.677 287.12Z" fill="#B38451"/>
<path d="M181.083 328.71C179.188 330.644 177.282 332.437 175.528 334.359C173.775 336.282 172.186 338.474 170.702 340.231C172.583 336.453 179.11 328.877 181.083 328.71Z" fill="#B38451"/>
<path d="M212.56 345.991C213.338 348.48 213.975 350.981 214.958 353.382C215.865 355.718 216.977 357.965 218.114 360.495C217.732 360.173 217.514 360.12 217.426 359.915C216.843 358.899 216.196 357.961 215.755 356.933C214.354 353.787 213.287 350.4 212.643 346.978C212.619 346.696 212.519 346.349 212.56 345.991Z" fill="#B38451"/>
<path d="M202.073 243.698C200.316 248.104 198.689 252.357 196.985 256.546C197.544 253.092 198.768 249.938 200.056 246.706C200.472 245.749 201.029 244.779 201.521 243.886C201.65 243.733 201.791 243.721 202.073 243.698Z" fill="#B38451"/>
<path d="M258.746 367.707C258.299 367.461 257.929 367.279 257.483 367.033C256.795 366.452 256.043 365.948 255.343 365.227C253.397 363.191 251.375 361.091 249.493 358.98C249.264 358.786 249.24 358.504 248.999 358.17C252.32 361.366 255.63 364.422 258.798 367.49C258.875 367.554 258.81 367.63 258.746 367.707Z" fill="#B38451"/>
<path d="M158.097 337.18C158.417 335.095 165.969 329.561 169.391 328.917C165.266 331.324 161.281 333.718 158.097 337.18Z" fill="#B38451"/>
<path d="M156.022 289.101C160.985 289.888 165.831 290.969 170.787 290.834C170.798 290.975 170.798 290.975 170.81 291.116C170.528 291.14 170.259 291.305 169.977 291.328C169.055 291.335 168.209 291.407 167.352 291.337C163.628 290.942 160.022 290.253 156.392 289.283C156.251 289.295 156.098 289.166 156.022 289.101Z" fill="#B38451"/>
<path d="M207.336 337.917C207.887 341.915 208.373 345.99 208.912 349.848C207.758 347.958 206.48 339.55 207.336 337.917Z" fill="#B38451"/>
<path d="M259.7 334.487C255.127 334.944 250.675 334.327 246.328 333.275C246.034 333.158 245.741 333.04 245.435 332.782C246.703 332.675 247.814 333.22 248.965 333.407C250.116 333.593 251.267 333.78 252.559 333.955C253.775 334.065 255.003 334.316 256.218 334.426C257.422 334.395 258.561 334.441 259.7 334.487Z" fill="#B38451"/>
<path d="M168.818 300.297C168.004 301.572 166.63 302.114 165.309 302.438C162.245 303.123 159.133 303.244 155.973 302.801C156.255 302.777 156.537 302.753 156.818 302.73C158.65 302.575 160.494 302.561 162.326 302.406C164.581 302.216 166.594 301.691 168.548 300.461C168.601 300.244 168.742 300.232 168.818 300.297Z" fill="#B38451"/>
<path d="M180.263 258.526C180.749 262.601 180.877 266.635 182.337 270.486C182.273 270.562 182.132 270.574 182.068 270.65C181.903 270.38 181.597 270.122 181.509 269.917C181.244 269.301 181.055 268.749 180.931 268.121C180.388 265.044 179.985 261.956 180.146 258.82C180.134 258.679 180.198 258.603 180.263 258.526Z" fill="#B38451"/>
<path d="M188.284 345.913C187.487 342.361 188.031 335.361 189.14 334.203C188.884 336.212 188.616 338.079 188.424 340.011C188.373 341.932 188.387 343.776 188.284 345.913Z" fill="#B38451"/>
<path d="M202.909 343.471C202.984 347.723 202.842 351.921 204.033 355.937C202.545 354.288 201.938 347.101 202.909 343.471Z" fill="#B38451"/>
<path d="M280.055 315.027C279.539 315.638 278.911 315.762 278.206 315.821C275.528 316.048 272.915 316.197 270.162 316.359C269.739 316.395 269.24 316.366 268.729 316.196C272.457 315.81 276.121 315.501 280.055 315.027Z" fill="#B38451"/>
<path d="M199.51 308.277C199.206 309.722 194.624 313.444 191.748 314.681C194.4 312.47 196.923 310.412 199.51 308.277Z" fill="#B38451"/>
<path d="M219.506 334.973C221.219 339.299 222.857 343.56 224.394 347.475C223.224 346.226 219.543 337.099 219.506 334.973Z" fill="#B38451"/>
<path d="M151.095 252.617C153.628 254.886 156.085 257.092 158.619 259.361C155.892 257.321 152.907 255.586 150.837 252.922C150.901 252.846 151.03 252.693 151.095 252.617Z" fill="#B38451"/>
<path d="M198.717 298.055C197.96 298.331 197.566 297.868 197.325 297.534C195.42 295.14 193.772 292.44 192.741 289.476C194.553 292.445 196.095 295.579 198.717 298.055Z" fill="#B38451"/>
<path d="M268.344 272.161C267.541 273.577 261.884 277.177 258.855 278.285C262.018 276.244 265.181 274.202 268.344 272.161Z" fill="#B38451"/>
<path d="M191.585 352.234C190.213 348.589 189.469 344.82 189.776 340.891C189.917 340.879 189.917 340.879 190.057 340.867C190.064 341.789 190.071 342.711 190.155 343.697C190.238 344.684 190.245 345.606 190.393 346.516C190.476 347.502 190.7 348.477 190.925 349.451C191.149 350.426 191.438 351.324 191.585 352.234Z" fill="#B38451"/>
<path d="M250.485 374.082C248.293 372.493 246.693 370.357 244.953 368.233C245.922 368.79 246.904 369.488 247.551 370.427C247.868 370.826 248.198 371.366 248.58 371.688C249.279 372.41 249.979 373.131 250.679 373.853C250.614 373.929 250.55 374.005 250.485 374.082Z" fill="#B38451"/>
<path d="M189.697 240.84C189.6 243.9 189.416 246.754 189.308 249.672C188.971 248.211 188.917 246.725 188.862 245.239C188.987 241.681 188.987 241.681 189.697 240.84Z" fill="#B38451"/>
<path d="M235.852 281.505C232.983 283.664 230.255 285.81 227.321 288.045C227.273 287.481 227.608 287.24 227.942 286.999C230.389 284.876 233 283.024 235.852 281.505Z" fill="#B38451"/>
<path d="M244.16 321.891C243.503 322.514 242.951 322.703 242.311 322.686C240.89 322.664 239.404 322.718 237.983 322.697C236.985 322.639 235.987 322.581 234.964 322.242C235.246 322.218 235.528 322.194 235.81 322.171C237.372 322.18 238.934 322.19 240.496 322.2C241.277 322.205 242.111 321.993 242.956 321.922C243.314 321.962 243.596 321.939 244.16 321.891Z" fill="#B38451"/>
<path d="M185.879 301.481C188.4 303.61 191.419 304.064 194.538 304.865C192.025 305.361 187.325 303.488 185.879 301.481Z" fill="#B38451"/>
<path d="M210.319 209.436C209.624 212.12 209.004 214.869 208.309 217.553L208.168 217.565C208.144 217.283 208.12 217.002 208.237 216.708C208.634 214.687 208.955 212.602 209.428 210.646C209.533 210.212 209.921 209.753 210.102 209.383C210.102 209.383 210.243 209.371 210.319 209.436Z" fill="#B38451"/>
<path d="M228.898 223.549C227.433 226.369 225.903 229.266 224.439 232.086C225.457 229.02 226.833 225.994 228.668 223.355C228.68 223.496 228.821 223.484 228.898 223.549Z" fill="#B38451"/>
<path d="M229.978 311.096C228.81 311.55 221.234 310.913 219.818 310.11C223.195 310.605 226.56 310.959 229.978 311.096Z" fill="#B38451"/>
<path d="M275.649 303.193C278.379 302.75 281.109 302.306 283.916 301.927C282.989 302.715 278.016 303.49 275.649 303.193Z" fill="#B38451"/>
<path d="M175.793 324.899C175.024 325.035 174.114 325.183 173.345 325.319C172.511 325.531 171.742 325.667 170.832 325.815C169.999 326.027 169.165 326.24 168.255 326.387C170.644 325.263 172.992 324.497 175.681 324.412C175.693 324.553 175.781 324.758 175.793 324.899Z" fill="#B38451"/>
<path d="M288.562 318.282C285.11 319.425 281.658 320.568 277.906 320.672C281.458 319.875 285.01 319.079 288.562 318.282Z" fill="#B38451"/>
<path d="M286.575 332.571C288.988 331.729 291.259 330.898 293.672 330.056L293.748 330.12C293.555 330.349 293.297 330.655 293.091 330.743C291.037 331.626 288.895 332.304 286.575 332.571Z" fill="#B38451"/>
<path d="M258.061 364.642C255.998 362.901 253.73 361.247 251.989 359.123C254.128 360.93 256.192 362.671 258.255 364.413C258.319 364.337 258.19 364.49 258.061 364.642Z" fill="#B38451"/>
<path d="M175.152 282.872C172.497 281.678 170.551 279.642 168.411 277.836C170.744 279.413 173.013 281.066 175.346 282.643C175.217 282.796 175.217 282.796 175.152 282.872Z" fill="#B38451"/>
<path d="M178.253 334.697C179.173 332.987 180.081 331.136 181.83 329.995C181.906 330.06 181.983 330.124 181.983 330.124C181.983 330.124 182.059 330.189 181.995 330.265C180.769 331.717 179.479 333.245 178.253 334.697Z" fill="#B38451"/>
<path d="M204.088 311.226C203.602 313.041 203.182 314.779 202.696 316.594C202.53 314.622 202.874 312.818 203.87 311.173C203.87 311.173 204.011 311.161 204.088 311.226Z" fill="#B38451"/>
<path d="M192.479 306.529C190.277 306.503 188.268 306.246 186.64 304.61C188.479 305.377 190.446 305.991 192.479 306.529Z" fill="#B38451"/>
<path d="M200.515 309.257C200.159 310.919 198.733 311.678 197.612 312.695C198.362 311.496 199.33 310.35 200.515 309.257Z" fill="#B38451"/>
<path d="M191.203 243.551C190.843 241.808 190.906 240.028 191.186 238.302C191.326 238.29 191.467 238.278 191.608 238.266C191.539 239.123 191.469 239.981 191.335 240.915C191.342 241.837 191.273 242.694 191.203 243.551Z" fill="#B38451"/>
<path d="M219.576 360.159C218.47 358.833 217.699 357.266 217.21 355.675C218.11 357.089 218.945 358.58 219.846 359.994C219.705 360.006 219.64 360.082 219.576 360.159Z" fill="#B38451"/>
<path d="M217.813 277.139C217.392 278.878 216.972 280.617 216.551 282.355C216.474 282.291 216.333 282.303 216.333 282.303C216.32 280.459 216.881 278.708 217.813 277.139Z" fill="#B38451"/>
<path d="M203.03 244.113C202.368 245.518 201.771 246.845 200.98 248.402C201.119 246.688 202.003 244.555 202.737 243.996C202.813 244.061 202.954 244.049 203.03 244.113Z" fill="#B38451"/>
<path d="M281.448 321.437C279.704 321.798 278.231 321.993 276.721 321.766C278.195 321.57 279.68 321.516 281.448 321.437Z" fill="#B38451"/>
<path d="M248.975 331.845C250.267 332.019 251.559 332.194 252.786 332.445C251.518 332.552 250.162 332.454 248.922 332.062C248.987 331.986 248.975 331.845 248.975 331.845Z" fill="#B38451"/>
<path d="M114.988 393.051C115.258 392.886 115.592 392.645 115.939 392.545C121.538 389.943 127.125 387.2 132.736 384.739C136.639 383.061 140.365 380.972 144.016 378.819C148.681 376.083 152.711 372.549 156.512 368.822C159.462 365.947 162.119 362.955 164.535 359.628C164.728 359.399 164.922 359.17 165.168 358.723C164.451 358.642 164.017 358.537 163.377 358.52C163.183 358.749 162.925 359.055 162.732 359.284C160.397 361.894 158.216 364.633 155.794 367.037C153.436 369.365 150.913 371.424 148.467 373.546C145.017 376.392 141.097 378.71 137.141 380.606C129.576 384.296 121.923 387.781 114.269 391.266C113.999 391.431 113.73 391.596 113.46 391.761C113.307 391.632 113.078 391.438 112.925 391.309C115.93 389.92 119.011 388.595 122.081 387.129C126.858 384.881 131.612 382.35 136.465 380.166C139.817 378.677 142.927 376.853 145.949 374.823C149.434 372.4 152.602 369.578 155.617 366.626C159.019 363.217 161.974 359.561 164.841 355.699C165.228 355.241 165.551 354.859 165.938 354.401C166.819 354.752 167.624 355.039 168.646 355.378C168.529 355.672 168.4 355.825 168.207 356.054C165.251 359.71 162.372 363.43 159.328 366.881C156.607 369.949 153.568 372.618 150.377 375.159C145.589 378.97 140.296 381.829 134.914 384.484C128.981 387.327 122.894 390.041 116.884 392.82C116.473 392.996 116.075 393.314 115.664 393.49C115.37 393.373 115.217 393.244 114.988 393.051Z" fill="#B38451"/>
<path d="M155.334 314.564C154.071 313.89 152.896 313.421 151.862 312.941C148.378 311.178 145.011 309.12 142.095 306.528C138.733 303.69 135.963 300.305 133.669 296.666C131.298 292.964 129.198 289.096 127.918 284.876C127.117 282.105 126.738 279.299 126.987 276.368C127.317 272.721 128.847 269.824 131.78 267.589C135.512 264.72 138.926 261.451 141.805 257.73C142.954 256.214 144.344 255.032 145.952 253.903C148.1 252.444 150.471 251.96 153.108 252.092C156.103 252.265 158.747 253.319 161.414 254.654C164.605 256.301 167.755 258.306 170.441 260.704C171.74 261.801 172.769 263.062 173.939 264.312C173.992 264.094 174.044 263.877 174.02 263.595C173.876 260.201 174.025 256.924 174.673 253.676C175.613 248.842 177.064 244.178 179.613 239.918C180.428 238.643 181.396 237.497 182.44 236.415C185.044 233.64 187.266 230.543 188.965 227.135C190.482 224.098 192.217 221.113 194.398 218.374C198.063 213.877 202.387 210.461 208.246 209.256C209.362 209.02 210.63 208.913 211.769 208.958C213.343 209.109 214.695 209.988 215.97 210.803C218.368 212.304 220.443 214.186 222.453 216.145C224.005 217.717 225.827 219.125 227.379 220.697C233.182 226.38 236.877 233.164 237.708 241.326C237.899 243.58 237.59 245.806 236.988 247.915C236.871 248.209 236.83 248.567 236.713 248.861C236.648 248.937 236.725 249.002 236.801 249.066C238.404 248.718 239.995 248.229 241.533 247.957C243.905 247.473 246.389 247.476 248.756 247.773C250.981 248.081 253.26 248.173 255.579 247.906C258.668 247.503 261.376 248.48 263.797 250.263C266.154 252.122 267.233 255.65 266.202 258.575C265.629 260.185 264.685 261.613 263.894 263.17C263.583 263.693 263.273 264.216 262.91 264.956C263.473 264.908 263.755 264.885 264.101 264.784C265.217 264.548 266.332 264.312 267.46 264.217C269.151 264.074 270.068 264.848 270.134 266.475C270.165 267.678 270.067 269.035 269.598 270.21C268.685 272.842 267.631 275.485 266.36 278.077C265.153 280.591 263.946 283.106 263.327 285.855C263.222 286.289 263.181 286.648 263.076 287.082C263.434 287.123 263.651 287.176 263.792 287.164C267.315 286.866 270.511 287.732 273.742 289.02C276.168 290.021 278.466 291.175 280.323 293.005C281.722 294.448 282.711 296.068 283.095 298.093C283.231 298.863 283.085 299.655 283.027 300.654C283.397 300.835 283.909 301.005 284.496 301.239C286.975 302.023 289.466 302.948 291.775 304.244C294.314 305.732 296.518 307.462 297.948 310.109C300.366 314.375 300.018 318.662 297.968 322.951C296.568 325.695 295.103 328.515 293.779 331.324C293.234 332.434 292.842 333.674 292.438 334.772C291.566 337.046 289.994 338.598 287.952 339.622C285.498 340.823 282.933 341.536 280.279 342.044C275.395 343.025 270.427 343.019 265.512 342.795C256.462 342.353 247.962 340.02 239.831 336.165C239.384 335.919 238.744 335.902 238.18 335.95C237.476 336.009 236.707 336.145 235.938 336.281C235.938 336.281 235.873 336.358 235.809 336.434C235.885 336.499 235.897 336.64 235.973 336.704C237.184 337.595 238.318 338.422 239.529 339.313C240.587 340.075 241.516 340.99 242.433 341.764C243.591 342.873 244.672 343.917 245.83 345.025C250.169 349.342 254.238 353.824 257.11 359.259C259.311 363.472 259.961 367.817 259.151 372.498C258.591 375.952 255.734 378.251 252.633 378.513C251.224 378.632 249.727 378.545 248.294 378.383C244.059 377.818 239.906 376.537 235.688 375.332C234.308 374.952 232.992 374.495 231.676 374.039C228.598 372.879 225.491 372.219 222.267 371.853C219.324 371.463 216.511 370.92 213.908 369.508C212.644 368.834 211.369 368.019 210.159 367.128C205.621 363.821 202.217 359.638 199.739 354.667C199.65 354.462 199.562 354.256 199.321 353.922C198.676 354.686 198.107 355.515 197.45 356.138C196.588 356.85 195.725 357.561 194.698 358.003C191.013 359.733 187.167 360.413 183.126 359.619C182.116 359.42 181.17 359.146 180.16 358.947C176.606 358.041 173.129 357.199 169.563 356.152C167.378 355.485 165.193 354.818 163.254 353.705C160.792 352.281 158.91 350.169 157.492 347.663C153.438 340.838 151.398 333.489 151.436 325.538C151.468 322.554 152.075 319.665 153.628 317.05C154.056 316.233 154.701 315.469 155.334 314.564ZM235.504 249.673C235.726 248.944 235.949 248.216 236.171 247.487C237.388 243.411 236.837 239.412 235.582 235.474C233.496 229.263 229.996 223.953 225.017 219.619C224.1 218.845 223.107 218.006 222.255 217.156C220.003 214.862 217.687 212.645 214.855 211.039C212.915 209.926 211.012 209.235 208.652 209.86C206.357 210.409 204.15 211.163 202.131 212.469C201.462 212.951 200.793 213.434 200.213 214.121C198.213 216.49 196.966 219.363 196.511 222.382C196.167 224.185 195.963 225.976 195.619 227.78C194.937 232.308 193.515 236.473 190.853 240.246C188.889 243.037 186.402 245.518 184.209 248.116C182.79 249.797 181.37 251.478 180.104 253.288C178.281 256.068 177.122 259.146 176.397 262.33C175.479 265.743 175.278 269.237 176.203 272.636C176.829 274.996 177.865 277.179 178.772 279.515C178.948 279.926 179.266 280.325 179.648 280.648C180.412 281.293 181.241 281.861 182.069 282.43C182.122 282.213 182.098 281.931 182.074 281.649C181.719 279.124 181.646 276.576 181.713 274.016C181.819 269.394 182.654 264.995 184.129 260.612C185.943 255.208 188.662 250.437 192.963 246.738C194.611 245.25 196.565 244.021 198.719 243.484C203.093 242.334 206.854 244.855 207.235 249.364C207.29 250.85 207.139 252.424 206.911 253.933C206.474 256.312 205.308 258.468 204.206 260.548C202.846 262.934 202.28 265.466 202.518 268.284C202.987 272.999 202.393 277.733 201.506 282.349C200.951 285.022 200.332 287.77 199.854 290.507C199.708 291.3 199.92 292.134 199.851 292.991C200.056 292.903 200.056 292.903 200.12 292.827C200.249 292.674 200.302 292.457 200.431 292.304C201.831 289.56 203.843 287.332 206.249 285.568C207.252 284.844 207.885 283.939 208.43 282.829C208.664 282.241 208.834 281.73 209.068 281.143C211.363 274.704 214.104 268.512 218.337 263.187C220.583 260.371 223.058 257.749 225.927 255.591C228.849 253.215 232.024 251.315 235.504 249.673ZM224.123 305.63C225.726 305.282 226.87 304.546 228.026 303.952C230.467 302.61 232.909 301.269 235.426 299.992C238.907 298.349 242.535 297.617 246.335 298.077C247.41 298.199 248.549 298.244 249.547 298.302C254.322 298.537 257.613 296.343 259.893 292.248C261.071 290.232 261.662 287.982 262.328 285.797C263.048 283.395 263.92 281.121 265.01 278.9C266.047 276.897 267.008 274.828 267.751 272.708C268.337 271.239 268.693 269.577 269.126 267.979C269.336 267.11 269.253 266.123 268.606 265.185C268.042 265.232 267.39 265.074 266.686 265.134C265.635 265.294 264.596 265.594 263.545 265.754C262.981 265.802 262.365 266.067 261.871 265.257C262.181 264.734 262.48 264.07 262.779 263.406C263.634 261.773 264.566 260.204 265.281 258.582C266.399 255.862 265.567 251.887 261.929 249.995C260.743 249.385 259.644 248.982 258.347 249.588C257.731 249.853 257.038 250.053 256.434 250.459C254.814 251.448 253.206 252.577 251.587 253.565C248.488 255.53 245.142 256.239 241.56 255.832C240.485 255.709 239.551 255.575 238.476 255.453C236.391 255.133 234.254 255.03 232.14 255.208C229.68 255.487 227.473 256.241 225.378 257.482C221.059 260.118 218.051 263.991 215.437 268.328C212.963 272.653 210.925 277.083 209.409 281.823C209.175 282.411 209.006 282.922 208.719 283.727C209.206 283.615 209.476 283.45 209.822 283.35C211.812 282.543 213.849 282.3 215.899 282.198C218.024 282.16 220.069 282.839 222.166 283.3C226.001 284.183 228.207 287.615 228.287 291.086C228.361 293.634 228.152 296.207 227.368 298.685C226.649 301.088 225.559 303.309 224.123 305.63ZM262.531 288.193C262.349 288.563 262.244 288.998 262.127 289.291C261.565 291.042 260.71 292.675 259.625 294.115C257.52 296.919 254.945 299.194 251.987 301.147C247.745 303.847 243.113 305.303 238.105 305.655C234.018 306.001 229.908 306.064 225.809 306.268C224.964 306.34 224.042 306.347 223.261 306.342C221.273 308.851 218.879 310.757 215.862 312.005C216.309 312.251 216.473 312.521 216.767 312.638C217.942 313.107 219.129 313.716 220.292 314.043C223.717 315.102 227.235 315.586 230.858 315.635C237.042 315.751 243.23 315.086 249.33 314.216C255.636 313.257 261.865 312.234 268.154 311.916C270.485 311.79 272.969 311.793 275.312 311.808C276.451 311.854 277.538 312.117 278.56 312.456C280.246 313.094 281.017 314.661 280.52 316.335C280.181 317.358 279.7 318.392 279.055 319.156C277.261 321.436 274.908 322.983 272.226 323.991C269.068 325.251 265.757 326.382 262.511 327.437C257.75 329.045 252.902 330.448 248.141 332.057C245.523 332.988 242.994 334.124 240.311 335.131C240.247 335.208 240.182 335.284 239.977 335.372C240.129 335.501 240.347 335.554 240.5 335.683C242.109 336.257 243.731 336.971 245.329 337.404C248.818 338.386 252.517 338.5 256.093 337.985C258.13 337.742 260.208 337.14 262.157 336.692C263.273 336.456 264.517 336.067 265.645 335.971C267.629 335.946 269.614 335.92 271.623 336.176C274.131 336.461 276.586 336.963 279.041 337.465C281.496 337.968 283.939 338.329 286.411 338.191C288.179 338.113 289.605 337.353 290.396 335.796C290.759 335.056 291.122 334.316 291.486 333.576C292.563 331.214 293.565 328.787 294.643 326.425C295.434 324.868 296.442 323.364 297.092 321.819C299.74 316.202 298.241 310.226 293.234 306.391C291.03 304.661 288.451 303.531 285.819 302.618C284.72 302.214 283.634 301.951 282.535 301.547C282.024 301.377 281.372 301.219 281.441 300.362C282.127 299.24 281.827 298.201 281.373 297.033C280.478 294.837 279.119 293.036 277.104 291.858C273.966 289.994 270.658 288.642 267.064 288.094C265.836 287.843 264.21 287.909 262.531 288.193ZM170.424 317.618C170.323 317.271 170.235 317.066 170.223 316.925C168.717 314.214 168.326 311.266 168.281 308.219C168.135 303.122 168.998 298.224 170.284 293.289C171.138 289.953 172.221 286.81 174.032 283.89C175.105 282.309 176.242 280.651 178.32 280.05C178.143 279.639 178.043 279.293 177.802 278.958C176.425 276.094 175.317 273.066 174.633 270.001C174.52 269.514 174.537 268.874 174.425 268.386C174.277 267.476 174.259 266.414 173.776 265.745C173.105 264.524 172.165 263.468 171.159 262.489C168.285 259.538 164.917 257.481 161.345 255.512C159.188 254.346 156.838 253.409 154.407 253.189C153.409 253.131 152.334 253.009 151.283 253.169C149.668 253.376 148.307 254.059 147.592 255.68C146.995 257.008 146.462 258.259 145.864 259.587C145.384 260.621 145.045 261.643 144.412 262.548C142.964 264.729 140.933 265.894 138.42 266.39C136.959 266.726 135.485 266.922 133.959 267.335C133.33 267.459 132.726 267.864 132.186 268.194C130.772 269.094 129.752 270.457 129.102 272.003C128.024 274.364 127.804 276.796 129.621 278.984C130.409 279.911 131.273 280.902 132.202 281.817C134.124 283.571 136.175 285.172 138.162 286.849C140.237 288.732 142.236 290.55 143.847 292.826C145.7 295.437 147.629 298.113 149.276 300.812C152.33 305.876 155.77 310.482 160.484 314.2C163.364 316.369 166.688 317.082 170.424 317.618ZM194.446 337.374C194.393 337.591 194.405 337.732 194.417 337.873C195.357 343.116 196.913 348.094 200.523 352.188C202.328 354.236 204.198 356.207 206.583 357.566C209.938 359.483 213.48 360.248 217.297 360.067C219.282 360.042 221.319 359.799 223.316 359.914C224.954 359.988 226.593 360.063 228.19 360.495C230.211 360.892 231.933 361.953 233.279 363.614C234.855 365.467 236.085 367.421 237.185 369.528C237.362 369.939 237.744 370.262 237.92 370.673C238.126 370.584 238.267 370.572 238.408 370.56C239.81 369.519 241.231 369.541 242.7 370.127C243.951 370.66 245.203 371.193 246.389 371.802C248.405 372.98 250.561 374.146 252.823 374.878C253.628 375.164 254.562 375.299 255.407 375.227C256.957 375.096 257.743 374.32 258.035 372.734C258.829 368.693 258.431 364.824 256.701 361.138C254.528 356.425 251.353 352.436 247.843 348.687C246.355 347.039 244.803 345.467 243.175 343.831C241.864 342.593 240.629 341.42 239.254 340.259C238.261 339.42 237.203 338.658 236.145 337.896C235.087 337.134 234.118 336.577 232.696 336.555C229.431 336.547 226.336 336.028 223.686 334.052C214.312 338.179 204.625 339.423 194.446 337.374ZM225.186 331.655C225.01 331.244 224.821 330.692 224.439 330.369C223.739 329.648 222.963 328.862 222.006 328.446C220.002 327.409 217.793 326.46 215.66 325.576C213.528 324.692 211.319 323.743 209.356 322.348C208.298 321.585 207.035 320.911 205.783 320.379C202.106 318.844 198.47 318.655 194.897 320.872C194.087 321.367 193.342 321.784 192.455 322.214C191.158 322.82 190.495 322.522 190.299 321.048C190.204 319.921 190.261 318.922 190.307 317.783C190.49 313.226 189.645 309.111 186.84 305.303C185.558 303.566 184.816 301.5 184.702 299.31C184.576 296.978 184.45 294.647 184.118 292.405C183.887 290.508 183.503 288.483 182.99 286.61C182.477 284.737 181.618 282.965 179.948 281.687C178.738 280.795 177.599 280.75 176.555 281.831C175.317 283.142 174.22 284.441 173.506 286.063C170.284 293.289 168.725 300.872 168.969 308.799C169.007 310.925 169.314 312.886 170.121 314.876C172.088 319.677 175.187 323.602 179.225 326.88C180.83 328.235 182.499 329.513 184.244 330.856C185.531 331.811 186.678 332.779 188.029 333.658C191.103 335.598 194.515 336.516 198.033 337C202.767 337.593 207.429 337.341 212.044 336.526C215.889 335.846 219.635 334.82 223.103 333.037C224.013 332.889 224.77 332.612 225.186 331.655ZM156.292 314.98C155.482 315.474 155.195 316.279 155.343 317.189C155.539 318.662 155.734 320.136 156.147 321.662C156.872 324.369 157.251 327.175 157.131 329.953C157.109 331.374 157.24 332.924 157.5 334.321C157.708 335.936 158.326 337.374 159.431 338.7C161.084 340.618 162.401 342.778 163.578 344.949C164.338 346.375 164.631 346.492 166.146 345.938C167.185 345.638 168.212 345.196 169.251 344.895C172.521 344.123 175.714 343.285 179.063 344.279C182.182 345.08 184.861 346.557 187.254 348.839C188.959 350.54 190.933 352.076 192.703 353.701C193.543 354.41 194.489 354.685 195.499 354.884C197.367 355.152 198.112 354.734 198.662 352.842C196.39 347.783 194.323 342.635 193.5 337.099C193.065 336.994 192.695 336.812 192.402 336.695C190.281 335.952 188.289 335.055 186.544 333.713C183.282 331.221 180.161 328.717 177.028 326.072C175.652 324.911 174.47 323.521 173.289 322.13C172.348 321.074 171.677 319.854 170.865 318.645C168.41 318.143 165.967 317.781 163.576 317.203C161.109 316.56 158.771 315.764 156.292 314.98ZM197.76 303.529C197.813 303.311 197.942 303.158 197.865 303.094C197.828 300.968 198.148 298.883 198.827 296.839C199.167 295.817 199.224 294.818 198.501 293.815C198.019 293.146 197.665 292.324 197.183 291.656C195.189 289.056 194.863 286.033 195.165 282.885C195.462 280.518 196.193 278.256 197.001 276.059C198.213 272.764 199.348 269.403 200.548 265.967C201.227 263.922 201.917 262.019 203.043 260.221C204.027 258.435 204.935 256.584 205.626 254.68C206.446 252.624 206.69 250.475 206.153 248.32C205.61 245.244 203.112 243.397 200.023 243.8C198.896 243.895 197.728 244.348 196.701 244.79C194.518 245.826 192.805 247.39 191.104 249.095C189.802 250.482 188.946 252.116 188.396 254.007C187.507 256.921 187.182 259.787 187.572 262.734C187.999 266.104 188.567 269.463 189.058 272.756C189.489 275.345 189.845 277.87 189.713 280.507C189.662 282.427 189.458 284.218 189.408 286.139C189.371 289.903 189.962 293.543 191.323 297.047C191.6 297.804 191.877 298.561 192.423 299.154C193.999 301.008 195.745 302.351 197.76 303.529ZM234.836 328.285C234.672 328.015 234.583 327.809 234.483 327.463C234.17 326.283 233.253 325.509 232.219 325.029C231.262 324.613 230.24 324.273 229.229 324.075C226.992 323.625 224.83 323.24 222.669 322.855C218.205 322.097 213.794 321.121 209.944 318.395C210.197 318.87 210.439 319.205 210.756 319.604C211.773 320.724 212.714 321.78 213.796 322.824C214.801 323.803 215.871 324.707 217.34 325.292C218.808 325.878 220.212 326.54 221.693 327.266C223.174 327.993 224.525 328.872 225.502 330.351C226.237 331.495 226.22 332.135 225.164 333.076C224.971 333.305 224.842 333.458 224.507 333.699C224.877 333.88 225.107 334.074 225.26 334.203C227.927 335.539 230.858 335.788 233.764 335.755C237.094 335.687 240.223 334.926 243.228 333.537C246.438 332.059 249.801 330.71 253.2 329.785C255.484 329.095 257.703 328.482 259.986 327.792C263.99 326.46 267.928 325.205 271.92 323.732C274.191 322.902 276.351 321.584 277.976 319.815C278.169 319.585 278.427 319.28 278.544 318.986C275.58 320.017 272.802 319.897 269.872 319.648C268.938 319.514 268.08 319.444 267.147 319.31C261.773 318.7 256.418 319.152 251.199 320.374C248.904 320.922 246.696 321.677 244.601 322.918C241.761 324.577 238.997 326.301 236.234 328.025C235.887 328.125 235.565 328.507 234.836 328.285ZM235.34 327.532C237.089 326.391 238.709 325.403 240.252 324.35C243.685 322.144 247.217 320.284 251.257 319.375C256.898 318.118 262.535 317.642 268.279 318.434C270.288 318.69 272.284 318.805 274.205 318.856C275.767 318.866 277.228 318.53 278.666 317.911C279.077 317.735 279.541 317.341 279.722 316.971C280.267 315.86 280.189 314.093 278.426 313.39C277.839 313.156 277.11 312.933 276.47 312.917C275.114 312.818 273.693 312.796 272.271 312.775C265.254 312.871 258.449 313.8 251.592 314.947C244.735 316.094 237.918 316.883 230.953 316.762C225.627 316.715 220.488 315.517 215.793 312.862C215.193 312.487 214.618 312.394 213.99 312.518C211.823 312.914 209.686 312.811 207.589 312.349C207.295 312.232 206.872 312.268 206.437 312.163C206.769 314.405 207.963 315.937 209.491 317.227C211.936 319.291 214.797 320.398 217.763 321.07C220.295 321.636 222.815 322.062 225.411 322.552C227.214 322.897 229.158 323.229 230.908 323.791C232.864 324.264 234.651 325.249 235.34 327.532ZM196.452 356.08C196.376 356.016 196.364 355.875 196.287 355.81C193.421 355.485 192.222 354.735 190.3 352.981C188.531 351.356 186.826 349.655 184.928 348.184C181.807 345.68 178.229 344.492 174.219 344.902C171.823 345.104 169.528 345.653 167.256 346.483C166.845 346.66 166.358 346.772 165.871 346.884C164.344 347.297 163.821 346.986 162.998 345.637C162.833 345.367 162.745 345.161 162.58 344.891C161.362 343.078 160.35 341.177 159.004 339.516C157.263 337.393 156.485 334.904 156.259 332.226C156.176 331.24 156.169 330.318 156.226 329.32C156.253 327.118 155.998 324.939 155.461 322.785C155.048 321.258 154.841 319.644 154.428 318.118C154.404 317.836 154.316 317.63 154.216 317.284C152.727 319.822 152.237 322.418 152.181 325.12C152.079 333.147 154.195 340.561 158.326 347.451C159.808 349.88 161.754 351.915 164.345 353.187C165.902 353.978 167.653 354.539 169.327 355.037C173.327 356.189 177.316 357.2 181.38 358.276C185.586 359.34 189.685 359.136 193.717 357.305C194.768 357.145 195.642 356.575 196.452 356.08ZM216.194 304.171C217.936 302.108 219.46 299.992 220.461 297.566C220.93 296.391 221.398 295.216 222.008 294.029C222.81 292.613 222.55 291.216 221.739 290.007C220.674 288.323 218.911 287.62 217.003 287.71C215.799 287.741 214.76 288.042 213.568 288.213C212.107 288.55 210.721 288.951 209.248 289.146C207.081 289.542 205.091 290.349 203.519 291.901C202.733 292.677 202.024 293.517 201.379 294.282C198.488 297.861 198.128 302.007 199.202 306.316C199.438 307.432 200.097 308.511 201.014 309.285C203.588 311.197 206.237 311.47 209.089 309.952C211.941 308.433 214.259 306.463 216.194 304.171ZM199.183 351.45C199.183 351.45 199.119 351.526 199.042 351.462C199.131 351.667 199.154 351.949 199.319 352.219C201.744 357.407 204.979 362.101 209.476 365.766C212.138 367.883 215.047 369.554 218.371 370.266C220.468 370.728 222.541 370.907 224.638 371.369C226.518 371.778 228.474 372.251 230.365 372.801C234.583 374.006 238.748 375.428 242.966 376.633C245.433 377.276 247.94 377.561 250.384 377.922C251.676 378.097 253.009 377.913 254.241 377.383C255.268 376.942 256.36 376.424 256.905 375.313C255.995 375.461 255.085 375.609 254.227 375.54C252.512 375.401 250.903 374.827 249.41 373.96C247.407 372.923 245.468 371.809 243.476 370.913C241.854 370.198 240.268 369.906 238.737 371.1C238.133 371.506 237.698 371.401 237.216 370.732C237.051 370.462 236.963 370.257 236.798 369.987C235.886 368.432 235.051 366.941 234.01 365.539C232.069 362.722 229.518 361.093 226.088 360.815C225.231 360.745 224.515 360.664 223.734 360.659C221.89 360.673 220.046 360.687 218.214 360.841C211.361 361.207 205.627 358.853 201.141 353.626C200.365 352.84 199.806 352.107 199.183 351.45ZM161.46 315.678C161.525 315.602 161.525 315.602 161.513 315.461C161.207 315.203 160.978 315.01 160.672 314.751C157.523 312.747 154.889 310.131 152.795 307.185C150.701 304.24 148.736 301.142 146.848 298.108C144.807 294.945 142.56 291.871 139.785 289.266C137.011 286.662 134.031 284.147 131.191 281.619C129.969 280.587 128.863 279.261 128.169 277.758C128.157 277.617 128.004 277.488 127.763 277.154C127.636 279.01 127.843 280.624 128.115 282.163C128.936 285.996 130.437 289.488 132.349 292.804C135.35 298.086 139.02 302.885 143.886 306.732C145.097 307.623 146.308 308.514 147.583 309.329C151.561 311.902 155.839 313.812 160.362 315.274C160.744 315.597 161.102 315.638 161.46 315.678ZM191.292 321.887C192.114 321.533 192.654 321.204 193.129 320.951C194.491 320.268 195.917 319.509 197.355 318.891C198.036 318.549 198.869 318.337 199.65 318.342C201.852 318.369 204.078 318.677 206.006 319.65C207.563 320.441 209.132 321.373 210.701 322.305C211.67 322.862 212.652 323.559 213.662 323.758C212.021 321.98 210.24 320.215 208.664 318.361C207.012 316.443 205.9 314.195 205.198 311.771C203.06 311.667 201.503 310.876 200.04 309.51C198.717 308.131 198.139 306.335 197.779 304.591C192.578 300.986 188.046 296.898 184.957 291.411C185.018 293.819 185.285 296.138 185.411 298.469C185.561 301.082 186.327 303.43 187.927 305.566C189.856 308.241 190.963 311.27 191.032 314.599C191.098 316.226 191.024 317.864 191.026 319.567C191.226 320.26 191.285 320.965 191.292 321.887ZM198.517 215.045C196.446 216.569 194.768 218.555 193.385 220.659C191.626 223.362 190.162 226.183 188.556 229.015C187.067 231.553 185.643 234.015 183.402 236.05C182.282 237.067 181.391 238.278 180.499 239.488C178.342 242.509 177.218 246.01 176.159 249.435C174.773 254.023 174.538 258.797 174.725 263.536C174.749 263.818 174.837 264.023 174.925 264.228C175.71 261.749 176.405 259.065 177.33 256.574C179.075 252.027 182.324 248.488 185.585 245.09C187.544 243.08 189.286 241.017 190.786 238.619C193.412 234.424 194.646 229.707 195.304 224.897C195.799 221.52 196.436 218.131 198.517 215.045ZM187.429 255.153C187.429 255.153 187.352 255.089 187.288 255.165C187.171 255.459 186.977 255.688 186.86 255.982C186.731 256.135 186.679 256.352 186.626 256.569C183.615 262.927 182.342 269.705 182.438 276.722C182.442 280.128 182.869 283.498 184.065 286.732C185.184 289.902 186.702 292.754 188.708 295.494C189.267 296.227 189.954 296.808 190.589 297.606C190.654 297.529 190.718 297.453 190.859 297.441C190.571 296.543 190.358 295.709 190.069 294.811C189.043 291.066 188.863 287.249 188.964 283.409C188.974 281.847 189.202 280.337 189.135 278.711C188.98 276.879 188.685 275.059 188.465 273.303C188.11 270.779 187.55 268.342 187.271 265.882C186.916 263.357 186.637 260.897 187.063 258.378C187.032 257.174 187.23 256.164 187.429 255.153ZM208.157 311.521C208.375 311.573 208.451 311.638 208.527 311.702C211.905 312.197 215.069 311.859 218.039 310.047C220.738 308.4 222.814 306.096 224.355 303.34C225.897 300.584 226.939 297.799 227.24 294.651C227.403 293.218 227.208 291.745 226.601 290.448C225.83 288.881 224.555 288.066 222.637 289.718C222.725 289.924 222.737 290.064 222.825 290.27C223.661 291.76 223.422 293.129 222.619 294.545C222.127 295.438 221.787 296.46 221.371 297.418C221.137 298.006 220.967 298.517 220.657 299.04C219.596 300.761 218.459 302.419 217.18 304.088C215.838 305.833 214.277 307.526 212.4 308.82C211.127 309.708 209.712 310.609 208.157 311.521ZM257.724 248.931C257.712 248.79 257.635 248.725 257.624 248.585C256.919 248.644 256.202 248.563 255.498 248.622C253.396 248.942 251.258 248.838 249.173 248.518C244.07 247.743 239.109 248.658 234.548 250.96C232.236 252.149 230.089 253.607 227.853 254.861C227.583 255.025 227.389 255.255 227.119 255.419C227.337 255.472 227.619 255.448 227.759 255.436C230.853 254.252 234.17 254.043 237.471 254.474C238.904 254.637 240.337 254.799 241.77 254.962C244.918 255.264 247.93 254.797 250.629 253.149C252.184 252.237 253.727 251.185 255.282 250.273C256.104 249.919 256.914 249.425 257.724 248.931ZM286.237 339.483C286.16 339.419 286.225 339.342 286.148 339.278C285.367 339.273 284.586 339.268 283.87 339.186C281.209 338.772 278.549 338.358 275.812 337.88C272.423 337.244 269.046 336.749 265.611 337.252C264.073 337.524 262.47 337.872 260.932 338.144C257.726 338.84 254.521 339.537 251.091 339.259C250.874 339.206 250.668 339.295 250.528 339.306C250.91 339.629 251.28 339.811 251.638 339.851C254.898 340.64 258.029 341.582 261.435 341.578C264.201 341.558 267.014 342.1 269.78 342.08C274.965 342.138 280.026 341.569 284.851 339.884C285.415 339.836 285.826 339.66 286.237 339.483ZM226.378 305.44C226.671 305.557 226.812 305.545 226.889 305.609C231.052 305.329 235.303 305.253 239.454 304.832C244.657 304.25 249.329 302.436 253.536 299.313C253.805 299.149 254.064 298.843 254.257 298.614C254.181 298.549 254.104 298.485 254.169 298.408C251.756 299.251 249.196 299.183 246.688 298.898C242.747 298.451 238.978 299.195 235.433 300.914C232.98 302.114 230.539 303.456 228.086 304.657C227.457 304.781 226.982 305.034 226.378 305.44ZM198.864 293.075C198.898 291.795 198.815 290.808 198.949 289.874C199.269 287.789 199.654 285.628 200.192 283.595C201.572 278.086 202.094 272.507 201.618 266.87C201.594 266.588 201.506 266.383 201.47 265.96C201.353 266.254 201.224 266.406 201.236 266.547C200.112 270.048 198.989 273.55 197.789 276.986C197.045 279.107 196.367 281.151 196.199 283.365C196.124 285.004 196.114 286.566 196.386 288.104C196.594 289.718 197.787 291.25 198.864 293.075ZM222.855 285.584C222.461 285.12 222.208 284.645 221.762 284.399C220.945 283.971 220.128 283.543 219.259 283.333C215.934 282.62 212.552 282.906 209.406 284.307C206.196 285.785 203.774 288.189 201.81 290.981C201.241 291.81 200.672 292.638 200.691 293.701C201.155 293.307 201.477 292.925 201.8 292.543C203.811 290.315 206.164 288.768 209.176 288.301C210.086 288.153 210.996 288.005 211.894 287.716C214.524 286.926 217.202 286.7 219.955 286.538C220.877 286.532 221.852 286.307 222.855 285.584ZM134.503 266.224L134.515 266.365C135.707 266.193 136.887 265.881 138.079 265.709C141.502 265.065 143.819 263.095 145.031 259.8C145.54 258.266 146.266 256.786 146.993 255.305C147.227 254.718 147.679 254.183 148.13 253.648C146.745 254.049 145.073 255.254 143.835 256.565C141.501 259.175 139.09 261.721 136.68 264.266C136.035 265.03 135.237 265.665 134.503 266.224ZM223.336 284.55C223.701 285.512 223.478 286.241 222.821 286.864C222.358 287.258 222.47 287.745 222.8 288.285C223.569 288.149 224.326 287.872 225.042 287.954C225.759 288.035 226.37 288.551 227.187 288.979C226.316 287.066 225.468 285.434 223.336 284.55Z" fill="#B38451"/>
</svg>
