<svg width="441" height="457" viewBox="0 0 441 457" fill="none" xmlns="http://www.w3.org/2000/svg">
<path d="M146.46 183.156C149.447 179.719 152.205 176.474 155.027 173.307C158.002 170.01 161.3 167.095 164.867 164.345C168.347 161.801 172.007 159.626 175.914 157.898C178.047 157.014 180.244 156.206 182.365 155.463C182.659 155.346 182.876 155.293 183.246 155.111C182.706 154.782 182.272 154.887 181.901 155.069C179.781 155.812 177.66 156.556 175.527 157.44C171.914 159.051 168.418 160.955 165.309 163.318C163.716 164.532 162.135 165.605 160.672 166.971C158.673 168.789 156.739 170.684 154.934 172.731C152.823 175.036 150.777 177.418 148.795 179.876C148.072 180.88 147.413 181.959 146.46 183.156Z" fill="black"/>
<path d="M121.341 109.22C134.138 118.178 147.012 127.071 158.297 137.96C158.01 137.155 157.353 136.532 156.773 135.844C153.887 133.045 150.772 130.44 147.657 127.836C142.74 123.872 137.671 120.038 132.437 116.473C129.016 114.126 125.519 111.844 122.022 109.561C121.816 109.473 121.546 109.308 121.341 109.22Z" fill="black"/>
<path d="M158.113 109.062C152.115 90.1763 151.315 71.0907 155.365 51.7053C150.957 71.1314 151.757 90.217 158.113 109.062Z" fill="black"/>
<path d="M166.777 152.656C166.161 152.391 165.621 152.061 165.069 151.873C159.306 149.541 153.37 148.401 147.069 148.223C140.487 148.022 134.313 149.7 128.544 152.477C126.029 153.684 123.655 154.903 121.27 156.262C120.899 156.444 120.594 156.702 120.517 156.766C123.913 155.208 127.397 153.445 131.011 151.834C135.135 150.054 139.417 148.925 143.833 148.73C150.093 148.55 156.294 149.073 162.21 151.276C163.725 151.83 165.175 152.307 166.689 152.861C166.765 152.797 166.777 152.656 166.777 152.656Z" fill="black"/>
<path d="M100.753 83.2827C101.651 83.5714 102.537 84.0011 103.435 84.2899C108.607 86.0751 113.59 88.412 118.002 91.6233C120.947 93.7171 123.805 96.0164 126.573 98.5211C127.436 99.2326 128.375 99.8796 129.237 100.591C130.627 101.773 131.929 103.16 133.396 104.278C132.352 103.196 131.308 102.114 130.264 101.033C129.285 100.027 128.305 99.0222 127.237 98.2224C125.782 96.9641 124.316 95.8467 122.861 94.5884C119.476 91.8187 115.938 89.1781 112.058 87.2182C108.654 85.5114 105.074 84.2154 101.481 83.0604C101.276 82.972 101.135 82.9602 100.918 83.0128C100.777 83.0008 100.765 83.1418 100.753 83.2827Z" fill="black"/>
<path d="M100.02 185.194C100.808 184.267 101.596 183.34 102.449 182.49C104.407 180.313 106.429 178.213 108.246 176.025C111.462 172.394 114.925 169.209 118.721 166.266C120.543 164.858 122.482 163.745 124.433 162.49C124.739 162.232 125.109 162.051 125.403 161.934C125.339 161.857 125.35 161.716 125.286 161.64C124.992 161.757 124.558 161.862 124.264 161.979C121.814 163.262 119.569 164.634 117.429 166.44C115.213 168.311 112.997 170.182 110.975 172.282C107.248 176.083 103.649 180.036 100.45 184.308C100.285 184.578 100.121 184.847 100.02 185.194C99.9558 185.117 100.02 185.194 100.02 185.194Z" fill="black"/>
<path d="M117.34 126.339C110.726 123.154 103.882 120.164 97.5206 116.504C94.4104 114.68 91.3886 112.651 88.6842 110.222C88.1563 109.752 87.6402 109.141 87.0359 108.735C87.5807 109.845 88.4957 110.774 89.4226 111.562C92.3969 114.155 95.7006 116.208 99.0926 118.056C104.797 121.092 110.666 123.859 116.647 126.138C116.853 126.227 117.058 126.315 117.34 126.339Z" fill="black"/>
<path d="M159.977 96.2338C160.216 97.6023 160.379 99.0352 160.618 100.404C161.797 106.606 163.117 112.82 165.524 118.772C166.994 122.373 168.769 125.716 170.98 128.954C171.806 130.089 172.697 131.299 173.6 132.369C173.859 132.675 174.269 132.852 174.616 132.952C173.789 131.817 172.962 130.683 172.136 129.549C169.398 125.84 167.323 121.833 165.631 117.503C163.406 111.922 162.191 106.143 160.976 100.363C160.737 98.9946 160.434 97.5496 160.194 96.1811C160.118 96.2457 160.118 96.2457 159.977 96.2338Z" fill="black"/>
<path d="M145.705 88.7832C145.054 77.1614 144.327 65.604 147.84 54.2629C147.699 54.251 147.635 54.1746 147.494 54.1627C147.317 54.5736 147.141 54.9844 147.04 55.3308C145.821 58.8468 145.165 62.4105 144.92 66.1508C144.377 73.4141 144.475 80.6605 145.494 87.9139C145.611 88.2076 145.664 88.425 145.705 88.7832Z" fill="black"/>
<path d="M209.994 145.095C208.379 144.887 206.7 144.603 205.085 144.396C202.138 144.005 199.243 143.832 196.313 144.081C193.881 144.301 191.503 144.739 189.27 145.969C188.747 146.28 188.288 146.667 187.765 146.978C187.46 147.236 187.154 147.494 186.708 147.74C184.662 144.232 181.664 141.921 178.348 140.008C179.868 141.343 181.476 142.472 182.842 143.936C184.209 145.4 185.422 146.993 186.777 148.597C188.365 146.603 190.703 145.807 193.093 145.228C195.919 144.544 198.696 144.424 201.527 144.521C203.5 144.688 205.537 144.931 207.51 145.098C208.355 145.169 209.125 145.305 209.894 145.441C209.982 145.235 209.917 145.159 209.994 145.095Z" fill="black"/>
<path d="M150.503 108.42C151.165 109.824 151.674 111.357 152.413 112.697C154.926 117.38 157.593 121.934 161.165 125.855C163.112 128.006 165.377 129.758 167.882 131.177C168.358 131.43 168.821 131.824 169.562 131.46C169.368 131.231 169.239 131.078 169.098 131.066C166.041 129.46 163.389 127.249 161.119 124.715C157.741 121.024 155.256 116.84 152.859 112.451C152.121 111.111 151.394 109.63 150.656 108.291C150.58 108.355 150.58 108.355 150.503 108.42Z" fill="black"/>
<path d="M158.035 141.06C147.154 135.457 136.35 129.79 125.47 124.187C125.393 124.252 125.381 124.393 125.381 124.393C135.763 130.024 146.221 135.591 156.779 140.812C157.19 140.989 157.536 141.089 158.023 141.201L158.035 141.06Z" fill="black"/>
<path d="M209.27 89.8245C208.406 90.8159 207.477 91.7309 206.753 92.7342C204.683 95.3978 202.396 98.1141 200.66 101.019C197.101 107.034 193.94 113.366 192.294 120.253C192.082 121.086 192.01 121.932 192.08 122.789C193.59 116.672 195.857 110.832 198.741 105.256C201.625 99.6811 205.383 94.6763 209.27 89.8245Z" fill="black"/>
<path d="M168.699 48.4322C168.611 48.6376 168.534 48.7021 168.522 48.8431C169.405 52.6786 169.16 56.4189 168.979 60.2357C168.787 64.1933 168.377 68.2036 168.044 72.1493C168.032 72.2902 168.02 72.4311 168.213 72.6604C168.337 72.0322 168.461 71.404 168.509 70.8403C169.355 65.0219 169.855 59.1033 169.715 53.2016C169.658 52.2033 169.536 51.1285 169.414 50.0538C169.461 49.4901 169.292 48.979 168.699 48.4322Z" fill="black"/>
<path d="M182.971 164.243C181.761 165.134 180.861 166.548 179.961 167.962C176.778 172.873 174.2 178.191 171.904 183.532C170.579 186.613 169.395 189.707 168.135 192.864C168.035 193.211 167.858 193.622 167.822 194.044C172.174 183.697 176.461 173.272 182.971 164.243Z" fill="black"/>
<path d="M106.022 112.468C99.5627 107.451 92.6209 103.104 87.0375 96.9551C86.9611 97.0196 86.8847 97.0841 86.8083 97.1486C87.0018 97.3778 87.1189 97.6716 87.3124 97.9008C89.2883 100.551 91.811 102.61 94.4866 104.539C98.0364 107.038 101.727 109.55 105.277 112.05C105.482 112.138 105.752 112.303 106.022 112.468Z" fill="black"/>
<path d="M134.069 147.551C144.112 146.27 154.048 146.258 163.55 150.538C163.627 150.474 163.638 150.333 163.638 150.333C163.304 150.092 163.034 149.927 162.623 149.75C158.515 147.984 154.335 147.063 149.902 146.618C145.046 146.136 140.324 146.589 135.514 147.247C135.079 147.352 134.504 147.446 134.069 147.551Z" fill="black"/>
<path d="M179.659 184.967C181.812 177.131 182.925 168.993 186.334 161.404C186.269 161.328 186.128 161.316 186.064 161.239C185.823 161.574 185.581 161.908 185.481 162.255C184.357 164.643 183.438 167.12 182.865 169.698C181.833 174.365 180.8 179.032 179.831 183.776C179.654 184.186 179.619 184.609 179.659 184.967Z" fill="black"/>
<path d="M158.371 175.718C160.188 173.53 161.994 171.482 163.799 169.435C166.392 166.461 169.384 163.804 172.493 161.441C173.933 160.357 175.566 159.501 177.147 158.428C176.853 158.545 176.495 158.586 176.201 158.703C174.709 159.571 173.216 160.438 171.788 161.382C170.807 162.079 169.684 162.765 168.832 163.616C165.064 167.058 161.695 170.819 158.713 175.037C158.625 175.243 158.536 175.448 158.371 175.718Z" fill="black"/>
<path d="M171.444 195.698C169.64 201.933 168.388 208.355 167.429 214.661C167.257 215.853 167.257 215.853 167.673 216.811C168.921 209.607 170.144 202.685 171.444 195.698Z" fill="black"/>
<path d="M128.962 197.929C130.103 196.18 130.745 194.46 131.58 192.97C132.428 191.338 133.352 189.642 134.264 188.087C135.176 186.532 136.164 184.912 137.076 183.357C138.052 181.878 139.105 180.335 139.929 178.986C137.584 180.703 129.224 194.828 128.962 197.929Z" fill="black"/>
<path d="M93.5979 121.778C101.254 127.748 110.376 130.647 119.422 133.611C110.553 130.236 101.507 127.272 93.5979 121.778Z" fill="black"/>
<path d="M117.647 94.1478C111.158 88.6323 103.975 84.6193 95.6801 82.854C95.6036 82.9185 95.5917 83.0594 95.5917 83.0594C98.2097 83.9902 100.84 84.7801 103.446 85.8518C105.975 86.988 108.428 88.1887 110.87 89.5304C113.094 90.9246 115.294 92.6007 117.647 94.1478Z" fill="black"/>
<path d="M167.541 111.704C167.593 111.921 167.569 112.203 167.622 112.42C169.095 118.506 171.067 124.562 173.856 130.191C174.271 131.148 174.905 132.053 175.538 132.959C175.848 133.482 176.324 133.735 176.787 134.129C176.864 134.064 176.94 134 177.016 133.935C176.952 133.859 176.899 133.641 176.835 133.565C175.597 132.254 174.73 130.761 174.015 129.14C171.344 123.805 169.553 118.119 167.98 112.38C167.863 112.086 167.822 111.728 167.77 111.51C167.617 111.639 167.541 111.704 167.541 111.704Z" fill="black"/>
<path d="M97.7768 154.632C97.9297 154.503 98.147 154.451 98.2998 154.322C100.451 152.375 102.966 151.168 105.61 150.114C108.764 148.89 111.843 147.731 114.986 146.648C114.845 146.636 114.704 146.624 114.486 146.677C109.705 147.834 105.17 149.438 100.857 151.77C100.04 152.198 99.3527 152.779 98.6005 153.283C98.2184 153.605 97.9009 154.004 97.5069 154.468C97.6478 154.48 97.7123 154.556 97.7768 154.632Z" fill="black"/>
<path d="M176.171 216.18C174.508 222.426 173.256 228.849 170.348 234.706C170.413 234.783 170.477 234.859 170.477 234.859C170.63 234.73 170.924 234.613 171.012 234.407C171.53 233.316 172.125 232.16 172.502 231.056C173.48 227.875 174.318 224.681 175.155 221.487C175.48 220.167 175.74 218.769 175.923 217.437C176.176 216.961 176.147 216.462 176.171 216.18Z" fill="black"/>
<path d="M186.802 142.426C186.814 142.285 186.902 142.079 186.849 141.862C186.918 138.533 188.488 135.898 190.817 133.54C193.374 130.988 196.67 129.776 200.094 128.718C200.388 128.6 200.682 128.483 201.052 128.302C198.303 128.921 195.683 129.693 193.286 131.194C190.735 132.823 188.507 134.835 187.271 137.711C186.665 139.008 186.34 140.329 186.503 141.762C186.555 141.979 186.608 142.196 186.661 142.414C186.661 142.414 186.725 142.49 186.802 142.426Z" fill="black"/>
<path d="M164.01 200.535C164.63 197.394 165.238 194.394 166.475 191.518C167.711 188.642 169.012 185.842 170.237 183.107C167.384 187.479 163.281 196.57 164.01 200.535Z" fill="black"/>
<path d="M205.006 131.9C211.024 132.054 217.031 132.348 222.683 135.167C222.396 134.362 222.396 134.362 221.78 134.098C219.778 133.432 217.853 132.701 215.828 132.317C212.546 131.685 209.293 131.552 205.939 131.766C205.581 131.807 205.364 131.859 205.006 131.9Z" fill="black"/>
<path d="M220.552 67.9987C214.858 70.711 210.508 75.169 206.621 80.0208C208.085 78.6543 209.56 77.1468 211.024 75.7803C212.564 74.3492 214.104 72.9181 215.709 71.5635C217.237 70.2733 219.088 69.3653 220.552 67.9987Z" fill="black"/>
<path d="M101.212 165.212C96.3571 168.918 92.0949 173.17 88.8122 178.428C89.3114 178.399 89.5525 178.065 89.7937 177.731C91.6464 175.119 93.6926 172.738 95.9443 170.444C97.6492 168.743 99.4186 167.119 101.2 165.353L101.212 165.212C101.288 165.148 101.212 165.212 101.212 165.212Z" fill="black"/>
<path d="M148.182 172.019C150.756 170.107 153.366 167.773 156.222 165.886C159.078 163.998 162.051 162.404 165.177 160.681C160.883 161.951 149.6 169.513 148.182 172.019Z" fill="black"/>
<path d="M186.217 155.221C186.99 157.841 188.526 159.815 190.661 161.415C193.273 163.268 196.213 164.581 199.342 165.342C199.072 165.177 198.726 165.077 198.52 164.988C196.273 163.876 193.948 162.828 191.853 161.587C189.758 160.345 188.069 158.499 187.056 156.214C186.874 155.844 186.693 155.474 186.511 155.104C186.37 155.092 186.294 155.156 186.217 155.221Z" fill="black"/>
<path d="M197.513 121.474C198.817 121.159 199.863 120.537 200.727 119.546C201.58 118.695 202.432 117.845 203.22 116.918C204.949 114.935 206.613 112.876 208.136 110.805C204.714 114.348 201.732 118.566 197.513 121.474Z" fill="black"/>
<path d="M187.711 148.463C192.299 147.077 196.873 147.534 201.458 147.851C201.881 147.886 202.227 147.987 202.574 148.087C202.586 147.946 202.662 147.881 202.598 147.805C201.547 147.645 200.496 147.486 199.509 147.402C196.409 147.14 193.438 147.031 190.278 147.474C189.433 147.402 188.358 147.525 187.711 148.463Z" fill="black"/>
<path d="M216.747 103.797C215.391 108.082 212.763 111.479 210.275 114.888C212.913 113.053 216.955 106.369 216.747 103.797Z" fill="black"/>
<path d="M143.653 136.581C149.064 139.734 156.882 142.949 158.251 142.71C153.526 140.679 148.519 138.624 143.653 136.581Z" fill="black"/>
<path d="M206.136 160.522C205.314 160.169 204.316 160.227 203.418 159.938C202.52 159.649 201.621 159.36 200.735 158.931C199.914 158.577 199.092 158.224 198.206 157.794C197.319 157.365 196.498 157.012 195.523 156.787C196.063 157.117 196.462 157.434 197.078 157.699C198.851 158.559 200.764 159.43 202.613 160.225C203.435 160.578 204.421 160.661 205.255 160.874C205.536 160.897 205.83 160.78 206.112 160.804C206.124 160.663 206.2 160.599 206.136 160.522Z" fill="black"/>
<path d="M130.073 217.537C131.662 213.839 133.252 210.142 134.753 206.649C133.089 208.709 129.793 215.81 130.073 217.537Z" fill="black"/>
<path d="M143.224 75.3037C143.605 70.7943 143.628 66.3256 144.637 61.9402C143 66.2015 143.041 70.7467 143.224 75.3037Z" fill="black"/>
<path d="M168.937 200.17C167.252 204.995 166.429 210.532 167.168 211.871C167.707 208.014 168.322 204.092 168.937 200.17Z" fill="black"/>
<path d="M190.969 123.334C191.051 118.161 192.736 113.336 194.357 108.434C192.557 111.263 190.338 120.726 190.969 123.334Z" fill="black"/>
<path d="M164.81 137.303C168.45 137.895 171.496 139.642 174.542 141.39C172.095 139.267 169.449 137.837 166.319 137.076C165.844 136.823 165.292 136.635 164.81 137.303Z" fill="black"/>
<path d="M185.004 153.628C181.376 152.896 178.43 150.802 175.232 149.183C178.33 151.148 181.187 153.447 185.004 153.628Z" fill="black"/>
<path d="M171.661 61.2429C172.093 58.6538 172.114 55.888 171.929 53.0339C171.9 52.5347 171.795 52.1 171.69 51.6654C171.702 51.5245 171.496 51.4361 171.356 51.4242C171.428 54.7656 171.577 58.0425 171.661 61.2429Z" fill="black"/>
<path d="M228.31 154.235C231.11 155.536 233.91 156.837 236.915 158.226C236.733 157.856 236.68 157.639 236.475 157.55C233.905 156.056 231.246 154.767 228.31 154.235Z" fill="black"/>
<path d="M94.6495 105.972C92.1268 103.914 89.6041 101.856 87.0169 99.721C87.0983 100.437 87.4973 100.755 87.8317 100.996C89.9435 102.878 92.2082 104.63 94.6495 105.972Z" fill="black"/>
<path d="M91.9907 176.923C89.5098 179.41 87.146 182.19 85.5801 185.606C87.7385 182.737 89.8324 179.792 91.9907 176.923Z" fill="black"/>
<path d="M94.5599 91.9135C92.2952 90.161 90.0951 88.4849 87.8304 86.7324C87.754 86.7969 87.6776 86.8614 87.6011 86.9259C87.7947 87.1552 87.9118 87.4489 88.0408 87.6018C90.1119 89.125 92.2476 90.7247 94.3187 92.248C94.4716 92.1189 94.4835 91.978 94.5599 91.9135Z" fill="black"/>
<path d="M92.2632 195.538C90.5226 197.662 88.6649 199.492 86.8479 201.68C88.1519 201.364 91.2272 197.721 92.2632 195.538Z" fill="black"/>
<path d="M186.711 154.411C186.958 154.857 187.127 155.368 187.45 155.75C188.998 157.584 191.093 158.826 193.135 159.85C191.023 157.968 188.277 156.885 187.017 154.153C186.929 154.358 186.788 154.346 186.711 154.411Z" fill="black"/>
<path d="M163.52 145.852C163.116 144.754 162.777 143.731 162.373 142.633C161.84 141.381 161.871 140.178 162.606 139.033C162.682 138.969 162.694 138.828 162.706 138.687L162.642 138.611C161.672 139.167 161.254 139.913 161.453 140.923C161.721 142.791 162.435 144.412 163.52 145.852Z" fill="black"/>
<path d="M206.169 115.606C204.388 117.371 202.542 119.061 200.761 120.826C203.135 119.607 204.517 117.524 206.169 115.606Z" fill="black"/>
<path d="M133.63 213.225C132.642 214.845 131.654 216.464 131.422 218.361C132.411 216.741 133.053 215.021 133.63 213.225Z" fill="black"/>
<path d="M186.563 151.134C186.001 149.383 184.687 148.137 183.208 147.16C184.305 148.459 185.401 149.758 186.563 151.134Z" fill="black"/>
<path d="M221.76 68.8105C219.922 69.5776 218.663 71.0325 217.211 72.2581C218.792 71.1853 220.373 70.1125 221.954 69.0397C221.889 68.9633 221.825 68.8869 221.76 68.8105Z" fill="black"/>
<path d="M222.781 136.524C221.174 135.395 219.354 135.099 217.457 134.868C219.177 135.51 220.985 135.946 222.781 136.524Z" fill="black"/>
<path d="M169.669 140.269C168.343 139.163 166.981 138.48 165.455 138.068C165.379 138.132 165.367 138.273 165.29 138.338C166.728 138.956 168.166 139.574 169.669 140.269Z" fill="black"/>
<path d="M162.158 135.093C161.884 134.147 161.532 133.266 161.257 132.32C160.634 132.977 160.921 133.782 162.158 135.093Z" fill="black"/>
<path d="M405.685 325.125C399.258 317.202 392.767 309.202 386.417 301.215C380.764 294.208 375.328 287.15 369.599 280.208C366.45 276.323 363.072 272.631 359.77 268.875C356.392 265.184 353.078 261.569 349.612 258.082C347.318 255.831 344.872 253.708 342.426 251.585C328.675 239.637 312.647 231.968 295.795 225.648C290.982 223.822 286.133 222.419 281.131 221.145C277.104 220.095 273.065 219.186 269.038 218.136C256.88 215.051 245.77 209.642 235.367 202.589C227.381 197.16 219.7 191.473 212.362 185.105C208.795 181.965 205.293 178.902 201.726 175.762C201.661 175.685 201.597 175.609 201.48 175.315C202.519 175.616 203.429 175.764 204.403 175.988C206.979 178.263 209.619 180.615 212.27 182.826C223.47 192.217 235.063 201.144 248.027 208.129C254.811 211.825 262.113 214.429 269.539 216.404C272.245 217.13 274.799 217.984 277.593 218.504C282.131 219.384 286.569 220.61 291.06 222.054C306.252 227.028 320.66 233.709 333.956 242.638C336.773 244.579 339.577 246.661 342.153 248.937C345.59 251.924 348.799 255.104 352.019 258.144C359.299 265.216 366.119 272.676 372.405 280.587C376.716 285.848 380.808 291.161 385.042 296.486C389.018 301.505 392.929 306.448 396.981 311.403C400.311 315.658 403.642 319.914 407.049 324.104C407.202 323.975 407.431 323.782 407.584 323.653C406.487 322.354 405.391 321.055 404.435 319.768C402.383 317.182 400.407 314.531 398.354 311.945C393.992 306.467 389.564 300.913 385.202 295.435C381.42 290.645 377.702 285.931 373.92 281.141C369.686 275.816 365.288 270.761 360.596 265.823C358.056 263.125 355.517 260.426 352.889 257.933C349.205 254.5 345.445 251.131 341.684 247.762C332.721 239.624 321.969 234.174 311.117 229.071C300.741 224.22 289.923 220.397 278.78 217.894C272.997 216.625 267.174 214.998 261.58 213.177C253.303 210.349 245.633 206.224 238.445 201.43C229.098 195.318 220.297 188.614 211.902 181.305C207.936 177.848 204.047 174.326 200.158 170.804C200.029 170.651 199.823 170.563 199.694 170.41C198.414 170.444 197.199 170.554 195.842 170.652C196.035 170.881 196.229 171.111 196.499 171.275C202.746 177.125 209.07 182.911 215.711 188.297C225.068 195.971 234.82 203.182 245.459 209.119C251.692 212.626 258.342 215.387 265.192 217.456C270.182 218.871 275.236 220.363 280.25 221.496C297.662 225.38 313.509 232.679 328.637 241.763C335.192 245.652 340.959 250.468 346.561 255.554C350.837 259.534 354.961 263.644 358.843 268.087C361.94 271.755 365.406 275.241 368.426 278.974C374.155 285.915 379.744 292.845 385.396 299.851C390.275 305.94 395.077 312.094 399.956 318.183C401.557 320.234 403.158 322.286 404.835 324.272C405.157 324.654 405.339 325.024 405.585 325.471C405.303 325.447 405.533 325.254 405.685 325.125Z" fill="black"/>
<path d="M98.4636 159.942C98.0171 160.188 97.4941 160.498 96.983 160.668C94.9149 161.629 93.4393 163.136 92.4797 165.255C91.4437 167.438 90.6895 169.645 90.2817 171.953C89.7141 175.311 88.3894 178.392 86.7183 181.374C84.8824 184.625 83.7393 188.076 82.8661 191.693C82.1933 194.616 82.8126 197.365 84.3013 199.904C85.3503 201.766 87.0463 202.69 89.0837 202.933C91.0566 203.1 92.8597 202.755 94.7631 202.065C97.9179 200.841 100.698 199.018 103.219 196.889C106.646 194.127 109.673 191.048 112.637 187.892C116.935 183.217 121.18 178.324 126.07 174.196C132.272 168.83 139.433 165.532 147.269 163.497C147.704 163.392 148.203 163.363 148.638 163.258C148.702 163.334 148.69 163.475 148.755 163.552C147.773 164.249 146.792 164.947 145.887 165.58C142.061 168.025 139.227 171.333 136.845 175.177C134.386 179.085 132.901 183.217 131.816 187.667C131.291 189.681 130.56 191.606 129.894 193.608C128.033 198.844 126.94 204.215 127.116 209.694C127.179 211.474 127.382 213.265 128.02 214.951C128.477 216.267 129.239 217.325 130.371 218.201C131.439 219.001 132.696 219.249 133.882 218.64C134.917 218.159 135.962 217.538 136.868 216.905C138.307 215.82 139.489 214.43 140.53 213.027C141.977 211.021 143.424 209.014 144.871 207.007C147.829 203.071 151.38 199.68 155.188 196.596C157.545 194.737 159.826 192.943 162.247 191.161C162.3 191.378 162.429 191.531 162.493 191.607C162.774 197.521 164.283 203.183 165.932 208.858C166.915 212.347 167.398 215.865 167.089 219.529C166.784 223.974 167.337 228.349 168.977 232.462C169.381 233.56 169.861 234.594 170.711 235.447C171.755 236.528 173.012 236.776 174.416 236.114C175.45 235.634 176.162 234.772 176.873 233.909C179.526 230.23 182.037 226.54 184.625 222.784C186.884 219.569 189.283 216.366 190.938 212.744C191.897 210.625 192.857 208.507 193.611 206.3C195.031 202.091 195.682 197.746 195.846 193.289C196.026 189.473 195.196 185.854 193.726 182.253C192.321 178.728 190.775 175.191 189.446 171.602C188.978 170.427 188.662 169.123 188.334 167.96C188.165 167.449 188.289 166.821 188.195 166.245C189.316 167.262 190.219 168.332 191.351 169.208C193.81 171.19 196.745 171.722 199.723 170.909C201.321 170.476 202.866 169.826 204.347 169.1C207.232 167.711 209.923 166.094 212.913 165.14C217.078 163.718 221.389 163.088 225.74 162.817C227.379 162.743 229.017 162.668 230.603 162.377C232.189 162.085 233.775 161.793 235.179 161.131C237.335 159.965 238.5 157.934 238.779 155.474C238.998 153.719 238.489 152.186 237.622 150.693C236.327 148.384 234.279 146.579 232.297 144.85C230.971 143.744 230.144 142.61 229.864 140.883C229.41 137.865 227.921 135.326 226.215 132.84C223.811 129.373 220.708 126.627 217.134 124.409C216.325 123.915 215.362 123.55 214.54 123.197C214.27 123.032 213.924 122.932 213.449 122.679C213.943 121.869 214.566 121.212 214.984 120.466C215.743 119.04 216.502 117.614 216.979 116.164C217.793 113.253 218.53 110.406 219.062 107.47C220.126 101.599 221.806 95.993 224.46 90.6112C225.231 89.0442 226.143 87.4891 226.773 85.9102C228.387 81.9307 231.274 78.8393 233.955 75.6596C236.56 72.5445 239.681 70.0406 243.33 68.0071C243.853 67.6965 244.452 67.3213 244.911 66.9343C245.675 66.2892 245.658 65.6491 244.937 64.9495C244.022 64.0207 243.006 63.4382 241.674 63.2546C239.994 62.9708 238.421 63.1217 236.823 63.5544C235.736 63.8174 234.638 64.2214 233.539 64.6253C232.364 65.0937 231.177 65.7031 230.002 66.1715C227.729 67.0439 226.048 68.4631 224.472 70.3169C224.307 70.5868 224.154 70.7158 223.772 71.0384C223.59 70.6682 223.473 70.3745 223.433 70.0162C223.105 68.8531 222.319 68.0771 221.051 67.97C220.141 67.8221 219.143 67.8797 218.209 68.0137C213.898 68.643 210.39 70.6884 207.427 73.8443C205.404 75.9442 203.587 78.1325 201.706 80.2443C200.371 81.7637 199.101 83.3595 197.701 84.8025C194.191 88.5508 191.979 92.9055 190.435 97.7424C188.413 104.029 187.66 110.423 187.894 116.901C187.961 119.461 188.387 121.981 188.595 124.553C188.694 125.909 188.605 126.115 187.371 127.288C187.189 126.918 186.943 126.471 186.902 126.113C186.675 124.603 186.436 123.235 186.35 121.737C186.148 118.243 186.369 114.785 186.59 111.326C187.014 105.472 187.502 99.6945 187.644 93.8166C187.811 85.9539 186.775 78.0605 184.793 70.442C183.273 64.9203 180.871 59.7501 176.9 55.5117C175.727 54.2772 174.325 53.2362 172.999 52.1307C172.6 51.8132 172.125 51.5601 171.702 51.5244C170.651 51.3646 170.147 50.6124 169.655 49.7193C168.618 47.7157 167.58 45.7121 166.314 43.902C165.189 42.1038 163.44 40.9626 161.591 40.1678C159.742 39.3729 157.875 39.6409 156.218 40.7782C154.102 42.3026 152.579 44.3738 151.402 46.5451C149.707 49.8081 148.346 53.3123 146.716 56.6517C145.05 60.4139 143.384 64.1761 141.512 67.85C140.135 70.714 139.233 73.8311 138.753 76.984C138.019 82.3151 137.849 87.6939 138.177 93.0438C138.292 95.0405 138.701 96.92 139.034 98.8641C139.075 99.2224 139.192 99.5161 139.08 100.003C138.616 99.6094 138.229 99.151 137.83 98.8334C135.355 96.2116 132.41 94.1177 129.376 92.2293C127.087 90.7586 124.71 89.4934 122.334 88.2282C119.957 86.9629 117.327 86.173 114.685 85.5241C110.429 84.6678 106.313 83.8233 102.045 83.108C98.9687 82.5642 95.8566 82.4432 92.9311 83.4734C91.768 83.8009 90.5811 84.4103 89.5351 85.0315C87.0612 86.5966 85.7195 89.0379 85.6868 91.9446C85.7206 93.2248 85.8308 94.4404 85.9291 95.797C85.9917 97.5764 86.1952 99.3676 86.0404 101.2C85.5841 109.96 88.9346 117.34 94.6469 123.641C97.9487 127.397 101.974 130.15 106.228 132.709C110.688 135.357 115.478 137.465 120.544 138.815C121.865 139.14 123.121 139.388 124.377 139.636C124.724 139.736 125.07 139.836 125.352 139.86C125.416 139.936 125.34 140.001 125.404 140.077C124.97 140.183 124.535 140.288 124.036 140.317C118.932 141.092 113.922 142.443 109.262 144.675C105.79 146.297 102.576 148.225 99.7892 150.97C98.2372 152.542 96.8786 154.344 95.9955 156.398C95.7305 157.014 95.5301 157.707 95.4705 158.412C95.3753 159.539 95.9678 160.086 97.0951 160.181C97.5179 160.217 97.9525 160.111 98.3753 160.147C98.4755 159.801 98.4636 159.942 98.4636 159.942ZM186.15 142.584C186.073 142.648 185.932 142.636 185.932 142.636C185.739 142.407 185.61 142.254 185.416 142.025C181.775 137.247 177.475 133.548 171.675 131.639C170.713 131.274 169.597 131.038 168.663 131.172C166.872 131.375 165.217 130.809 163.643 130.96C161.865 129.32 160.217 127.832 158.428 126.333C157.771 125.71 157.026 125.292 156.433 124.745C155.454 123.74 154.41 122.658 153.506 121.588C151.108 118.902 149.015 115.958 147.215 112.896C145.662 110.281 143.968 107.655 142.491 104.975C140.534 101.262 139.229 97.3904 139.023 93.1152C138.794 87.4189 138.989 81.7583 139.747 76.1454C140.178 73.5562 140.815 71.0554 141.94 68.6667C143.847 64.5701 145.69 60.397 147.673 56.2359C149.151 53.0255 150.5 49.6622 152.118 46.4637C153.142 44.4214 154.501 42.6201 156.464 41.2248C157.904 40.1401 159.554 39.9247 161.274 40.5667C162.031 40.8436 162.635 41.2494 163.24 41.6553C165.053 42.8729 166.319 44.683 167.292 46.6102C167.966 47.8735 168.563 49.2013 169.237 50.4646C169.536 51.1285 169.987 51.6634 170.821 51.8757C172.5 52.1595 173.685 53.2531 174.87 54.3467C179.199 58.5444 181.882 63.7385 183.673 69.4248C183.83 70.0768 183.976 70.8697 183.993 71.5098C183.977 75.0566 183.551 78.4267 182.484 81.8138C181.771 84.3791 180.852 86.8561 179.997 89.4096C178.324 94.0937 176.792 98.7897 175.953 103.686C175.125 108.442 174.938 113.18 176.236 117.974C177.207 121.604 179.059 124.883 181.063 128.032C182.318 129.983 183.637 132.011 184.815 134.026C185.371 134.996 185.775 136.094 185.897 137.169C186.189 138.755 186.187 140.458 186.338 142.032C186.185 142.161 186.173 142.302 186.15 142.584ZM162.785 131.03C161.217 131.962 159.595 132.676 158.824 134.243C158.053 135.81 157.705 137.413 158.343 139.099C156.977 141.822 158.566 144.014 159.697 146.593C159.08 146.329 158.734 146.228 158.388 146.128C155.999 145.004 153.763 143.75 151.362 142.767C145.381 140.488 139.076 139.529 132.698 139.416C128.512 139.417 124.372 138.855 120.281 137.729C113.213 135.712 106.828 132.334 100.884 127.929C97.4108 125.365 94.3194 122.478 92.0041 118.805C88.4224 113.323 86.3621 107.471 86.8571 100.772C86.9712 98.5817 86.6625 96.3557 86.6356 94.1536C86.59 93.0144 86.5443 91.8751 86.5631 90.8123C86.6821 89.4031 87.083 88.0177 88.0238 86.9618C89.2821 85.5069 90.9275 84.5105 92.8189 83.9607C95.809 83.0069 98.8566 83.0515 101.857 83.6597C106.189 84.4515 110.522 85.2434 114.843 86.1761C117.843 86.7843 120.807 87.8154 123.454 89.2453C126.101 90.6753 128.671 92.1698 131.153 93.8697C132.503 94.6933 133.688 95.7869 134.949 96.816C137.871 99.1917 140.258 102.019 141.88 105.491C142.97 107.712 144.071 109.792 145.314 111.884C146.621 114.052 148.222 116.104 149.682 118.143C152.045 121.252 154.637 124.168 157.611 126.761C158.602 127.625 159.582 128.63 160.803 129.301C161.56 129.578 162 130.254 162.785 131.03ZM172.47 155.833C172.458 155.974 172.382 156.039 172.37 156.18C168.852 156.663 165.334 157.146 161.782 156.35C158.653 155.589 155.6 154.763 152.548 153.937C149.495 153.112 146.278 152.556 143.053 152.922C136.822 153.602 131.435 156.057 126.697 160.056C122.941 163.358 119.918 167.218 117.218 171.461C116.065 173.35 114.835 175.304 113.682 177.194C112.606 179.019 111.529 180.844 110.452 182.669C109.617 184.16 108.781 185.65 107.881 187.064C105.281 190.961 102.282 194.539 99.2188 198.041C96.5613 200.939 93.2537 202.292 89.437 202.111C87.6695 202.033 86.167 201.338 85.2351 199.77C83.811 197.307 83.1798 194.699 83.7642 191.981C84.4727 188.635 85.5275 185.389 87.1986 182.408C89.1228 178.951 90.6361 175.318 91.3922 171.408C91.6759 169.729 92.4589 168.021 93.0245 166.366C94.0317 163.683 95.9539 161.93 98.5857 161.016C99.4669 160.665 100.413 160.39 101.229 159.962C101.6 159.781 101.905 159.523 102.211 159.265C102.223 159.124 102.158 159.047 102.17 158.907C100.374 158.329 98.5231 159.237 96.6912 159.082C96.2754 158.125 96.5522 157.367 96.8936 156.687C98.0655 153.734 100.023 151.558 102.457 149.635C106.101 146.82 110.032 144.81 114.414 143.336C121.798 140.766 129.462 139.923 137.213 140.578C142.785 140.978 148.145 142.211 153.345 144.496C155.464 145.455 157.506 146.479 159.625 147.439C160.511 147.869 161.257 148.286 161.837 148.974C164.482 152.107 167.786 154.16 171.572 155.545C171.713 155.556 172.124 155.733 172.47 155.833ZM189.786 166.734C187.282 163.613 186.341 160.482 186.674 156.537C186.881 154.922 187.089 153.307 187.372 151.628C187.768 149.462 187.806 147.336 187.485 145.251C187.258 143.742 186.966 142.156 186.815 140.582C186.514 137.434 186.212 134.286 186.832 131.145C187.276 128.415 188.541 126.038 190.809 124.385C192.249 123.3 193.871 122.586 195.609 122.165C202.729 120.212 209.534 121.141 216.072 124.39C219.27 126.009 221.193 128.442 221.818 131.972C222.045 133.481 222.272 134.991 222.641 136.512C223.009 138.034 223.377 139.555 224.039 140.959C225.222 143.756 227.463 145.79 229.856 147.695C231.581 149.118 233.371 150.618 235.095 152.041C236.022 152.829 236.644 153.875 236.895 155.102C237.409 157.416 236.726 158.778 235.145 159.851C234.011 160.678 232.642 160.917 231.233 160.798C229.043 160.684 226.965 160.082 224.963 159.416C223.103 158.762 221.318 158.044 219.446 157.531C213.276 155.803 208.165 157.501 204.254 162.634C202.984 164.23 201.843 165.979 200.702 167.727C199.231 170.016 195.625 170.705 193.377 169.592C191.886 168.757 190.625 167.728 189.786 166.734ZM185.7 160.499C184.743 160.915 183.862 161.266 183.045 161.694C179.396 163.728 176.316 166.59 173.763 169.922C173.205 170.656 172.505 171.377 171.946 172.11C170.764 173.501 169.453 174.738 168.348 176.064C165.819 179.115 163.097 181.936 159.783 184.211C157.297 185.917 154.876 187.699 152.519 189.558C150.391 191.223 148.586 193.271 147.385 195.724C146.108 198.242 144.819 200.9 143.606 203.494C142.052 206.769 140.498 210.044 138.739 213.231C137.639 215.338 135.817 216.745 133.684 217.629C132.433 218.162 131.317 217.926 130.261 216.985C129.475 216.209 128.842 215.304 128.579 214.218C128.223 212.555 127.866 210.893 127.792 209.255C127.58 204.198 128.573 199.173 130.246 194.489C131.365 191.319 132.343 188.138 133.257 184.88C134.107 181.545 135.508 178.399 137.32 175.43C140.044 170.906 143.747 167.386 148.237 164.643C153.326 161.525 158.766 159.288 164.675 158.226C167.412 157.748 170.008 157.257 172.745 156.779C174.113 156.54 175.458 156.582 176.815 156.484C177.672 156.415 178.529 156.345 179.463 156.211C180.614 156.025 181.789 155.556 182.864 155.434C183.798 155.3 184.732 155.166 185.508 154.38C185.661 154.251 185.802 154.263 186.095 154.146C185.905 156.401 185.803 158.45 185.7 160.499ZM189.465 124.342C189.348 124.049 189.295 123.831 189.23 123.755C188.981 120.824 188.515 117.946 188.547 115.04C188.338 108.281 189.461 101.705 191.841 95.3775C193.313 91.3861 195.519 87.9533 198.342 84.7856C200.693 82.1458 202.904 79.494 205.256 76.8542C206.591 75.3348 207.926 73.8155 209.53 72.4608C212.446 69.8686 215.83 68.4514 219.747 68.2856C221.885 68.1823 222.541 68.8055 222.862 70.8905C222.903 71.2488 223.084 71.6189 223.242 72.2709C223.624 71.9484 223.842 71.8958 224.071 71.7023C224.694 71.0453 225.241 70.4528 225.8 69.7194C226.676 68.5871 227.746 67.684 229.073 67.0865C230.695 66.372 232.176 65.6455 233.797 64.9309C235.419 64.2164 237.169 63.6547 239.025 63.5276C240.382 63.4293 241.662 63.3955 242.894 63.9254C243.716 64.2787 244.538 64.632 244.66 65.7067C244.507 65.8357 244.419 66.0411 244.266 66.1702C244.037 66.3637 243.807 66.5572 243.437 66.7388C239.953 68.5024 236.533 70.3424 232.984 72.0295C230.84 73.0547 228.643 73.8626 226.563 74.9642C220.628 78.011 217.241 82.8341 216.54 89.4454C216.321 91.2009 216.307 93.0448 216.37 94.8241C216.442 98.1655 216.591 101.442 216.664 104.784C216.791 106.639 216.918 108.495 216.98 110.275C217.088 113.193 216.633 116.064 215.203 118.711C214.532 119.932 214.067 121.241 212.651 122.043C212.228 122.008 211.817 121.831 211.33 121.719C207.097 120.581 202.805 120.147 198.494 120.777C196.127 121.073 193.866 121.805 191.774 123.047C190.816 123.463 190.217 123.838 189.465 124.342ZM185.964 161.586C185.952 161.727 185.94 161.868 185.928 162.009C185.004 163.705 184.491 165.577 184.119 167.462C183.499 170.603 183.519 173.727 183.961 176.886C184.351 179.829 184.959 182.719 185.49 185.673C186.138 188.921 185.811 191.945 184.152 194.785C182.746 197.15 182.021 199.856 181.642 202.663C180.991 207.008 181.326 211.436 181.239 215.828C181.23 218.453 181.21 221.219 180.355 223.772C179.525 226.044 178.694 228.315 177.658 230.498C176.887 232.065 176.039 233.697 174.588 234.923C172.918 236.201 171.304 235.993 170.331 234.066C169.048 231.616 168.34 229.073 167.862 226.336C167.436 223.816 167.445 221.191 167.595 218.578C167.78 215.542 167.467 212.535 166.577 209.622C165.922 207.296 165.332 205.046 164.753 202.655C163.835 199.243 163.275 195.789 163.009 192.218C162.911 190.862 163.212 189.823 164.076 188.831C165.182 187.506 166.158 186.027 166.917 184.601C167.853 182.764 168.648 180.915 169.378 178.99C171.522 173.778 174.539 169.136 178.959 165.536C180.488 164.246 182.209 163.185 183.931 162.124C184.683 161.62 185.218 161.168 185.964 161.586ZM163.607 157.426C163.595 157.567 163.595 157.567 163.595 157.567C163.442 157.696 163.301 157.684 163.148 157.813C159.172 158.684 155.301 159.989 151.664 161.881C151.293 162.063 150.859 162.168 150.501 162.209C145.203 162.755 140.286 164.681 135.474 167.042C128.964 170.182 123.591 174.98 118.682 180.171C115.325 183.79 112.032 187.486 108.47 191.017C106.294 193.246 103.938 195.105 101.569 197.105C101.263 197.363 100.946 197.762 100.382 197.714C102.516 195.127 104.716 192.616 106.568 190.005C108.662 187.059 110.615 184.102 112.298 180.98C114.17 177.306 116.581 173.962 118.723 170.453C121.182 166.544 124.18 162.966 127.836 160.01C133.314 155.648 139.559 153.124 146.682 153.655C148.654 153.821 150.68 154.205 152.629 154.654C156.116 155.374 159.515 156.3 162.991 157.161C163.196 157.25 163.401 157.338 163.607 157.426ZM180.175 227.589C180.11 227.512 180.11 227.512 180.046 227.436C180.058 227.295 180.057 227.295 180.069 227.154C180.17 226.808 180.27 226.461 180.435 226.191C181.9 223.122 182.25 219.816 182.319 216.487C182.34 213.721 182.296 210.879 182.317 208.113C182.387 203.081 183.15 198.249 185.657 193.777C186.581 192.081 186.953 190.196 186.826 188.341C186.727 186.984 186.553 185.692 186.301 184.464C185.823 181.727 185.28 178.914 184.943 176.189C184.378 171.954 184.594 167.715 186.002 163.647C186.102 163.301 186.203 162.954 186.303 162.608C186.444 162.62 186.444 162.62 186.585 162.632C186.754 163.143 186.989 163.73 187.082 164.306C187.228 165.099 187.233 165.88 187.379 166.673C187.788 168.552 188.197 170.432 188.899 172.194C190.228 175.784 191.774 179.321 193.18 182.846C194.65 186.447 195.25 190.259 194.993 194.14C194.724 198.162 194.185 202.019 192.866 205.882C192.023 208.294 191.116 210.63 189.927 212.943C187.803 217.092 184.945 220.683 182.421 224.514C181.621 225.582 180.898 226.585 180.175 227.589ZM184.495 73.9649L184.636 73.9768C184.754 74.2706 184.871 74.5643 184.923 74.7817C186.365 82.0707 187.091 89.4412 186.677 96.8573C186.402 101.801 185.92 106.657 185.721 111.537C185.536 114.572 185.503 117.479 185.535 120.462C185.538 122.946 185.887 125.53 187.053 127.687C186.753 128.726 186.387 129.688 186.24 130.598C186.015 131.573 185.867 132.483 185.784 133.469C185.514 133.305 185.514 133.305 185.45 133.228C183.51 130.155 181.505 127.005 179.641 123.867C177.285 119.836 176.092 115.478 176.062 110.792C176.066 107.386 176.481 104.157 177.189 100.81C178.31 95.9375 179.984 91.2534 181.58 86.6338C182.988 82.566 184.179 78.5508 184.472 74.2468C184.395 74.3113 184.407 74.1704 184.495 73.9649ZM183.333 140.643C183.785 141.177 184.224 141.853 184.74 142.465C186.857 145.127 187.171 148.134 186.333 151.327C186.121 152.161 185.639 152.83 185.156 153.499C184.116 154.901 182.501 154.694 181.027 154.498C178.567 154.219 176.307 153.248 174.071 151.995C170.486 149.918 167.982 146.797 166.001 143.365C165.444 142.396 164.976 141.221 164.93 140.081C164.832 138.725 164.734 137.368 164.354 135.988C164.131 135.259 164.191 134.555 164.673 133.886C165.955 132.149 168.511 131.301 170.589 131.902C175.696 133.611 179.773 136.581 183.333 140.643ZM217.768 109.348C217.627 109.336 217.627 109.336 217.486 109.324C217.434 109.107 217.446 108.966 217.393 108.748C217.225 106.534 216.981 104.385 216.942 102.324C216.822 99.5459 216.984 96.792 216.864 94.0143C216.784 91.5949 216.91 89.2637 217.6 86.9802C218.025 85.313 218.667 83.5932 219.502 82.1026C220.908 79.7377 222.831 77.9841 225.152 76.5481C228.442 74.5553 232.02 73.3673 235.492 71.7446C235.569 71.6801 235.774 71.7685 236.056 71.7923C234.886 73.0417 233.804 74.0857 232.852 75.2826C230.77 78.0871 228.547 80.8798 226.67 83.7726C225.529 85.5212 224.787 87.5874 223.839 89.5653C221.096 95.1525 219.252 101.028 218.24 107.117C218.105 107.886 217.904 108.579 217.768 109.348ZM170.323 174.528C170.387 174.604 170.464 174.54 170.528 174.616C170.516 174.757 170.581 174.834 170.504 174.898C169.368 177.428 168.308 179.893 167.172 182.422C166.036 184.952 164.553 187.382 162.478 189.264C161.091 190.566 159.575 191.715 158.058 192.865C152.311 197.063 147.079 201.872 142.891 207.763C142.726 208.033 142.574 208.162 142.344 208.355C142.304 207.997 142.392 207.792 142.492 207.445C143.705 204.851 144.929 202.116 146.142 199.522C147.266 197.133 148.52 194.897 150.107 192.903C152.242 190.315 154.969 188.275 157.749 186.452C162.25 183.568 166.171 179.996 169.306 175.648C169.688 175.326 170.005 174.927 170.323 174.528ZM199.589 169.975C200.883 168.097 202.001 166.631 203.053 165.087C203.371 164.689 203.548 164.278 203.865 163.879C205.224 162.078 206.711 160.429 208.662 159.175C211.43 157.493 214.513 157.114 217.654 157.735C219.116 158.071 220.501 158.472 221.875 159.014C224.018 159.691 226.225 160.446 228.367 161.123C228.508 161.135 228.637 161.288 228.843 161.376C227.756 161.639 226.758 161.697 225.683 161.819C219.27 162.129 213.056 163.449 207.274 166.367C205.794 167.093 204.377 167.896 202.897 168.622C202.08 169.05 200.982 169.454 199.589 169.975ZM179.752 155.313C179.458 155.43 179.305 155.559 179.164 155.547C177.884 155.581 176.516 155.82 175.259 155.572C170.146 154.785 165.956 152.303 162.437 148.599C160.748 146.753 159.352 144.79 158.645 142.247C158.107 140.214 158.995 138.941 161.003 138.685C161.362 138.644 161.861 138.616 162.219 138.575C163.282 138.594 163.951 139.076 164.073 140.151C164.248 141.443 164.64 142.682 165.39 143.881C166.334 145.309 167.277 146.737 168.374 148.036C170.878 151.157 173.876 153.468 177.774 154.365C178.467 154.566 179.007 154.895 179.752 155.313ZM221.181 128.583C221.258 128.519 221.334 128.454 221.334 128.454C221.399 128.53 221.604 128.619 221.669 128.695C225.2 132.258 228.272 136.207 229.036 141.452C229.222 142.603 229.779 143.573 230.706 144.361C232.161 145.619 233.68 146.954 234.906 148.406C235.809 149.475 236.624 150.751 237.157 152.002C237.649 152.895 237.835 154.046 237.535 155.085C237.47 155.009 237.329 154.997 237.265 154.921C236.662 152.812 235.155 151.336 233.571 149.925C231.717 148.349 229.787 146.838 227.933 145.262C225.487 143.139 223.934 140.524 223.274 137.417C222.807 134.539 222.505 131.391 221.181 128.583ZM158.966 138.442C158.275 136.539 159.564 133.88 160.992 132.936C162.344 132.057 163.76 131.254 165.685 131.984C164.31 133.146 163.152 134.254 163.508 135.916C162.419 137.882 160.64 137.945 158.966 138.442Z" fill="black"/>
<path d="M299.038 280.492C293.916 282.33 288.998 284.256 284.028 285.965C278.982 287.739 273.802 288.578 268.505 289.124C268.815 289.647 269.391 289.554 269.749 289.513C272.257 289.228 274.765 288.943 277.22 288.441C282.195 287.513 286.894 285.64 291.518 283.83C293.651 282.946 295.86 281.997 297.928 281.037C298.362 280.931 298.668 280.673 299.038 280.492Z" fill="#B38451"/>
<path d="M197.594 359.064C202.461 355.217 206.947 349.99 211.111 344.381C213.27 341.512 215.223 338.555 216.7 335.344C216.965 334.728 217.154 334.176 217.278 333.548C216.16 335.015 215.454 336.658 214.542 338.213C213.553 339.833 212.501 341.376 211.448 342.919C210.395 344.462 209.277 345.929 208.172 347.255C207.055 348.722 205.873 350.112 204.691 351.502C203.509 352.893 202.251 354.348 200.928 355.726C199.681 357.04 198.294 358.342 197.594 359.064Z" fill="#B38451"/>
<path d="M194.059 312.71C197.917 313.249 201.81 313.365 205.779 313.417C209.25 313.497 212.732 313.436 216.109 312.941C218.053 312.609 219.933 312.2 221.812 311.791C222.323 311.621 222.77 311.375 223.281 311.205C223.217 311.129 223.228 310.988 223.228 310.988C222.794 311.093 222.359 311.198 221.924 311.303C217.795 312.303 213.625 312.944 209.362 313.01C204.265 312.863 199.027 312.704 194.059 312.71Z" fill="#B38451"/>
<path d="M192.666 283.001C185.132 278.107 177.232 274.175 170.792 268.096C170.797 268.877 170.72 268.942 171.313 269.488C172.433 270.506 173.489 271.446 174.686 272.399C180.166 276.41 185.975 279.881 192.038 282.877C192.179 282.889 192.32 282.901 192.666 283.001Z" fill="#B38451"/>
<path d="M248.017 272.917C247.879 275.389 247.806 277.938 247.527 280.398C246.922 285.882 245.342 291.141 241.914 295.606C241.596 296.005 241.355 296.34 240.973 296.662C240.973 296.662 241.037 296.739 241.09 296.956C241.654 297.004 241.983 296.464 242.224 296.129C244.447 293.337 245.989 290.203 246.851 286.727C247.311 284.637 247.836 282.624 248.015 280.51C248.229 277.973 248.161 275.413 248.235 272.865C248.158 272.929 248.082 272.994 248.017 272.917Z" fill="#B38451"/>
<path d="M166.848 332.41C159.568 331.227 152.076 330.878 145.203 327.388C145.22 328.028 145.555 328.269 145.966 328.446C146.852 328.876 147.738 329.305 148.701 329.67C154.5 331.58 160.677 332.385 166.848 332.41Z" fill="#B38451"/>
<path d="M228.858 312.386C228.541 312.785 228.3 313.119 227.918 313.442C226.748 314.691 225.332 315.494 223.863 316.08C220.338 317.485 216.708 318.456 213.013 319.35C211.492 319.718 210.047 320.022 208.602 320.326C208.385 320.378 208.167 320.431 207.862 320.689C208.003 320.701 208.22 320.648 208.361 320.66C214.105 319.868 219.679 318.565 224.978 316.316C226.153 315.847 227.211 315.085 228.14 314.17C228.751 313.654 228.84 313.449 228.858 312.386Z" fill="#B38451"/>
<path d="M183.142 287.377C190.863 293.422 199.598 295.863 209.24 295.968C199.863 295.247 190.911 292.859 183.142 287.377Z" fill="#B38451"/>
<path d="M266.003 284.3C266.514 284.131 267.166 283.973 267.612 283.727C269.181 282.795 270.75 281.863 272.19 280.778C274.841 278.802 277.35 276.815 279.808 274.609C281.794 272.932 283.587 271.026 285.457 269.055C282.324 271.7 279.191 274.344 276.058 276.989C272.861 279.558 269.587 282.191 265.886 284.007C265.809 284.071 265.938 284.224 266.003 284.3Z" fill="#B38451"/>
<path d="M212.102 222.622C216.269 229.574 218.75 237.163 221.448 244.7C221.427 243.279 219.987 238.474 217.815 233.11C215.174 226.572 213.27 223.075 212.102 222.622Z" fill="#B38451"/>
<path d="M229.897 266.49C228.929 255.267 227.169 244.19 222.812 233.603C226.657 244.36 228.636 255.384 229.897 266.49Z" fill="#B38451"/>
<path d="M208.578 274.411C200.672 265.511 190.926 259.082 180.062 254.119C190.697 259.275 200.355 265.91 208.578 274.411Z" fill="#B38451"/>
<path d="M275.481 268.709C279.917 265.748 283.874 261.754 288.077 258.206C289.146 257.303 290.099 256.106 291.04 255.05C291.357 254.651 291.534 254.24 291.711 253.829C286.326 258.768 280.789 263.835 275.481 268.709Z" fill="#B38451"/>
<path d="M221.644 335.62C220.866 338.109 220.229 340.61 219.31 343.087C218.392 345.564 217.191 348.017 216.002 350.329C214.813 352.641 213.56 354.877 212.23 357.178C213.207 355.699 214.248 354.297 215.159 352.742C217.654 348.411 219.944 343.992 221.206 339.131C221.495 338.233 221.642 337.323 221.79 336.413C221.814 336.131 221.838 335.849 221.862 335.567C221.785 335.632 221.785 335.632 221.644 335.62Z" fill="#B38451"/>
<path d="M215.206 249.708C214.439 247.869 213.684 245.889 212.84 244.115C211.218 240.643 209.29 237.428 207.208 234.343C206.833 233.744 206.523 233.221 206.071 232.686C205.942 232.533 205.66 232.509 205.531 232.356C205.455 232.421 205.378 232.485 205.302 232.55C206.492 234.424 207.758 236.234 208.807 238.097C209.997 239.972 211.111 241.911 212.148 243.914C213.185 245.918 214.157 247.845 215.054 249.837C215.13 249.772 215.206 249.708 215.206 249.708Z" fill="#B38451"/>
<path d="M231.929 209.679C231.588 210.359 231.963 210.959 232.133 211.47C232.46 212.633 232.929 213.808 233.18 215.035C233.991 219.717 234.802 224.398 235.495 228.785C236.185 226.501 233.554 211.448 231.929 209.679Z" fill="#B38451"/>
<path d="M214.266 270.917C212.467 267.856 210.056 265.31 207.722 262.7C205.388 260.091 202.76 257.598 199.562 255.979C199.086 255.726 198.675 255.55 198.112 255.502C200.118 256.949 202.213 258.19 204.067 259.766C205.986 261.418 207.675 263.264 209.364 265.11C211.117 267.032 212.654 269.007 214.266 270.917Z" fill="#B38451"/>
<path d="M213.121 286.149C212.67 285.614 212.359 285.091 211.831 284.62C208.881 281.746 205.472 279.258 202.051 276.911C199.634 275.287 197.14 273.728 194.787 272.181C194.517 272.017 194.311 271.928 194.041 271.763C200.537 276.357 207.273 280.616 212.892 286.342C212.969 286.278 213.045 286.213 213.121 286.149Z" fill="#B38451"/>
<path d="M157.8 300.919C158.07 301.083 158.404 301.324 158.827 301.36C159.455 301.484 160.084 301.608 160.724 301.591C165.157 302.037 169.549 302.124 173.953 302.07C174.094 302.082 174.171 302.018 174.323 301.889C168.892 301.501 163.396 301.037 157.965 300.649C157.812 300.778 157.812 300.778 157.8 300.919Z" fill="#B38451"/>
<path d="M212.225 264.003C214.559 266.613 216.358 269.675 218.093 272.66C219.892 275.721 221.333 278.823 222.251 282.236C222.581 281.696 222.411 281.185 222.306 280.751C221.844 278.654 220.936 276.803 219.964 274.876C217.813 270.933 215.433 267.184 212.225 264.003Z" fill="#B38451"/>
<path d="M298.217 290.215C298.14 290.28 297.923 290.332 297.847 290.397C295.924 292.15 293.498 293.152 291.095 293.871C288.182 294.76 285.292 295.368 282.249 296.104C282.39 296.116 282.455 296.193 282.596 296.205C286.895 295.716 291.012 294.858 294.931 292.989C296.042 292.444 296.958 291.67 298.016 290.908C298.169 290.779 298.257 290.573 298.346 290.368C298.346 290.368 298.281 290.292 298.217 290.215Z" fill="#B38451"/>
<path d="M235.534 287.119C235.647 286.632 235.9 286.157 236.012 285.67C236.517 280.532 235.959 275.376 234.673 270.441C235.271 275.956 236.011 281.483 235.253 287.096C235.394 287.108 235.534 287.119 235.534 287.119Z" fill="#B38451"/>
<path d="M259.129 328.71C261.023 330.644 262.929 332.437 264.683 334.359C266.437 336.282 268.026 338.474 269.509 340.231C267.629 336.453 261.101 328.877 259.129 328.71Z" fill="#B38451"/>
<path d="M227.651 345.991C226.874 348.48 226.236 350.981 225.253 353.382C224.346 355.718 223.234 357.965 222.097 360.495C222.48 360.173 222.697 360.12 222.785 359.915C223.368 358.899 224.015 357.96 224.456 356.933C225.857 353.787 226.924 350.4 227.568 346.978C227.592 346.696 227.692 346.349 227.651 345.991Z" fill="#B38451"/>
<path d="M238.138 243.697C239.895 248.104 241.523 252.357 243.227 256.546C242.667 253.092 241.443 249.937 240.155 246.706C239.739 245.749 239.182 244.779 238.69 243.886C238.561 243.733 238.42 243.721 238.138 243.697Z" fill="#B38451"/>
<path d="M181.465 367.707C181.912 367.461 182.282 367.279 182.729 367.033C183.416 366.452 184.169 365.948 184.868 365.227C186.814 363.191 188.837 361.091 190.718 358.979C190.947 358.786 190.971 358.504 191.212 358.17C187.891 361.366 184.581 364.422 181.413 367.489C181.336 367.554 181.401 367.63 181.465 367.707Z" fill="#B38451"/>
<path d="M282.114 337.18C281.794 335.095 274.243 329.561 270.82 328.917C274.945 331.324 278.93 333.718 282.114 337.18Z" fill="#B38451"/>
<path d="M284.189 289.101C279.226 289.888 274.381 290.969 269.425 290.834C269.413 290.975 269.413 290.975 269.401 291.116C269.683 291.14 269.953 291.304 270.234 291.328C271.156 291.335 272.002 291.407 272.859 291.337C276.583 290.942 280.189 290.253 283.819 289.283C283.96 289.295 284.113 289.166 284.189 289.101Z" fill="#B38451"/>
<path d="M232.875 337.917C232.325 341.915 231.838 345.99 231.3 349.848C232.453 347.958 233.731 339.55 232.875 337.917Z" fill="#B38451"/>
<path d="M180.511 334.487C185.085 334.944 189.536 334.327 193.883 333.275C194.177 333.158 194.471 333.04 194.776 332.782C193.508 332.675 192.398 333.22 191.246 333.407C190.095 333.593 188.944 333.78 187.652 333.955C186.436 334.065 185.209 334.316 183.993 334.426C182.789 334.395 181.65 334.441 180.511 334.487Z" fill="#B38451"/>
<path d="M271.393 300.296C272.208 301.572 273.581 302.113 274.902 302.438C277.966 303.123 281.079 303.244 284.238 302.801C283.956 302.777 283.675 302.753 283.393 302.729C281.561 302.575 279.717 302.561 277.885 302.406C275.63 302.216 273.617 301.691 271.663 300.461C271.61 300.244 271.469 300.232 271.393 300.296Z" fill="#B38451"/>
<path d="M259.948 258.526C259.462 262.601 259.334 266.635 257.874 270.485C257.938 270.562 258.079 270.574 258.144 270.65C258.308 270.38 258.614 270.122 258.702 269.917C258.967 269.301 259.156 268.749 259.28 268.121C259.824 265.044 260.226 261.956 260.066 258.82C260.077 258.679 260.013 258.603 259.948 258.526Z" fill="#B38451"/>
<path d="M251.927 345.913C252.724 342.361 252.18 335.361 251.072 334.203C251.328 336.212 251.596 338.079 251.787 340.012C251.838 341.932 251.824 343.776 251.927 345.913Z" fill="#B38451"/>
<path d="M237.302 343.471C237.227 347.723 237.369 351.921 236.178 355.937C237.666 354.288 238.273 347.101 237.302 343.471Z" fill="#B38451"/>
<path d="M160.156 315.026C160.672 315.638 161.301 315.762 162.005 315.821C164.683 316.048 167.296 316.197 170.049 316.359C170.472 316.395 170.971 316.366 171.482 316.196C167.754 315.81 164.09 315.501 160.156 315.026Z" fill="#B38451"/>
<path d="M240.701 308.277C241.005 309.722 245.587 313.444 248.463 314.681C245.811 312.47 243.289 310.412 240.701 308.277Z" fill="#B38451"/>
<path d="M220.705 334.973C218.992 339.299 217.354 343.56 215.817 347.475C216.987 346.226 220.668 337.099 220.705 334.973Z" fill="#B38451"/>
<path d="M289.117 252.617C286.583 254.886 284.126 257.092 281.592 259.361C284.319 257.321 287.305 255.586 289.375 252.922C289.31 252.846 289.181 252.693 289.117 252.617Z" fill="#B38451"/>
<path d="M241.494 298.054C242.251 298.331 242.645 297.868 242.886 297.533C244.792 295.14 246.439 292.44 247.47 289.476C245.658 292.445 244.116 295.579 241.494 298.054Z" fill="#B38451"/>
<path d="M171.868 272.161C172.67 273.577 178.327 277.177 181.356 278.285C178.193 276.243 175.03 274.202 171.868 272.161Z" fill="#B38451"/>
<path d="M248.626 352.234C249.998 348.589 250.742 344.819 250.436 340.891C250.295 340.879 250.295 340.879 250.154 340.867C250.147 341.789 250.14 342.711 250.057 343.697C249.973 344.684 249.966 345.605 249.818 346.515C249.735 347.502 249.511 348.476 249.287 349.451C249.062 350.426 248.774 351.324 248.626 352.234Z" fill="#B38451"/>
<path d="M189.726 374.082C191.918 372.493 193.518 370.357 195.259 368.233C194.289 368.79 193.308 369.488 192.661 370.427C192.343 370.825 192.014 371.365 191.632 371.688C190.932 372.409 190.232 373.131 189.533 373.852C189.597 373.929 189.662 374.005 189.726 374.082Z" fill="#B38451"/>
<path d="M250.514 240.84C250.611 243.9 250.795 246.754 250.904 249.672C251.24 248.211 251.295 246.725 251.349 245.239C251.224 241.681 251.224 241.681 250.514 240.84Z" fill="#B38451"/>
<path d="M204.359 281.505C207.229 283.664 209.957 285.81 212.89 288.045C212.938 287.481 212.603 287.24 212.269 286.999C209.823 284.876 207.212 283.024 204.359 281.505Z" fill="#B38451"/>
<path d="M196.051 321.891C196.708 322.514 197.26 322.703 197.9 322.686C199.321 322.664 200.807 322.718 202.228 322.697C203.226 322.639 204.225 322.581 205.247 322.242C204.965 322.218 204.683 322.194 204.401 322.171C202.839 322.18 201.277 322.19 199.715 322.2C198.934 322.205 198.101 321.993 197.255 321.922C196.897 321.962 196.615 321.939 196.051 321.891Z" fill="#B38451"/>
<path d="M254.333 301.481C251.811 303.61 248.792 304.064 245.673 304.865C248.186 305.361 252.886 303.487 254.333 301.481Z" fill="#B38451"/>
<path d="M229.892 209.436C230.587 212.12 231.207 214.869 231.903 217.553L232.043 217.565C232.067 217.283 232.091 217.002 231.974 216.708C231.577 214.687 231.256 212.602 230.783 210.646C230.678 210.212 230.291 209.753 230.109 209.383C230.109 209.383 229.968 209.371 229.892 209.436Z" fill="#B38451"/>
<path d="M211.314 223.549C212.778 226.369 214.308 229.266 215.773 232.086C214.754 229.02 213.378 225.994 211.543 223.355C211.531 223.496 211.39 223.484 211.314 223.549Z" fill="#B38451"/>
<path d="M210.233 311.096C211.401 311.55 218.977 310.913 220.393 310.11C217.016 310.605 213.651 310.959 210.233 311.096Z" fill="#B38451"/>
<path d="M164.562 303.193C161.832 302.75 159.102 302.306 156.296 301.927C157.223 302.715 162.195 303.49 164.562 303.193Z" fill="#B38451"/>
<path d="M264.418 324.899C265.187 325.035 266.097 325.183 266.866 325.319C267.7 325.531 268.469 325.667 269.379 325.815C270.213 326.027 271.046 326.24 271.956 326.387C269.567 325.263 267.219 324.497 264.53 324.412C264.518 324.553 264.43 324.758 264.418 324.899Z" fill="#B38451"/>
<path d="M151.65 318.282C155.101 319.425 158.553 320.568 162.305 320.672C158.753 319.875 155.201 319.078 151.65 318.282Z" fill="#B38451"/>
<path d="M153.636 332.571C151.223 331.729 148.952 330.898 146.539 330.056L146.463 330.12C146.656 330.349 146.914 330.655 147.12 330.743C149.174 331.626 151.317 332.304 153.636 332.571Z" fill="#B38451"/>
<path d="M182.15 364.642C184.213 362.9 186.482 361.247 188.222 359.123C186.083 360.93 184.02 362.671 181.956 364.413C181.892 364.337 182.021 364.489 182.15 364.642Z" fill="#B38451"/>
<path d="M265.059 282.872C267.715 281.677 269.661 279.642 271.8 277.836C269.467 279.413 267.198 281.066 264.865 282.643C264.994 282.796 264.994 282.796 265.059 282.872Z" fill="#B38451"/>
<path d="M261.958 334.697C261.038 332.987 260.13 331.136 258.381 329.995C258.305 330.06 258.229 330.124 258.229 330.124C258.229 330.124 258.152 330.189 258.217 330.265C259.442 331.717 260.732 333.245 261.958 334.697Z" fill="#B38451"/>
<path d="M236.124 311.226C236.609 313.041 237.03 314.779 237.515 316.594C237.682 314.622 237.337 312.818 236.341 311.173C236.341 311.173 236.2 311.161 236.124 311.226Z" fill="#B38451"/>
<path d="M247.732 306.529C249.934 306.502 251.943 306.246 253.572 304.61C251.733 305.377 249.765 305.991 247.732 306.529Z" fill="#B38451"/>
<path d="M239.696 309.257C240.052 310.919 241.479 311.678 242.599 312.695C241.849 311.496 240.881 310.35 239.696 309.257Z" fill="#B38451"/>
<path d="M249.008 243.551C249.368 241.808 249.306 240.028 249.026 238.302C248.885 238.29 248.744 238.278 248.603 238.266C248.672 239.123 248.742 239.981 248.876 240.915C248.869 241.837 248.938 242.694 249.008 243.551Z" fill="#B38451"/>
<path d="M220.636 360.159C221.741 358.833 222.512 357.266 223.001 355.675C222.101 357.089 221.266 358.58 220.366 359.994C220.507 360.006 220.571 360.082 220.636 360.159Z" fill="#B38451"/>
<path d="M222.398 277.139C222.819 278.878 223.24 280.617 223.66 282.355C223.737 282.291 223.878 282.303 223.878 282.303C223.892 280.459 223.33 278.708 222.398 277.139Z" fill="#B38451"/>
<path d="M237.181 244.113C237.843 245.517 238.44 246.845 239.231 248.402C239.092 246.688 238.208 244.555 237.475 243.996C237.398 244.061 237.257 244.049 237.181 244.113Z" fill="#B38451"/>
<path d="M158.763 321.437C160.507 321.798 161.981 321.993 163.49 321.766C162.016 321.57 160.531 321.516 158.763 321.437Z" fill="#B38451"/>
<path d="M191.236 331.845C189.944 332.019 188.652 332.194 187.425 332.445C188.693 332.552 190.05 332.454 191.289 332.062C191.225 331.986 191.236 331.845 191.236 331.845Z" fill="#B38451"/>
<path d="M325.223 393.051C324.953 392.886 324.619 392.645 324.273 392.544C318.673 389.943 313.086 387.2 307.475 384.739C303.572 383.061 299.846 380.972 296.196 378.818C291.53 376.083 287.5 372.549 283.699 368.821C280.749 365.947 278.092 362.955 275.677 359.628C275.483 359.399 275.289 359.17 275.043 358.723C275.76 358.642 276.195 358.537 276.835 358.52C277.028 358.749 277.286 359.055 277.48 359.284C279.814 361.894 281.995 364.633 284.418 367.037C286.776 369.365 289.298 371.423 291.745 373.546C295.194 376.392 299.114 378.71 303.07 380.606C310.635 384.296 318.288 387.781 325.942 391.266C326.212 391.431 326.482 391.596 326.752 391.76C326.904 391.631 327.134 391.438 327.286 391.309C324.281 389.92 321.2 388.595 318.131 387.129C313.353 384.881 308.6 382.35 303.746 380.166C300.394 378.676 297.284 376.853 294.262 374.823C290.777 372.4 287.609 369.578 284.594 366.626C281.192 363.217 278.237 359.561 275.37 355.699C274.983 355.241 274.66 354.859 274.273 354.4C273.392 354.752 272.587 355.038 271.565 355.378C271.682 355.672 271.811 355.824 272.005 356.054C274.96 359.71 277.839 363.43 280.883 366.88C283.604 369.949 286.643 372.618 289.834 375.159C294.622 378.969 299.915 381.829 305.297 384.484C311.231 387.327 317.317 390.041 323.327 392.819C323.738 392.996 324.137 393.314 324.548 393.49C324.841 393.373 324.994 393.244 325.223 393.051Z" fill="#B38451"/>
<path d="M284.877 314.564C286.14 313.89 287.315 313.421 288.349 312.941C291.833 311.178 295.2 309.12 298.116 306.528C301.478 303.69 304.248 300.305 306.542 296.666C308.913 292.964 311.014 289.096 312.293 284.876C313.094 282.105 313.473 279.299 313.224 276.368C312.894 272.721 311.364 269.824 308.431 267.589C304.699 264.72 301.286 261.451 298.407 257.73C297.257 256.214 295.867 255.032 294.259 253.903C292.112 252.444 289.74 251.96 287.103 252.092C284.108 252.265 281.464 253.319 278.797 254.654C275.606 256.301 272.457 258.306 269.77 260.704C268.471 261.801 267.442 263.062 266.272 264.312C266.22 264.094 266.167 263.877 266.191 263.595C266.336 260.201 266.187 256.924 265.539 253.676C264.599 248.842 263.148 244.178 260.598 239.918C259.783 238.643 258.816 237.497 257.772 236.415C255.168 233.64 252.946 230.543 251.246 227.135C249.729 224.098 247.994 221.113 245.813 218.374C242.148 213.877 237.824 210.46 231.965 209.256C230.849 209.02 229.581 208.913 228.442 208.958C226.868 209.109 225.516 209.988 224.241 210.803C221.844 212.304 219.769 214.186 217.758 216.145C216.206 217.717 214.384 219.125 212.832 220.697C207.03 226.38 203.334 233.164 202.503 241.326C202.312 243.58 202.621 245.806 203.223 247.915C203.34 248.209 203.381 248.567 203.498 248.861C203.563 248.937 203.486 249.002 203.41 249.066C201.807 248.718 200.216 248.229 198.678 247.957C196.306 247.473 193.822 247.476 191.456 247.773C189.23 248.081 186.951 248.173 184.632 247.906C181.544 247.503 178.835 248.48 176.414 250.263C174.057 252.122 172.979 255.65 174.009 258.575C174.582 260.185 175.526 261.613 176.317 263.17C176.628 263.693 176.938 264.216 177.302 264.956C176.738 264.908 176.456 264.885 176.11 264.784C174.994 264.548 173.879 264.312 172.752 264.217C171.06 264.074 170.144 264.848 170.077 266.475C170.046 267.678 170.145 269.035 170.613 270.21C171.526 272.842 172.58 275.485 173.851 278.077C175.058 280.591 176.265 283.106 176.884 285.855C176.99 286.289 177.03 286.648 177.135 287.082C176.777 287.123 176.56 287.176 176.419 287.164C172.896 286.866 169.701 287.732 166.469 289.02C164.043 290.021 161.746 291.175 159.888 293.005C158.489 294.448 157.5 296.068 157.116 298.093C156.98 298.863 157.126 299.655 157.184 300.654C156.814 300.835 156.303 301.005 155.715 301.239C153.236 302.023 150.745 302.948 148.436 304.243C145.898 305.732 143.694 307.462 142.264 310.109C139.845 314.375 140.193 318.662 142.243 322.951C143.643 325.695 145.108 328.515 146.432 331.324C146.977 332.434 147.369 333.674 147.773 334.772C148.645 337.046 150.217 338.598 152.26 339.622C154.713 340.823 157.278 341.536 159.932 342.044C164.816 343.025 169.784 343.018 174.7 342.795C183.749 342.353 192.249 340.02 200.38 336.165C200.827 335.919 201.467 335.902 202.031 335.95C202.735 336.009 203.504 336.145 204.274 336.281C204.274 336.281 204.338 336.358 204.403 336.434C204.326 336.499 204.314 336.64 204.238 336.704C203.027 337.595 201.893 338.422 200.682 339.313C199.624 340.075 198.696 340.99 197.779 341.764C196.62 342.873 195.539 343.917 194.381 345.025C190.042 349.342 185.973 353.824 183.102 359.259C180.901 363.472 180.25 367.817 181.061 372.498C181.62 375.952 184.478 378.251 187.578 378.513C188.987 378.632 190.484 378.545 191.917 378.383C196.152 377.818 200.305 376.537 204.523 375.332C205.903 374.952 207.219 374.495 208.535 374.039C211.613 372.879 214.72 372.219 217.945 371.853C220.887 371.463 223.7 370.92 226.303 369.508C227.567 368.834 228.842 368.019 230.053 367.128C234.59 363.821 237.995 359.638 240.472 354.667C240.561 354.462 240.649 354.256 240.89 353.922C241.535 354.686 242.104 355.515 242.761 356.138C243.623 356.849 244.486 357.561 245.513 358.003C249.199 359.733 253.044 360.413 257.085 359.619C258.095 359.42 259.041 359.145 260.051 358.947C263.605 358.041 267.082 357.199 270.648 356.152C272.833 355.485 275.018 354.818 276.958 353.705C279.42 352.281 281.301 350.169 282.719 347.663C286.773 340.838 288.813 333.488 288.775 325.537C288.743 322.554 288.136 319.665 286.583 317.05C286.155 316.233 285.51 315.469 284.877 314.564ZM204.707 249.673C204.485 248.944 204.262 248.216 204.04 247.487C202.823 243.411 203.374 239.412 204.629 235.473C206.715 229.263 210.215 223.953 215.194 219.619C216.111 218.845 217.104 218.006 217.957 217.156C220.208 214.862 222.524 212.645 225.357 211.039C227.296 209.926 229.199 209.235 231.559 209.86C233.854 210.409 236.062 211.163 238.08 212.469C238.749 212.951 239.418 213.434 239.998 214.121C241.998 216.49 243.246 219.363 243.7 222.382C244.045 224.185 244.248 225.976 244.593 227.779C245.274 232.308 246.697 236.473 249.358 240.246C251.322 243.037 253.809 245.518 256.003 248.116C257.422 249.797 258.841 251.478 260.107 253.288C261.93 256.068 263.089 259.146 263.814 262.33C264.732 265.743 264.934 269.237 264.008 272.636C263.383 274.996 262.347 277.179 261.44 279.515C261.263 279.926 260.945 280.325 260.563 280.648C259.799 281.293 258.971 281.861 258.142 282.43C258.089 282.213 258.113 281.931 258.137 281.649C258.492 279.124 258.566 276.576 258.498 274.015C258.392 269.394 257.557 264.995 256.082 260.612C254.268 255.208 251.549 250.437 247.249 246.738C245.6 245.25 243.646 244.021 241.492 243.484C237.118 242.334 233.357 244.855 232.976 249.364C232.922 250.85 233.073 252.424 233.3 253.933C233.738 256.312 234.904 258.468 236.005 260.548C237.365 262.934 237.932 265.466 237.693 268.284C237.224 272.999 237.818 277.732 238.705 282.349C239.26 285.022 239.879 287.77 240.358 290.507C240.504 291.3 240.291 292.134 240.361 292.991C240.155 292.903 240.155 292.903 240.091 292.827C239.962 292.674 239.909 292.456 239.78 292.304C238.38 289.56 236.368 287.332 233.963 285.568C232.959 284.844 232.326 283.939 231.781 282.829C231.547 282.241 231.377 281.73 231.143 281.143C228.848 274.704 226.107 268.512 221.874 263.186C219.628 260.371 217.153 257.749 214.284 255.591C211.362 253.215 208.187 251.315 204.707 249.673ZM216.088 305.63C214.485 305.282 213.341 304.546 212.185 303.952C209.744 302.61 207.302 301.269 204.785 299.992C201.304 298.349 197.676 297.617 193.876 298.077C192.802 298.199 191.662 298.244 190.664 298.302C185.89 298.537 182.598 296.343 180.318 292.248C179.14 290.232 178.55 287.982 177.883 285.797C177.163 283.395 176.291 281.121 175.201 278.9C174.164 276.897 173.203 274.828 172.46 272.708C171.874 271.239 171.518 269.577 171.085 267.979C170.875 267.11 170.958 266.123 171.605 265.184C172.169 265.232 172.821 265.074 173.526 265.134C174.577 265.294 175.616 265.594 176.667 265.754C177.23 265.802 177.846 266.067 178.341 265.257C178.03 264.734 177.731 264.07 177.433 263.406C176.577 261.773 175.645 260.204 174.931 258.582C173.812 255.862 174.645 251.887 178.282 249.995C179.469 249.385 180.567 248.982 181.864 249.588C182.481 249.853 183.173 250.053 183.778 250.459C185.397 251.447 187.005 252.577 188.624 253.565C191.723 255.53 195.069 256.238 198.652 255.832C199.726 255.709 200.66 255.575 201.735 255.453C203.82 255.133 205.958 255.029 208.071 255.208C210.531 255.487 212.739 256.241 214.834 257.482C219.152 260.118 222.161 263.991 224.775 268.328C227.248 272.653 229.286 277.083 230.802 281.823C231.036 282.411 231.206 282.922 231.492 283.727C231.005 283.615 230.735 283.45 230.389 283.35C228.399 282.543 226.362 282.3 224.312 282.198C222.187 282.16 220.142 282.839 218.046 283.3C214.21 284.183 212.004 287.615 211.924 291.086C211.85 293.634 212.059 296.206 212.843 298.685C213.562 301.088 214.652 303.309 216.088 305.63ZM177.68 288.193C177.862 288.563 177.967 288.998 178.084 289.291C178.646 291.042 179.501 292.675 180.586 294.115C182.691 296.919 185.266 299.194 188.224 301.147C192.466 303.847 197.098 305.303 202.106 305.655C206.193 306 210.304 306.064 214.402 306.268C215.248 306.34 216.17 306.347 216.951 306.342C218.938 308.851 221.332 310.757 224.349 312.005C223.902 312.251 223.738 312.521 223.444 312.638C222.269 313.107 221.082 313.716 219.919 314.043C216.494 315.102 212.976 315.586 209.353 315.634C203.17 315.751 196.981 315.086 190.881 314.216C184.575 313.257 178.346 312.234 172.057 311.916C169.726 311.79 167.242 311.793 164.899 311.808C163.76 311.854 162.673 312.117 161.651 312.456C159.965 313.094 159.194 314.661 159.691 316.335C160.03 317.358 160.511 318.392 161.156 319.156C162.95 321.436 165.303 322.983 167.986 323.99C171.143 325.251 174.454 326.382 177.7 327.437C182.461 329.045 187.31 330.448 192.07 332.057C194.688 332.988 197.218 334.124 199.9 335.131C199.965 335.208 200.029 335.284 200.235 335.372C200.082 335.501 199.864 335.554 199.712 335.683C198.102 336.257 196.48 336.971 194.883 337.404C191.393 338.386 187.694 338.5 184.118 337.985C182.081 337.742 180.003 337.14 178.054 336.692C176.938 336.456 175.694 336.067 174.566 335.971C172.582 335.946 170.597 335.92 168.588 336.176C166.081 336.461 163.625 336.963 161.17 337.465C158.715 337.968 156.272 338.329 153.8 338.191C152.032 338.113 150.606 337.353 149.815 335.796C149.452 335.056 149.089 334.316 148.726 333.575C147.648 331.214 146.646 328.787 145.569 326.425C144.778 324.868 143.769 323.364 143.119 321.819C140.471 316.202 141.97 310.226 146.977 306.391C149.181 304.661 151.761 303.531 154.392 302.618C155.491 302.214 156.578 301.951 157.676 301.547C158.187 301.377 158.839 301.219 158.77 300.362C158.084 299.24 158.385 298.201 158.838 297.032C159.733 294.837 161.092 293.036 163.107 291.858C166.245 289.994 169.553 288.642 173.147 288.094C174.375 287.843 176.001 287.909 177.68 288.193ZM269.788 317.618C269.888 317.271 269.976 317.066 269.988 316.925C271.494 314.214 271.885 311.266 271.93 308.219C272.077 303.122 271.213 298.223 269.927 293.289C269.073 289.953 267.991 286.81 266.179 283.89C265.107 282.309 263.969 280.651 261.891 280.05C262.068 279.639 262.168 279.293 262.409 278.958C263.787 276.094 264.894 273.066 265.579 270.001C265.691 269.514 265.674 268.874 265.786 268.386C265.934 267.476 265.953 266.414 266.435 265.745C267.106 264.524 268.047 263.468 269.052 262.489C271.927 259.538 275.294 257.481 278.866 255.512C281.023 254.346 283.373 253.409 285.804 253.189C286.802 253.131 287.877 253.009 288.928 253.169C290.543 253.376 291.904 254.059 292.619 255.68C293.216 257.008 293.749 258.259 294.347 259.587C294.827 260.621 295.166 261.643 295.8 262.548C297.248 264.729 299.278 265.894 301.791 266.39C303.253 266.726 304.726 266.922 306.253 267.334C306.881 267.458 307.485 267.864 308.025 268.194C309.439 269.094 310.459 270.457 311.109 272.003C312.187 274.364 312.408 276.796 310.591 278.984C309.803 279.911 308.938 280.902 308.009 281.817C306.087 283.571 304.036 285.172 302.049 286.849C299.974 288.731 297.976 290.55 296.364 292.826C294.511 295.437 292.582 298.113 290.935 300.812C287.881 305.876 284.441 310.482 279.727 314.2C276.847 316.369 273.523 317.082 269.788 317.618ZM245.765 337.374C245.818 337.591 245.806 337.732 245.794 337.873C244.855 343.116 243.299 348.094 239.688 352.188C237.883 354.236 236.014 356.207 233.628 357.566C230.273 359.483 226.731 360.248 222.914 360.067C220.929 360.042 218.892 359.798 216.895 359.914C215.257 359.988 213.619 360.063 212.021 360.495C210 360.892 208.279 361.953 206.932 363.614C205.356 365.467 204.127 367.421 203.026 369.528C202.849 369.939 202.467 370.262 202.291 370.673C202.085 370.584 201.944 370.572 201.803 370.56C200.401 369.519 198.98 369.541 197.511 370.127C196.26 370.66 195.009 371.193 193.822 371.802C191.806 372.98 189.65 374.146 187.388 374.878C186.583 375.164 185.649 375.298 184.804 375.227C183.254 375.096 182.468 374.32 182.176 372.734C181.382 368.693 181.78 364.824 183.511 361.138C185.683 356.425 188.858 352.436 192.368 348.687C193.856 347.039 195.408 345.467 197.036 343.831C198.347 342.593 199.582 341.42 200.957 340.259C201.951 339.42 203.008 338.658 204.066 337.896C205.124 337.134 206.094 336.577 207.515 336.555C210.78 336.547 213.875 336.028 216.526 334.052C225.899 338.179 235.586 339.423 245.765 337.374ZM215.025 331.654C215.202 331.244 215.39 330.692 215.772 330.369C216.472 329.648 217.248 328.862 218.206 328.446C220.209 327.409 222.418 326.46 224.551 325.576C226.683 324.692 228.892 323.743 230.855 322.347C231.913 321.585 233.176 320.911 234.428 320.378C238.106 318.844 241.741 318.654 245.314 320.872C246.124 321.367 246.869 321.784 247.756 322.214C249.053 322.82 249.717 322.522 249.912 321.048C250.007 319.921 249.95 318.922 249.904 317.783C249.721 313.226 250.566 309.11 253.371 305.303C254.653 303.566 255.396 301.5 255.51 299.31C255.636 296.978 255.762 294.647 256.093 292.404C256.324 290.508 256.708 288.483 257.221 286.61C257.734 284.737 258.594 282.965 260.263 281.687C261.473 280.795 262.613 280.75 263.657 281.831C264.894 283.142 265.991 284.441 266.705 286.063C269.927 293.289 271.486 300.872 271.242 308.799C271.205 310.925 270.897 312.886 270.09 314.876C268.123 319.677 265.024 323.602 260.986 326.88C259.382 328.235 257.713 329.513 255.967 330.856C254.68 331.811 253.534 332.779 252.182 333.658C249.109 335.598 245.696 336.516 242.178 337C237.444 337.593 232.782 337.341 228.167 336.526C224.322 335.846 220.577 334.82 217.108 333.037C216.198 332.889 215.441 332.612 215.025 331.654ZM283.919 314.98C284.729 315.474 285.016 316.279 284.868 317.189C284.672 318.662 284.477 320.136 284.064 321.662C283.339 324.369 282.96 327.175 283.08 329.953C283.102 331.374 282.971 332.924 282.711 334.321C282.504 335.936 281.885 337.374 280.78 338.7C279.128 340.618 277.81 342.778 276.633 344.949C275.874 346.375 275.58 346.492 274.066 345.938C273.026 345.638 271.999 345.196 270.96 344.895C267.69 344.122 264.497 343.285 261.149 344.279C258.029 345.08 255.35 346.557 252.958 348.839C251.253 350.54 249.278 352.076 247.508 353.701C246.668 354.41 245.722 354.685 244.712 354.884C242.844 355.152 242.099 354.734 241.549 352.842C243.822 347.783 245.889 342.635 246.711 337.099C247.146 336.994 247.516 336.812 247.81 336.695C249.93 335.952 251.922 335.055 253.668 333.713C256.93 331.221 260.051 328.717 263.183 326.072C264.559 324.911 265.741 323.521 266.923 322.13C267.863 321.074 268.534 319.854 269.346 318.645C271.801 318.143 274.244 317.781 276.635 317.203C279.102 316.56 281.44 315.764 283.919 314.98ZM242.451 303.528C242.398 303.311 242.269 303.158 242.346 303.094C242.383 300.968 242.063 298.883 241.384 296.839C241.045 295.817 240.987 294.818 241.71 293.815C242.193 293.146 242.546 292.324 243.028 291.656C245.022 289.056 245.348 286.033 245.046 282.885C244.75 280.518 244.018 278.256 243.21 276.059C241.999 272.763 240.863 269.403 239.663 265.967C238.984 263.922 238.294 262.019 237.168 260.221C236.184 258.435 235.276 256.584 234.585 254.68C233.765 252.624 233.521 250.475 234.058 248.32C234.602 245.244 237.099 243.397 240.188 243.8C241.315 243.895 242.483 244.348 243.51 244.79C245.694 245.826 247.406 247.39 249.107 249.095C250.409 250.482 251.265 252.116 251.815 254.007C252.704 256.921 253.03 259.787 252.639 262.734C252.212 266.104 251.645 269.463 251.153 272.756C250.722 275.345 250.367 277.87 250.499 280.507C250.549 282.427 250.753 284.218 250.803 286.139C250.84 289.903 250.249 293.543 248.888 297.047C248.611 297.804 248.335 298.561 247.788 299.154C246.212 301.008 244.466 302.35 242.451 303.528ZM205.375 328.285C205.54 328.015 205.628 327.809 205.728 327.463C206.041 326.283 206.958 325.509 207.992 325.028C208.949 324.613 209.972 324.273 210.982 324.075C213.22 323.625 215.381 323.24 217.542 322.855C222.006 322.097 226.417 321.121 230.267 318.395C230.014 318.87 229.773 319.205 229.455 319.604C228.438 320.724 227.497 321.78 226.415 322.824C225.41 323.803 224.34 324.707 222.872 325.292C221.403 325.878 219.999 326.54 218.518 327.266C217.037 327.992 215.686 328.872 214.709 330.35C213.974 331.495 213.991 332.135 215.047 333.076C215.24 333.305 215.369 333.458 215.704 333.699C215.334 333.88 215.104 334.074 214.952 334.203C212.284 335.539 209.354 335.788 206.447 335.755C203.117 335.687 199.988 334.926 196.983 333.536C193.773 332.059 190.41 330.71 187.011 329.785C184.727 329.095 182.508 328.482 180.225 327.792C176.222 326.46 172.283 325.205 168.291 323.732C166.02 322.902 163.86 321.584 162.236 319.815C162.042 319.585 161.784 319.28 161.667 318.986C164.631 320.017 167.409 319.897 170.339 319.648C171.273 319.514 172.131 319.444 173.065 319.31C178.438 318.7 183.793 319.152 189.012 320.374C191.308 320.922 193.515 321.677 195.61 322.918C198.45 324.577 201.214 326.301 203.978 328.025C204.324 328.125 204.647 328.507 205.375 328.285ZM204.871 327.532C203.122 326.391 201.503 325.403 199.959 324.35C196.527 322.144 192.994 320.284 188.955 319.375C183.313 318.118 177.676 317.642 171.932 318.434C169.924 318.69 167.927 318.805 166.007 318.856C164.445 318.866 162.983 318.53 161.545 317.911C161.134 317.735 160.671 317.341 160.489 316.971C159.944 315.86 160.022 314.093 161.785 313.39C162.372 313.156 163.101 312.933 163.741 312.917C165.098 312.818 166.519 312.796 167.94 312.775C174.957 312.871 181.762 313.8 188.619 314.947C195.477 316.094 202.293 316.883 209.258 316.762C214.584 316.715 219.724 315.517 224.418 312.862C225.018 312.487 225.593 312.394 226.222 312.518C228.388 312.914 230.526 312.811 232.623 312.349C232.916 312.232 233.339 312.268 233.774 312.162C233.442 314.405 232.248 315.937 230.72 317.227C228.275 319.291 225.414 320.398 222.448 321.069C219.916 321.636 217.397 322.062 214.801 322.552C212.997 322.897 211.053 323.229 209.303 323.791C207.347 324.264 205.56 325.249 204.871 327.532ZM243.759 356.08C243.836 356.016 243.848 355.875 243.924 355.81C246.79 355.485 247.989 354.735 249.911 352.981C251.68 351.356 253.385 349.655 255.284 348.184C258.405 345.68 261.982 344.492 265.992 344.902C268.388 345.104 270.683 345.653 272.955 346.483C273.366 346.66 273.853 346.772 274.34 346.884C275.867 347.297 276.39 346.986 277.213 345.637C277.378 345.367 277.466 345.161 277.631 344.891C278.849 343.078 279.861 341.177 281.208 339.516C282.948 337.393 283.726 334.904 283.952 332.226C284.036 331.24 284.043 330.318 283.985 329.32C283.958 327.117 284.213 324.939 284.75 322.785C285.163 321.258 285.37 319.644 285.783 318.117C285.807 317.836 285.895 317.63 285.995 317.284C287.484 319.822 287.974 322.418 288.03 325.12C288.132 333.147 286.016 340.561 281.886 347.451C280.403 349.88 278.457 351.915 275.866 353.187C274.309 353.978 272.558 354.539 270.884 355.037C266.884 356.189 262.895 357.2 258.831 358.276C254.625 359.34 250.526 359.136 246.494 357.305C245.443 357.145 244.569 356.575 243.759 356.08ZM224.017 304.171C222.276 302.108 220.751 299.992 219.75 297.566C219.281 296.391 218.813 295.216 218.204 294.029C217.401 292.613 217.661 291.216 218.472 290.007C219.537 288.323 221.3 287.62 223.208 287.71C224.412 287.741 225.451 288.042 226.643 288.213C228.105 288.55 229.49 288.951 230.964 289.146C233.13 289.542 235.12 290.349 236.692 291.901C237.478 292.677 238.187 293.517 238.832 294.282C241.723 297.861 242.083 302.007 241.009 306.316C240.773 307.432 240.114 308.511 239.197 309.285C236.623 311.197 233.974 311.47 231.122 309.952C228.27 308.433 225.953 306.463 224.017 304.171ZM241.028 351.45C241.028 351.45 241.093 351.526 241.169 351.462C241.081 351.667 241.057 351.949 240.892 352.219C238.467 357.407 235.232 362.101 230.735 365.766C228.073 367.883 225.164 369.553 221.84 370.266C219.743 370.728 217.67 370.907 215.573 371.369C213.693 371.778 211.737 372.251 209.846 372.801C205.628 374.006 201.463 375.428 197.246 376.633C194.779 377.276 192.271 377.561 189.828 377.922C188.535 378.097 187.203 377.913 185.97 377.383C184.943 376.942 183.851 376.424 183.306 375.313C184.216 375.461 185.127 375.609 185.984 375.54C187.699 375.401 189.308 374.827 190.801 373.96C192.805 372.922 194.744 371.809 196.735 370.913C198.357 370.198 199.943 369.906 201.474 371.1C202.078 371.506 202.513 371.401 202.995 370.732C203.16 370.462 203.248 370.257 203.413 369.987C204.325 368.432 205.161 366.941 206.202 365.539C208.143 362.722 210.693 361.093 214.123 360.815C214.98 360.745 215.697 360.664 216.478 360.659C218.321 360.673 220.165 360.687 221.997 360.841C228.85 361.207 234.584 358.853 239.07 353.626C239.846 352.84 240.405 352.107 241.028 351.45ZM278.751 315.678C278.686 315.602 278.686 315.602 278.698 315.461C279.004 315.203 279.233 315.009 279.539 314.751C282.688 312.747 285.322 310.131 287.416 307.185C289.51 304.24 291.475 301.142 293.363 298.108C295.405 294.945 297.651 291.87 300.426 289.266C303.2 286.662 306.181 284.146 309.02 281.619C310.242 280.587 311.348 279.261 312.042 277.758C312.054 277.617 312.207 277.488 312.448 277.154C312.575 279.01 312.368 280.624 312.096 282.163C311.276 285.996 309.774 289.488 307.862 292.804C304.861 298.086 301.191 302.885 296.325 306.732C295.114 307.623 293.903 308.514 292.628 309.329C288.65 311.902 284.373 313.812 279.849 315.274C279.467 315.597 279.109 315.638 278.751 315.678ZM248.919 321.887C248.097 321.533 247.557 321.204 247.082 320.951C245.72 320.268 244.294 319.509 242.856 318.891C242.175 318.549 241.342 318.337 240.561 318.342C238.359 318.369 236.133 318.677 234.206 319.65C232.649 320.441 231.08 321.373 229.511 322.305C228.541 322.862 227.56 323.559 226.549 323.758C228.19 321.98 229.971 320.215 231.547 318.361C233.199 316.443 234.312 314.195 235.013 311.77C237.151 311.667 238.708 310.876 240.172 309.51C241.494 308.131 242.072 306.335 242.432 304.591C247.633 300.986 252.165 296.898 255.254 291.411C255.193 293.819 254.926 296.138 254.8 298.469C254.65 301.082 253.884 303.43 252.285 305.566C250.355 308.241 249.248 311.27 249.18 314.599C249.113 316.226 249.188 317.864 249.186 319.567C248.985 320.26 248.926 320.965 248.919 321.887ZM241.694 215.045C243.766 216.568 245.443 218.555 246.826 220.659C248.585 223.362 250.05 226.183 251.655 229.015C253.144 231.553 254.568 234.015 256.809 236.05C257.929 237.067 258.821 238.278 259.712 239.488C261.869 242.509 262.993 246.01 264.052 249.435C265.438 254.023 265.674 258.797 265.486 263.536C265.462 263.818 265.374 264.023 265.286 264.228C264.502 261.749 263.806 259.065 262.881 256.574C261.136 252.027 257.887 248.488 254.626 245.09C252.667 243.08 250.925 241.017 249.425 238.619C246.799 234.423 245.565 229.707 244.907 224.897C244.412 221.52 243.776 218.131 241.694 215.045ZM252.782 255.153C252.782 255.153 252.859 255.089 252.923 255.165C253.04 255.459 253.234 255.688 253.351 255.982C253.48 256.135 253.533 256.352 253.585 256.569C256.596 262.927 257.869 269.705 257.773 276.722C257.769 280.128 257.342 283.498 256.146 286.732C255.027 289.902 253.509 292.754 251.503 295.494C250.945 296.227 250.257 296.808 249.622 297.606C249.557 297.529 249.493 297.453 249.352 297.441C249.641 296.543 249.853 295.709 250.142 294.811C251.168 291.066 251.348 287.249 251.247 283.409C251.237 281.847 251.01 280.337 251.076 278.711C251.231 276.879 251.527 275.059 251.746 273.303C252.101 270.778 252.662 268.342 252.94 265.882C253.296 263.357 253.574 260.897 253.149 258.378C253.179 257.174 252.981 256.164 252.782 255.153ZM232.054 311.52C231.837 311.573 231.76 311.638 231.684 311.702C228.307 312.197 225.142 311.859 222.173 310.047C219.473 308.4 217.397 306.095 215.856 303.34C214.315 300.584 213.273 297.799 212.971 294.651C212.808 293.218 213.003 291.745 213.61 290.448C214.381 288.881 215.656 288.066 217.574 289.718C217.486 289.923 217.474 290.064 217.386 290.27C216.55 291.76 216.789 293.129 217.592 294.545C218.085 295.438 218.424 296.46 218.84 297.418C219.074 298.005 219.244 298.517 219.554 299.04C220.615 300.761 221.753 302.419 223.031 304.088C224.374 305.833 225.934 307.526 227.811 308.82C229.085 309.708 230.499 310.608 232.054 311.52ZM182.487 248.931C182.499 248.79 182.576 248.725 182.588 248.585C183.292 248.644 184.009 248.563 184.713 248.622C186.815 248.942 188.953 248.838 191.038 248.518C196.142 247.743 201.103 248.658 205.663 250.96C207.975 252.149 210.123 253.607 212.358 254.861C212.628 255.025 212.822 255.255 213.092 255.419C212.875 255.472 212.593 255.448 212.452 255.436C209.358 254.252 206.041 254.043 202.74 254.474C201.307 254.637 199.874 254.799 198.441 254.962C195.293 255.264 192.281 254.797 189.582 253.149C188.027 252.237 186.484 251.184 184.929 250.272C184.107 249.919 183.297 249.425 182.487 248.931ZM153.975 339.483C154.051 339.418 153.986 339.342 154.063 339.278C154.844 339.273 155.625 339.268 156.341 339.186C159.002 338.772 161.663 338.358 164.4 337.88C167.788 337.244 171.166 336.749 174.6 337.252C176.138 337.523 177.741 337.872 179.279 338.144C182.485 338.84 185.69 339.537 189.12 339.259C189.337 339.206 189.543 339.295 189.684 339.306C189.302 339.629 188.931 339.811 188.573 339.851C185.313 340.64 182.182 341.582 178.776 341.578C176.011 341.558 173.197 342.1 170.431 342.08C165.246 342.138 160.185 341.569 155.36 339.884C154.796 339.836 154.385 339.66 153.975 339.483ZM213.833 305.44C213.54 305.557 213.399 305.545 213.322 305.609C209.159 305.329 204.908 305.253 200.757 304.832C195.555 304.25 190.882 302.436 186.676 299.313C186.406 299.149 186.148 298.843 185.954 298.614C186.031 298.549 186.107 298.485 186.042 298.408C188.455 299.251 191.015 299.183 193.523 298.898C197.464 298.451 201.233 299.195 204.778 300.914C207.231 302.114 209.672 303.456 212.126 304.657C212.754 304.781 213.229 305.034 213.833 305.44ZM241.347 293.075C241.313 291.795 241.397 290.808 241.263 289.874C240.942 287.789 240.557 285.628 240.019 283.595C238.639 278.086 238.117 272.507 238.594 266.87C238.617 266.588 238.706 266.383 238.741 265.96C238.858 266.254 238.988 266.406 238.976 266.547C240.099 270.048 241.223 273.549 242.422 276.986C243.166 279.107 243.845 281.151 244.012 283.365C244.087 285.004 244.097 286.566 243.825 288.104C243.618 289.718 242.424 291.25 241.347 293.075ZM217.356 285.584C217.75 285.12 218.003 284.645 218.45 284.399C219.266 283.971 220.083 283.543 220.952 283.333C224.277 282.62 227.659 282.906 230.805 284.307C234.015 285.785 236.438 288.189 238.402 290.981C238.97 291.809 239.539 292.638 239.52 293.701C239.057 293.307 238.734 292.925 238.412 292.543C236.4 290.315 234.047 288.768 231.035 288.301C230.125 288.153 229.215 288.005 228.317 287.716C225.687 286.926 223.01 286.7 220.256 286.538C219.334 286.531 218.359 286.307 217.356 285.584ZM305.708 266.224L305.696 266.365C304.504 266.193 303.324 265.881 302.132 265.709C298.709 265.065 296.392 263.095 295.18 259.8C294.671 258.266 293.945 256.786 293.218 255.305C292.984 254.718 292.532 254.183 292.081 253.648C293.466 254.049 295.139 255.254 296.376 256.565C298.71 259.175 301.121 261.721 303.531 264.266C304.176 265.03 304.974 265.665 305.708 266.224ZM216.876 284.55C216.51 285.512 216.733 286.241 217.39 286.864C217.853 287.258 217.741 287.745 217.412 288.285C216.642 288.149 215.885 287.872 215.169 287.954C214.452 288.035 213.841 288.551 213.024 288.979C213.896 287.066 214.743 285.434 216.876 284.55Z" fill="#B38451"/>
</svg>
